%TF.GenerationSoftware,KiCad,Pcbnew,(6.0.5-0)*%
%TF.CreationDate,2022-06-26T23:43:10+02:00*%
%TF.ProjectId,Fuji-IoT,46756a69-2d49-46f5-942e-6b696361645f,rev?*%
%TF.SameCoordinates,Original*%
%TF.FileFunction,Copper,L2,Bot*%
%TF.FilePolarity,Positive*%
%FSLAX46Y46*%
G04 Gerber Fmt 4.6, Leading zero omitted, Abs format (unit mm)*
G04 Created by KiCad (PCBNEW (6.0.5-0)) date 2022-06-26 23:43:10*
%MOMM*%
%LPD*%
G01*
G04 APERTURE LIST*
%TA.AperFunction,ComponentPad*%
%ADD10R,1.700000X1.700000*%
%TD*%
%TA.AperFunction,ComponentPad*%
%ADD11O,1.700000X1.700000*%
%TD*%
%TA.AperFunction,ComponentPad*%
%ADD12C,1.524000*%
%TD*%
%TA.AperFunction,ComponentPad*%
%ADD13C,1.950000*%
%TD*%
%TA.AperFunction,SMDPad,CuDef*%
%ADD14R,2.500000X1.000000*%
%TD*%
%TA.AperFunction,SMDPad,CuDef*%
%ADD15R,1.000000X1.800000*%
%TD*%
%TA.AperFunction,ViaPad*%
%ADD16C,0.800000*%
%TD*%
%TA.AperFunction,Conductor*%
%ADD17C,0.250000*%
%TD*%
%TA.AperFunction,Conductor*%
%ADD18C,0.750000*%
%TD*%
G04 APERTURE END LIST*
D10*
%TO.P,J1,1,Pin_1*%
%TO.N,3V3*%
X66200000Y-54340000D03*
D11*
%TO.P,J1,2,Pin_2*%
%TO.N,DBG*%
X66200000Y-51800000D03*
%TO.P,J1,3,Pin_3*%
%TO.N,GND*%
X66200000Y-49260000D03*
%TD*%
D12*
%TO.P,U3,1,RX*%
%TO.N,RX*%
X57810000Y-49330000D03*
%TO.P,U3,2,VCC*%
%TO.N,3V3*%
X57810000Y-51870000D03*
%TO.P,U3,3,IO0*%
%TO.N,SLP*%
X55270000Y-49330000D03*
%TO.P,U3,4,RST*%
%TO.N,RST*%
X55270000Y-51870000D03*
%TO.P,U3,5,IO2*%
%TO.N,DBG*%
X52730000Y-49330000D03*
%TO.P,U3,6,CH_PD*%
%TO.N,CH_PD*%
X52730000Y-51870000D03*
%TO.P,U3,7,GND*%
%TO.N,GND*%
X50190000Y-49330000D03*
%TO.P,U3,8,TX*%
%TO.N,TX*%
X50190000Y-51870000D03*
%TD*%
D13*
%TO.P,J2,1*%
%TO.N,VIN*%
X64100000Y-71900000D03*
%TO.P,J2,2*%
%TO.N,Net-(C4-Pad1)*%
X60600000Y-71900000D03*
%TO.P,J2,3*%
%TO.N,GND*%
X57100000Y-71900000D03*
%TD*%
D14*
%TO.P,U4,1,~{RST}*%
%TO.N,RST*%
X61600000Y-39500000D03*
%TO.P,U4,2,ADC*%
%TO.N,unconnected-(U4-Pad2)*%
X61600000Y-41500000D03*
%TO.P,U4,3,EN*%
%TO.N,CH_PD*%
X61600000Y-43500000D03*
%TO.P,U4,4,GPIO16*%
%TO.N,unconnected-(U4-Pad4)*%
X61600000Y-45500000D03*
%TO.P,U4,5,GPIO14*%
%TO.N,unconnected-(U4-Pad5)*%
X61600000Y-47500000D03*
%TO.P,U4,6,GPIO12*%
%TO.N,unconnected-(U4-Pad6)*%
X61600000Y-49500000D03*
%TO.P,U4,7,GPIO13*%
%TO.N,unconnected-(U4-Pad7)*%
X61600000Y-51500000D03*
%TO.P,U4,8,VCC*%
%TO.N,3V3*%
X61600000Y-53500000D03*
D15*
%TO.P,U4,9,CS0*%
%TO.N,unconnected-(U4-Pad9)*%
X59000000Y-55000000D03*
%TO.P,U4,10,MISO*%
%TO.N,unconnected-(U4-Pad10)*%
X57000000Y-55000000D03*
%TO.P,U4,11,GPIO9*%
%TO.N,unconnected-(U4-Pad11)*%
X55000000Y-55000000D03*
%TO.P,U4,12,GPIO10*%
%TO.N,unconnected-(U4-Pad12)*%
X53000000Y-55000000D03*
%TO.P,U4,13,MOSI*%
%TO.N,unconnected-(U4-Pad13)*%
X51000000Y-55000000D03*
%TO.P,U4,14,SCLK*%
%TO.N,unconnected-(U4-Pad14)*%
X49000000Y-55000000D03*
D14*
%TO.P,U4,15,GND*%
%TO.N,GND*%
X46400000Y-53500000D03*
%TO.P,U4,16,GPIO15*%
%TO.N,unconnected-(U4-Pad16)*%
X46400000Y-51500000D03*
%TO.P,U4,17,GPIO2*%
%TO.N,DBG*%
X46400000Y-49500000D03*
%TO.P,U4,18,GPIO0*%
%TO.N,SLP*%
X46400000Y-47500000D03*
%TO.P,U4,19,GPIO4*%
%TO.N,unconnected-(U4-Pad19)*%
X46400000Y-45500000D03*
%TO.P,U4,20,GPIO5*%
%TO.N,unconnected-(U4-Pad20)*%
X46400000Y-43500000D03*
%TO.P,U4,21,GPIO3/RXD*%
%TO.N,RX*%
X46400000Y-41500000D03*
%TO.P,U4,22,GPIO1/TXD*%
%TO.N,TX*%
X46400000Y-39500000D03*
%TD*%
D16*
%TO.N,GND*%
X47100000Y-62400000D03*
X59000000Y-66500000D03*
X53000000Y-66500000D03*
X57900000Y-62500000D03*
X49000000Y-53500000D03*
X51500000Y-53500000D03*
X67500000Y-71500000D03*
X67500000Y-74500000D03*
X67500000Y-62500000D03*
X67500000Y-65500000D03*
X67500000Y-59500000D03*
X67500000Y-68500000D03*
X67500000Y-44500000D03*
X67500000Y-41500000D03*
X67500000Y-32500000D03*
X67500000Y-38500000D03*
X67500000Y-35500000D03*
X65000000Y-29500000D03*
X62000000Y-29500000D03*
X59000000Y-29500000D03*
X56000000Y-29500000D03*
X53000000Y-29500000D03*
X50000000Y-29500000D03*
X47000000Y-29500000D03*
X44000000Y-29500000D03*
X41000000Y-29500000D03*
X41000000Y-68500000D03*
X41000000Y-71500000D03*
X41000000Y-62500000D03*
X41000000Y-65500000D03*
X41000000Y-38500000D03*
X41000000Y-35500000D03*
X41000000Y-53500000D03*
X41000000Y-59500000D03*
X41000000Y-50500000D03*
X41000000Y-47500000D03*
X41000000Y-56500000D03*
X41000000Y-32500000D03*
X41000000Y-44500000D03*
X41000000Y-41500000D03*
%TO.N,CH_PD*%
X52800000Y-47524500D03*
%TO.N,RST*%
X56900000Y-43500000D03*
%TO.N,VIN*%
X63600000Y-62800000D03*
X64100000Y-69700000D03*
%TO.N,3V3*%
X62360000Y-54340000D03*
%TO.N,TX*%
X54000000Y-64100000D03*
X48600000Y-39500000D03*
X49200000Y-57300000D03*
%TO.N,SLP*%
X53900000Y-61600000D03*
X54000000Y-57000000D03*
X50100000Y-46800000D03*
%TO.N,RX*%
X57500000Y-59650000D03*
X49800000Y-41500000D03*
X57500000Y-57000000D03*
%TO.N,DBG*%
X58700000Y-46900000D03*
%TD*%
D17*
%TO.N,CH_PD*%
X52800000Y-47524500D02*
X54062250Y-46262250D01*
X61600000Y-43500000D02*
X59400000Y-43500000D01*
X59400000Y-43500000D02*
X56637750Y-46262250D01*
X56637750Y-46262250D02*
X54062250Y-46262250D01*
%TO.N,RST*%
X58400000Y-42000000D02*
X58400000Y-40000000D01*
X58400000Y-40000000D02*
X58900000Y-39500000D01*
X56900000Y-43500000D02*
X58400000Y-42000000D01*
X58900000Y-39500000D02*
X61600000Y-39500000D01*
%TO.N,DBG*%
X58700000Y-46900000D02*
X55160000Y-46900000D01*
X55160000Y-46900000D02*
X52730000Y-49330000D01*
D18*
%TO.N,VIN*%
X64100000Y-69750000D02*
X64100000Y-63350000D01*
X64100000Y-63300000D02*
X63600000Y-62800000D01*
D17*
%TO.N,TX*%
X50000000Y-58100000D02*
X51600000Y-58100000D01*
X49200000Y-57300000D02*
X50000000Y-58100000D01*
X48600000Y-39500000D02*
X46400000Y-39500000D01*
X51600000Y-58100000D02*
X52800000Y-59300000D01*
X52800000Y-64100000D02*
X54000000Y-64100000D01*
X52800000Y-59300000D02*
X52800000Y-64100000D01*
%TO.N,SLP*%
X53500000Y-61600000D02*
X53900000Y-61600000D01*
X49300000Y-46900000D02*
X49400000Y-46800000D01*
X53300000Y-57700000D02*
X53300000Y-61400000D01*
X48700000Y-47500000D02*
X49300000Y-46900000D01*
X54000000Y-57000000D02*
X53300000Y-57700000D01*
X46400000Y-47500000D02*
X48700000Y-47500000D01*
X53300000Y-61400000D02*
X53500000Y-61600000D01*
X49400000Y-46800000D02*
X50100000Y-46800000D01*
%TO.N,RX*%
X57500000Y-59650000D02*
X57500000Y-57000000D01*
X46400000Y-41500000D02*
X49800000Y-41500000D01*
%TO.N,DBG*%
X48200000Y-49500000D02*
X48400000Y-49300000D01*
X48400000Y-48600000D02*
X49400000Y-47600000D01*
X51000000Y-47600000D02*
X52730000Y-49330000D01*
X49400000Y-47600000D02*
X51000000Y-47600000D01*
X48400000Y-49300000D02*
X48400000Y-48600000D01*
X46400000Y-49500000D02*
X48200000Y-49500000D01*
%TD*%
%TA.AperFunction,Conductor*%
%TO.N,GND*%
G36*
X67970018Y-28510000D02*
G01*
X67984852Y-28512310D01*
X67984855Y-28512310D01*
X67993724Y-28513691D01*
X68002626Y-28512527D01*
X68002750Y-28512511D01*
X68033192Y-28512240D01*
X68040621Y-28513077D01*
X68095264Y-28519234D01*
X68122771Y-28525513D01*
X68199853Y-28552485D01*
X68225274Y-28564727D01*
X68294426Y-28608178D01*
X68316485Y-28625770D01*
X68374230Y-28683515D01*
X68391822Y-28705574D01*
X68435273Y-28774726D01*
X68447515Y-28800147D01*
X68474487Y-28877228D01*
X68480766Y-28904736D01*
X68487018Y-28960226D01*
X68486923Y-28975868D01*
X68487800Y-28975879D01*
X68487690Y-28984851D01*
X68486309Y-28993724D01*
X68487473Y-29002626D01*
X68487473Y-29002628D01*
X68490436Y-29025283D01*
X68491500Y-29041621D01*
X68491500Y-76950633D01*
X68490000Y-76970018D01*
X68486309Y-76993724D01*
X68487473Y-77002626D01*
X68487489Y-77002750D01*
X68487760Y-77033192D01*
X68485430Y-77053870D01*
X68480766Y-77095264D01*
X68474487Y-77122771D01*
X68447515Y-77199853D01*
X68435273Y-77225274D01*
X68391822Y-77294426D01*
X68374230Y-77316485D01*
X68316485Y-77374230D01*
X68294426Y-77391822D01*
X68225274Y-77435273D01*
X68199853Y-77447515D01*
X68122772Y-77474487D01*
X68095264Y-77480766D01*
X68039774Y-77487018D01*
X68024132Y-77486923D01*
X68024121Y-77487800D01*
X68015149Y-77487690D01*
X68006276Y-77486309D01*
X67997374Y-77487473D01*
X67997372Y-77487473D01*
X67986385Y-77488910D01*
X67974714Y-77490436D01*
X67958379Y-77491500D01*
X40049367Y-77491500D01*
X40029982Y-77490000D01*
X40015148Y-77487690D01*
X40015145Y-77487690D01*
X40006276Y-77486309D01*
X39997374Y-77487473D01*
X39997250Y-77487489D01*
X39966808Y-77487760D01*
X39946130Y-77485430D01*
X39904736Y-77480766D01*
X39877229Y-77474487D01*
X39800147Y-77447515D01*
X39774726Y-77435273D01*
X39705574Y-77391822D01*
X39683515Y-77374230D01*
X39625770Y-77316485D01*
X39608178Y-77294426D01*
X39564727Y-77225274D01*
X39552485Y-77199853D01*
X39525513Y-77122772D01*
X39519234Y-77095266D01*
X39513170Y-77041451D01*
X39512888Y-77016640D01*
X39513576Y-77012552D01*
X39513729Y-77000000D01*
X39509773Y-76972376D01*
X39508500Y-76954514D01*
X39508500Y-73116624D01*
X56248621Y-73116624D01*
X56252988Y-73122774D01*
X56452563Y-73239397D01*
X56461846Y-73243844D01*
X56680007Y-73327152D01*
X56689905Y-73330028D01*
X56918744Y-73376585D01*
X56928972Y-73377804D01*
X57162340Y-73386362D01*
X57172626Y-73385895D01*
X57404262Y-73356222D01*
X57414340Y-73354080D01*
X57638014Y-73286974D01*
X57647612Y-73283212D01*
X57857324Y-73180476D01*
X57866169Y-73175203D01*
X57938869Y-73123347D01*
X57947270Y-73112646D01*
X57940283Y-73099493D01*
X57112812Y-72272022D01*
X57098868Y-72264408D01*
X57097035Y-72264539D01*
X57090420Y-72268790D01*
X56255881Y-73103329D01*
X56248621Y-73116624D01*
X39508500Y-73116624D01*
X39508500Y-71868799D01*
X55612658Y-71868799D01*
X55626102Y-72101942D01*
X55627535Y-72112144D01*
X55678873Y-72339949D01*
X55681956Y-72349789D01*
X55769814Y-72566156D01*
X55774457Y-72575347D01*
X55875555Y-72740325D01*
X55886011Y-72749785D01*
X55894789Y-72746001D01*
X56727978Y-71912812D01*
X56734356Y-71901132D01*
X57464408Y-71901132D01*
X57464539Y-71902965D01*
X57468790Y-71909580D01*
X58300045Y-72740835D01*
X58312055Y-72747394D01*
X58323794Y-72738426D01*
X58372518Y-72670619D01*
X58377829Y-72661780D01*
X58481291Y-72452442D01*
X58485089Y-72442849D01*
X58552974Y-72219413D01*
X58555151Y-72209343D01*
X58585869Y-71976015D01*
X58586388Y-71969340D01*
X58588001Y-71903364D01*
X58587807Y-71896647D01*
X58585093Y-71863631D01*
X59111860Y-71863631D01*
X59112157Y-71868783D01*
X59112157Y-71868787D01*
X59123558Y-72066499D01*
X59125903Y-72107171D01*
X59127040Y-72112217D01*
X59127041Y-72112223D01*
X59150107Y-72214575D01*
X59179533Y-72345147D01*
X59181475Y-72349929D01*
X59181476Y-72349933D01*
X59269275Y-72566156D01*
X59271311Y-72571169D01*
X59398772Y-72779166D01*
X59558492Y-72963553D01*
X59746183Y-73119377D01*
X59956804Y-73242453D01*
X60184698Y-73329478D01*
X60189764Y-73330509D01*
X60189765Y-73330509D01*
X60418667Y-73377080D01*
X60418671Y-73377080D01*
X60423746Y-73378113D01*
X60428922Y-73378303D01*
X60428924Y-73378303D01*
X60662363Y-73386863D01*
X60662367Y-73386863D01*
X60667527Y-73387052D01*
X60672647Y-73386396D01*
X60672649Y-73386396D01*
X60749377Y-73376567D01*
X60909494Y-73356055D01*
X60914443Y-73354570D01*
X60914449Y-73354569D01*
X61138200Y-73287440D01*
X61138199Y-73287440D01*
X61143150Y-73285955D01*
X61362219Y-73178634D01*
X61366424Y-73175634D01*
X61366430Y-73175631D01*
X61556614Y-73039974D01*
X61556616Y-73039972D01*
X61560818Y-73036975D01*
X61733614Y-72864781D01*
X61875966Y-72666677D01*
X61878387Y-72661780D01*
X61981756Y-72452626D01*
X61981757Y-72452624D01*
X61984050Y-72447984D01*
X62039786Y-72264539D01*
X62053462Y-72219527D01*
X62053463Y-72219521D01*
X62054966Y-72214575D01*
X62086807Y-71972717D01*
X62088584Y-71900000D01*
X62085594Y-71863631D01*
X62611860Y-71863631D01*
X62612157Y-71868783D01*
X62612157Y-71868787D01*
X62623558Y-72066499D01*
X62625903Y-72107171D01*
X62627040Y-72112217D01*
X62627041Y-72112223D01*
X62650107Y-72214575D01*
X62679533Y-72345147D01*
X62681475Y-72349929D01*
X62681476Y-72349933D01*
X62769275Y-72566156D01*
X62771311Y-72571169D01*
X62898772Y-72779166D01*
X63058492Y-72963553D01*
X63246183Y-73119377D01*
X63456804Y-73242453D01*
X63684698Y-73329478D01*
X63689764Y-73330509D01*
X63689765Y-73330509D01*
X63918667Y-73377080D01*
X63918671Y-73377080D01*
X63923746Y-73378113D01*
X63928922Y-73378303D01*
X63928924Y-73378303D01*
X64162363Y-73386863D01*
X64162367Y-73386863D01*
X64167527Y-73387052D01*
X64172647Y-73386396D01*
X64172649Y-73386396D01*
X64249377Y-73376567D01*
X64409494Y-73356055D01*
X64414443Y-73354570D01*
X64414449Y-73354569D01*
X64638200Y-73287440D01*
X64638199Y-73287440D01*
X64643150Y-73285955D01*
X64862219Y-73178634D01*
X64866424Y-73175634D01*
X64866430Y-73175631D01*
X65056614Y-73039974D01*
X65056616Y-73039972D01*
X65060818Y-73036975D01*
X65233614Y-72864781D01*
X65375966Y-72666677D01*
X65378387Y-72661780D01*
X65481756Y-72452626D01*
X65481757Y-72452624D01*
X65484050Y-72447984D01*
X65539786Y-72264539D01*
X65553462Y-72219527D01*
X65553463Y-72219521D01*
X65554966Y-72214575D01*
X65586807Y-71972717D01*
X65588584Y-71900000D01*
X65568596Y-71656876D01*
X65509167Y-71420280D01*
X65411894Y-71196568D01*
X65318888Y-71052802D01*
X65282200Y-70996091D01*
X65282198Y-70996088D01*
X65279390Y-70991748D01*
X65115212Y-70811319D01*
X65111161Y-70808120D01*
X65111157Y-70808116D01*
X64927825Y-70663329D01*
X64927821Y-70663327D01*
X64923770Y-70660127D01*
X64894370Y-70643897D01*
X64759175Y-70569266D01*
X64709204Y-70518833D01*
X64694432Y-70449390D01*
X64719548Y-70382985D01*
X64726416Y-70374665D01*
X64818704Y-70272169D01*
X64911564Y-70111331D01*
X64911565Y-70111326D01*
X64934527Y-70071556D01*
X64993542Y-69889928D01*
X65013504Y-69700000D01*
X64993542Y-69510072D01*
X64989667Y-69498146D01*
X64983500Y-69459210D01*
X64983500Y-63379457D01*
X64985051Y-63359745D01*
X64986118Y-63353008D01*
X64987150Y-63346493D01*
X64985383Y-63312763D01*
X64977776Y-63167624D01*
X64977775Y-63167621D01*
X64977430Y-63161029D01*
X64929362Y-62981637D01*
X64845047Y-62816161D01*
X64840894Y-62811032D01*
X64840891Y-62811028D01*
X64759551Y-62710582D01*
X64759548Y-62710579D01*
X64757472Y-62708015D01*
X64387004Y-62337546D01*
X64366981Y-62311451D01*
X64348168Y-62278866D01*
X64339040Y-62263056D01*
X64211253Y-62121134D01*
X64056752Y-62008882D01*
X64050724Y-62006198D01*
X64050722Y-62006197D01*
X63888319Y-61933891D01*
X63888318Y-61933891D01*
X63882288Y-61931206D01*
X63788888Y-61911353D01*
X63701944Y-61892872D01*
X63701939Y-61892872D01*
X63695487Y-61891500D01*
X63504513Y-61891500D01*
X63498061Y-61892872D01*
X63498056Y-61892872D01*
X63411112Y-61911353D01*
X63317712Y-61931206D01*
X63311682Y-61933891D01*
X63311681Y-61933891D01*
X63149278Y-62006197D01*
X63149276Y-62006198D01*
X63143248Y-62008882D01*
X62988747Y-62121134D01*
X62860960Y-62263056D01*
X62765473Y-62428444D01*
X62706458Y-62610072D01*
X62686496Y-62800000D01*
X62687186Y-62806565D01*
X62705587Y-62981637D01*
X62706458Y-62989928D01*
X62765473Y-63171556D01*
X62860960Y-63336944D01*
X62988747Y-63478866D01*
X63097869Y-63558148D01*
X63129422Y-63581073D01*
X63144456Y-63593914D01*
X63179595Y-63629053D01*
X63213621Y-63691365D01*
X63216500Y-63718148D01*
X63216500Y-69459210D01*
X63210333Y-69498146D01*
X63206458Y-69510072D01*
X63186496Y-69700000D01*
X63206458Y-69889928D01*
X63265473Y-70071556D01*
X63288435Y-70111326D01*
X63288436Y-70111331D01*
X63381296Y-70272169D01*
X63385711Y-70277072D01*
X63385715Y-70277077D01*
X63474351Y-70375517D01*
X63505068Y-70439524D01*
X63496304Y-70509978D01*
X63450841Y-70564509D01*
X63438916Y-70571578D01*
X63306769Y-70640370D01*
X63302636Y-70643473D01*
X63302633Y-70643475D01*
X63228050Y-70699474D01*
X63111690Y-70786840D01*
X62943153Y-70963204D01*
X62940239Y-70967476D01*
X62940238Y-70967477D01*
X62920719Y-70996091D01*
X62805684Y-71164726D01*
X62702974Y-71385995D01*
X62637783Y-71621067D01*
X62611860Y-71863631D01*
X62085594Y-71863631D01*
X62068596Y-71656876D01*
X62009167Y-71420280D01*
X61911894Y-71196568D01*
X61818888Y-71052802D01*
X61782200Y-70996091D01*
X61782198Y-70996088D01*
X61779390Y-70991748D01*
X61615212Y-70811319D01*
X61611161Y-70808120D01*
X61611157Y-70808116D01*
X61427825Y-70663329D01*
X61427821Y-70663327D01*
X61423770Y-70660127D01*
X61394370Y-70643897D01*
X61367759Y-70629207D01*
X61210205Y-70542233D01*
X61205336Y-70540509D01*
X61205332Y-70540507D01*
X60985127Y-70462528D01*
X60985123Y-70462527D01*
X60980252Y-70460802D01*
X60975159Y-70459895D01*
X60975156Y-70459894D01*
X60745177Y-70418928D01*
X60745171Y-70418927D01*
X60740088Y-70418022D01*
X60660380Y-70417048D01*
X60501332Y-70415105D01*
X60501330Y-70415105D01*
X60496162Y-70415042D01*
X60255024Y-70451941D01*
X60023150Y-70527729D01*
X59806769Y-70640370D01*
X59802636Y-70643473D01*
X59802633Y-70643475D01*
X59728050Y-70699474D01*
X59611690Y-70786840D01*
X59443153Y-70963204D01*
X59440239Y-70967476D01*
X59440238Y-70967477D01*
X59420719Y-70996091D01*
X59305684Y-71164726D01*
X59202974Y-71385995D01*
X59137783Y-71621067D01*
X59111860Y-71863631D01*
X58585093Y-71863631D01*
X58568525Y-71662108D01*
X58566842Y-71651946D01*
X58509952Y-71425453D01*
X58506634Y-71415706D01*
X58413513Y-71201542D01*
X58408646Y-71192467D01*
X58323465Y-71060796D01*
X58312779Y-71051593D01*
X58303214Y-71055996D01*
X57472022Y-71887188D01*
X57464408Y-71901132D01*
X56734356Y-71901132D01*
X56735592Y-71898868D01*
X56735461Y-71897035D01*
X56731210Y-71890420D01*
X55899892Y-71059102D01*
X55888356Y-71052802D01*
X55876073Y-71062426D01*
X55809036Y-71160698D01*
X55803943Y-71169662D01*
X55705619Y-71381483D01*
X55702062Y-71391151D01*
X55639657Y-71616178D01*
X55637726Y-71626298D01*
X55612910Y-71858510D01*
X55612658Y-71868799D01*
X39508500Y-71868799D01*
X39508500Y-70687142D01*
X56251938Y-70687142D01*
X56258684Y-70699474D01*
X57087188Y-71527978D01*
X57101132Y-71535592D01*
X57102965Y-71535461D01*
X57109580Y-71531210D01*
X57942391Y-70698399D01*
X57949412Y-70685543D01*
X57941639Y-70674875D01*
X57927548Y-70663746D01*
X57918970Y-70658047D01*
X57714526Y-70545189D01*
X57705126Y-70540964D01*
X57484993Y-70463011D01*
X57475036Y-70460381D01*
X57245129Y-70419427D01*
X57234878Y-70418458D01*
X57001367Y-70415605D01*
X56991083Y-70416325D01*
X56760253Y-70451647D01*
X56750225Y-70454036D01*
X56528263Y-70526584D01*
X56518753Y-70530581D01*
X56311624Y-70638405D01*
X56302904Y-70643897D01*
X56260391Y-70675817D01*
X56251938Y-70687142D01*
X39508500Y-70687142D01*
X39508500Y-57054568D01*
X42937382Y-57054568D01*
X42937963Y-57059588D01*
X42937963Y-57059592D01*
X42950924Y-57171607D01*
X42966208Y-57303699D01*
X42967587Y-57308573D01*
X42967588Y-57308577D01*
X43033116Y-57540148D01*
X43034494Y-57545017D01*
X43036628Y-57549592D01*
X43036630Y-57549599D01*
X43138347Y-57767731D01*
X43140484Y-57772313D01*
X43143326Y-57776494D01*
X43143326Y-57776495D01*
X43278605Y-57975552D01*
X43278608Y-57975556D01*
X43281451Y-57979739D01*
X43284928Y-57983416D01*
X43284929Y-57983417D01*
X43383106Y-58087237D01*
X43453767Y-58161959D01*
X43457793Y-58165037D01*
X43457794Y-58165038D01*
X43648981Y-58311212D01*
X43648985Y-58311215D01*
X43653001Y-58314285D01*
X43874026Y-58432797D01*
X43878807Y-58434443D01*
X43878811Y-58434445D01*
X44064834Y-58498498D01*
X44111156Y-58514448D01*
X44214689Y-58532331D01*
X44354380Y-58556460D01*
X44354386Y-58556461D01*
X44358290Y-58557135D01*
X44362251Y-58557315D01*
X44362252Y-58557315D01*
X44386931Y-58558436D01*
X44386950Y-58558436D01*
X44388350Y-58558500D01*
X44563015Y-58558500D01*
X44565523Y-58558298D01*
X44565528Y-58558298D01*
X44744944Y-58543863D01*
X44744949Y-58543862D01*
X44749985Y-58543457D01*
X44754893Y-58542252D01*
X44754896Y-58542251D01*
X44988625Y-58484841D01*
X44993539Y-58483634D01*
X44998191Y-58481659D01*
X44998195Y-58481658D01*
X45219741Y-58387617D01*
X45219742Y-58387617D01*
X45224396Y-58385641D01*
X45436615Y-58252000D01*
X45624738Y-58086147D01*
X45783924Y-57892351D01*
X45910078Y-57675596D01*
X45914042Y-57665271D01*
X45981350Y-57489928D01*
X45999955Y-57441461D01*
X46012329Y-57382232D01*
X46050206Y-57200921D01*
X46051241Y-57195967D01*
X46051516Y-57189928D01*
X46057814Y-57051217D01*
X46062618Y-56945432D01*
X46060653Y-56928444D01*
X46045684Y-56799079D01*
X46033792Y-56696301D01*
X46014591Y-56628444D01*
X45966884Y-56459852D01*
X45966883Y-56459850D01*
X45965506Y-56454983D01*
X45963372Y-56450408D01*
X45963370Y-56450401D01*
X45861653Y-56232269D01*
X45861651Y-56232265D01*
X45859516Y-56227687D01*
X45822233Y-56172827D01*
X45721395Y-56024448D01*
X45721392Y-56024444D01*
X45718549Y-56020261D01*
X45617925Y-55913853D01*
X45549713Y-55841721D01*
X45546233Y-55838041D01*
X45542206Y-55834962D01*
X45351019Y-55688788D01*
X45351015Y-55688785D01*
X45346999Y-55685715D01*
X45262888Y-55640615D01*
X45130435Y-55569595D01*
X45125974Y-55567203D01*
X45121193Y-55565557D01*
X45121189Y-55565555D01*
X44893633Y-55487201D01*
X44888844Y-55485552D01*
X44785311Y-55467669D01*
X44645620Y-55443540D01*
X44645614Y-55443539D01*
X44641710Y-55442865D01*
X44637749Y-55442685D01*
X44637748Y-55442685D01*
X44613069Y-55441564D01*
X44613050Y-55441564D01*
X44611650Y-55441500D01*
X44436985Y-55441500D01*
X44434477Y-55441702D01*
X44434472Y-55441702D01*
X44255056Y-55456137D01*
X44255051Y-55456138D01*
X44250015Y-55456543D01*
X44245107Y-55457748D01*
X44245104Y-55457749D01*
X44029366Y-55510740D01*
X44006461Y-55516366D01*
X44001809Y-55518341D01*
X44001805Y-55518342D01*
X43881061Y-55569595D01*
X43775604Y-55614359D01*
X43563385Y-55748000D01*
X43375262Y-55913853D01*
X43216076Y-56107649D01*
X43089922Y-56324404D01*
X43000045Y-56558539D01*
X42999012Y-56563485D01*
X42999010Y-56563491D01*
X42985942Y-56626045D01*
X42948759Y-56804033D01*
X42948530Y-56809082D01*
X42948529Y-56809088D01*
X42943369Y-56922721D01*
X42937382Y-57054568D01*
X39508500Y-57054568D01*
X39508500Y-54044669D01*
X44642001Y-54044669D01*
X44642371Y-54051490D01*
X44647895Y-54102352D01*
X44651521Y-54117604D01*
X44696676Y-54238054D01*
X44705214Y-54253649D01*
X44781715Y-54355724D01*
X44794276Y-54368285D01*
X44896351Y-54444786D01*
X44911946Y-54453324D01*
X45032394Y-54498478D01*
X45047649Y-54502105D01*
X45098514Y-54507631D01*
X45105328Y-54508000D01*
X46127885Y-54508000D01*
X46143124Y-54503525D01*
X46144329Y-54502135D01*
X46146000Y-54494452D01*
X46146000Y-53772115D01*
X46141525Y-53756876D01*
X46140135Y-53755671D01*
X46132452Y-53754000D01*
X44660116Y-53754000D01*
X44644877Y-53758475D01*
X44643672Y-53759865D01*
X44642001Y-53767548D01*
X44642001Y-54044669D01*
X39508500Y-54044669D01*
X39508500Y-52048134D01*
X44641500Y-52048134D01*
X44648255Y-52110316D01*
X44699385Y-52246705D01*
X44786739Y-52363261D01*
X44832594Y-52397627D01*
X44835074Y-52399486D01*
X44877589Y-52456345D01*
X44882615Y-52527164D01*
X44848555Y-52589457D01*
X44835075Y-52601138D01*
X44794274Y-52631717D01*
X44781715Y-52644276D01*
X44705214Y-52746351D01*
X44696676Y-52761946D01*
X44651522Y-52882394D01*
X44647895Y-52897649D01*
X44642369Y-52948514D01*
X44642000Y-52955328D01*
X44642000Y-53227885D01*
X44646475Y-53243124D01*
X44647865Y-53244329D01*
X44655548Y-53246000D01*
X48139884Y-53246000D01*
X48155123Y-53241525D01*
X48156328Y-53240135D01*
X48157999Y-53232452D01*
X48157999Y-52955331D01*
X48157629Y-52948510D01*
X48152105Y-52897648D01*
X48148479Y-52882396D01*
X48103324Y-52761946D01*
X48094786Y-52746351D01*
X48018285Y-52644276D01*
X48005726Y-52631717D01*
X47964925Y-52601138D01*
X47922411Y-52544278D01*
X47917386Y-52473460D01*
X47951446Y-52411166D01*
X47964926Y-52399486D01*
X47967407Y-52397627D01*
X48013261Y-52363261D01*
X48100615Y-52246705D01*
X48151745Y-52110316D01*
X48158500Y-52048134D01*
X48158500Y-50951866D01*
X48151745Y-50889684D01*
X48100615Y-50753295D01*
X48013261Y-50636739D01*
X47965340Y-50600824D01*
X47922827Y-50543967D01*
X47917801Y-50473149D01*
X47951861Y-50410855D01*
X47965330Y-50399183D01*
X48013261Y-50363261D01*
X48100615Y-50246705D01*
X48112399Y-50215270D01*
X48155039Y-50158507D01*
X48221600Y-50133806D01*
X48230381Y-50133500D01*
X48239856Y-50133500D01*
X48243791Y-50133003D01*
X48243856Y-50132995D01*
X48255693Y-50132062D01*
X48287951Y-50131048D01*
X48291970Y-50130922D01*
X48299889Y-50130673D01*
X48319343Y-50125021D01*
X48338700Y-50121013D01*
X48350930Y-50119468D01*
X48350931Y-50119468D01*
X48358797Y-50118474D01*
X48366168Y-50115555D01*
X48366170Y-50115555D01*
X48399912Y-50102196D01*
X48411142Y-50098351D01*
X48445983Y-50088229D01*
X48445984Y-50088229D01*
X48453593Y-50086018D01*
X48460412Y-50081985D01*
X48460417Y-50081983D01*
X48471028Y-50075707D01*
X48488776Y-50067012D01*
X48507617Y-50059552D01*
X48543387Y-50033564D01*
X48553307Y-50027048D01*
X48584535Y-50008580D01*
X48584538Y-50008578D01*
X48591362Y-50004542D01*
X48605683Y-49990221D01*
X48620717Y-49977380D01*
X48627867Y-49972185D01*
X48637107Y-49965472D01*
X48665298Y-49931395D01*
X48673288Y-49922616D01*
X48792247Y-49803657D01*
X48800537Y-49796113D01*
X48807018Y-49792000D01*
X48812443Y-49786223D01*
X48818552Y-49781169D01*
X48819660Y-49782509D01*
X48872549Y-49751431D01*
X48943489Y-49754266D01*
X49001635Y-49795004D01*
X49017387Y-49820398D01*
X49083623Y-49962441D01*
X49089103Y-49971932D01*
X49119794Y-50015765D01*
X49130271Y-50024140D01*
X49143718Y-50017072D01*
X50100905Y-49059885D01*
X50163217Y-49025859D01*
X50234032Y-49030924D01*
X50279095Y-49059885D01*
X51237003Y-50017793D01*
X51248777Y-50024223D01*
X51260793Y-50014926D01*
X51290897Y-49971932D01*
X51296377Y-49962441D01*
X51345529Y-49857035D01*
X51392447Y-49803750D01*
X51460724Y-49784289D01*
X51528684Y-49804831D01*
X51573919Y-49857035D01*
X51623186Y-49962689D01*
X51623189Y-49962694D01*
X51625512Y-49967676D01*
X51628668Y-49972183D01*
X51628669Y-49972185D01*
X51745450Y-50138965D01*
X51753023Y-50149781D01*
X51910219Y-50306977D01*
X51914727Y-50310134D01*
X51914730Y-50310136D01*
X51990495Y-50363187D01*
X52092323Y-50434488D01*
X52097305Y-50436811D01*
X52097310Y-50436814D01*
X52202373Y-50485805D01*
X52255658Y-50532722D01*
X52275119Y-50600999D01*
X52254577Y-50668959D01*
X52202373Y-50714195D01*
X52097311Y-50763186D01*
X52097306Y-50763189D01*
X52092324Y-50765512D01*
X52087817Y-50768668D01*
X52087815Y-50768669D01*
X51914730Y-50889864D01*
X51914727Y-50889866D01*
X51910219Y-50893023D01*
X51753023Y-51050219D01*
X51749866Y-51054727D01*
X51749864Y-51054730D01*
X51628669Y-51227815D01*
X51625512Y-51232324D01*
X51623189Y-51237306D01*
X51623186Y-51237311D01*
X51574195Y-51342373D01*
X51527277Y-51395658D01*
X51459000Y-51415119D01*
X51391040Y-51394577D01*
X51345805Y-51342373D01*
X51296814Y-51237311D01*
X51296811Y-51237306D01*
X51294488Y-51232324D01*
X51291331Y-51227815D01*
X51170136Y-51054730D01*
X51170134Y-51054727D01*
X51166977Y-51050219D01*
X51009781Y-50893023D01*
X51005273Y-50889866D01*
X51005270Y-50889864D01*
X50881288Y-50803051D01*
X50827677Y-50765512D01*
X50822695Y-50763189D01*
X50822690Y-50763186D01*
X50717035Y-50713919D01*
X50663750Y-50667002D01*
X50644289Y-50598725D01*
X50664831Y-50530765D01*
X50717035Y-50485529D01*
X50822445Y-50436376D01*
X50831931Y-50430898D01*
X50875764Y-50400207D01*
X50884139Y-50389729D01*
X50877071Y-50376281D01*
X50202812Y-49702022D01*
X50188868Y-49694408D01*
X50187035Y-49694539D01*
X50180420Y-49698790D01*
X49502207Y-50377003D01*
X49495777Y-50388777D01*
X49505074Y-50400793D01*
X49548069Y-50430898D01*
X49557555Y-50436376D01*
X49662965Y-50485529D01*
X49716250Y-50532446D01*
X49735711Y-50600723D01*
X49715169Y-50668683D01*
X49662965Y-50713919D01*
X49557311Y-50763186D01*
X49557306Y-50763189D01*
X49552324Y-50765512D01*
X49547817Y-50768668D01*
X49547815Y-50768669D01*
X49374730Y-50889864D01*
X49374727Y-50889866D01*
X49370219Y-50893023D01*
X49213023Y-51050219D01*
X49209866Y-51054727D01*
X49209864Y-51054730D01*
X49088669Y-51227815D01*
X49085512Y-51232324D01*
X49083189Y-51237306D01*
X49083186Y-51237311D01*
X49042478Y-51324610D01*
X48991560Y-51433804D01*
X48934022Y-51648537D01*
X48914647Y-51870000D01*
X48934022Y-52091463D01*
X48963800Y-52202596D01*
X48989058Y-52296857D01*
X48991560Y-52306196D01*
X48993882Y-52311177D01*
X48993883Y-52311178D01*
X49083186Y-52502689D01*
X49083189Y-52502694D01*
X49085512Y-52507676D01*
X49088668Y-52512183D01*
X49088669Y-52512185D01*
X49205679Y-52679292D01*
X49213023Y-52689781D01*
X49370219Y-52846977D01*
X49374727Y-52850134D01*
X49374730Y-52850136D01*
X49420802Y-52882396D01*
X49552323Y-52974488D01*
X49557305Y-52976811D01*
X49557310Y-52976814D01*
X49748822Y-53066117D01*
X49753804Y-53068440D01*
X49759112Y-53069862D01*
X49759114Y-53069863D01*
X49824949Y-53087503D01*
X49968537Y-53125978D01*
X50190000Y-53145353D01*
X50411463Y-53125978D01*
X50555051Y-53087503D01*
X50620886Y-53069863D01*
X50620888Y-53069862D01*
X50626196Y-53068440D01*
X50631178Y-53066117D01*
X50822690Y-52976814D01*
X50822695Y-52976811D01*
X50827677Y-52974488D01*
X50959198Y-52882396D01*
X51005270Y-52850136D01*
X51005273Y-52850134D01*
X51009781Y-52846977D01*
X51166977Y-52689781D01*
X51174322Y-52679292D01*
X51291331Y-52512185D01*
X51291332Y-52512183D01*
X51294488Y-52507676D01*
X51296811Y-52502694D01*
X51296814Y-52502689D01*
X51345805Y-52397627D01*
X51392723Y-52344342D01*
X51461000Y-52324881D01*
X51528960Y-52345423D01*
X51574195Y-52397627D01*
X51623186Y-52502689D01*
X51623189Y-52502694D01*
X51625512Y-52507676D01*
X51628668Y-52512183D01*
X51628669Y-52512185D01*
X51745679Y-52679292D01*
X51753023Y-52689781D01*
X51910219Y-52846977D01*
X51914727Y-52850134D01*
X51914730Y-52850136D01*
X51960802Y-52882396D01*
X52092323Y-52974488D01*
X52097305Y-52976811D01*
X52097310Y-52976814D01*
X52288822Y-53066117D01*
X52293804Y-53068440D01*
X52299112Y-53069862D01*
X52299114Y-53069863D01*
X52364949Y-53087503D01*
X52508537Y-53125978D01*
X52730000Y-53145353D01*
X52951463Y-53125978D01*
X53095051Y-53087503D01*
X53160886Y-53069863D01*
X53160888Y-53069862D01*
X53166196Y-53068440D01*
X53171178Y-53066117D01*
X53362690Y-52976814D01*
X53362695Y-52976811D01*
X53367677Y-52974488D01*
X53499198Y-52882396D01*
X53545270Y-52850136D01*
X53545273Y-52850134D01*
X53549781Y-52846977D01*
X53706977Y-52689781D01*
X53714322Y-52679292D01*
X53831331Y-52512185D01*
X53831332Y-52512183D01*
X53834488Y-52507676D01*
X53836811Y-52502694D01*
X53836814Y-52502689D01*
X53885805Y-52397627D01*
X53932723Y-52344342D01*
X54001000Y-52324881D01*
X54068960Y-52345423D01*
X54114195Y-52397627D01*
X54163186Y-52502689D01*
X54163189Y-52502694D01*
X54165512Y-52507676D01*
X54168668Y-52512183D01*
X54168669Y-52512185D01*
X54285679Y-52679292D01*
X54293023Y-52689781D01*
X54450219Y-52846977D01*
X54454727Y-52850134D01*
X54454730Y-52850136D01*
X54500802Y-52882396D01*
X54632323Y-52974488D01*
X54637305Y-52976811D01*
X54637310Y-52976814D01*
X54828822Y-53066117D01*
X54833804Y-53068440D01*
X54839112Y-53069862D01*
X54839114Y-53069863D01*
X54904949Y-53087503D01*
X55048537Y-53125978D01*
X55270000Y-53145353D01*
X55491463Y-53125978D01*
X55635051Y-53087503D01*
X55700886Y-53069863D01*
X55700888Y-53069862D01*
X55706196Y-53068440D01*
X55711178Y-53066117D01*
X55902690Y-52976814D01*
X55902695Y-52976811D01*
X55907677Y-52974488D01*
X56039198Y-52882396D01*
X56085270Y-52850136D01*
X56085273Y-52850134D01*
X56089781Y-52846977D01*
X56246977Y-52689781D01*
X56254322Y-52679292D01*
X56371331Y-52512185D01*
X56371332Y-52512183D01*
X56374488Y-52507676D01*
X56376811Y-52502694D01*
X56376814Y-52502689D01*
X56425805Y-52397627D01*
X56472723Y-52344342D01*
X56541000Y-52324881D01*
X56608960Y-52345423D01*
X56654195Y-52397627D01*
X56703186Y-52502689D01*
X56703189Y-52502694D01*
X56705512Y-52507676D01*
X56708668Y-52512183D01*
X56708669Y-52512185D01*
X56825679Y-52679292D01*
X56833023Y-52689781D01*
X56990219Y-52846977D01*
X56994727Y-52850134D01*
X56994730Y-52850136D01*
X57040802Y-52882396D01*
X57172323Y-52974488D01*
X57177305Y-52976811D01*
X57177310Y-52976814D01*
X57368822Y-53066117D01*
X57373804Y-53068440D01*
X57379112Y-53069862D01*
X57379114Y-53069863D01*
X57444949Y-53087503D01*
X57588537Y-53125978D01*
X57810000Y-53145353D01*
X58031463Y-53125978D01*
X58175051Y-53087503D01*
X58240886Y-53069863D01*
X58240888Y-53069862D01*
X58246196Y-53068440D01*
X58251178Y-53066117D01*
X58442690Y-52976814D01*
X58442695Y-52976811D01*
X58447677Y-52974488D01*
X58579198Y-52882396D01*
X58625270Y-52850136D01*
X58625273Y-52850134D01*
X58629781Y-52846977D01*
X58786977Y-52689781D01*
X58794322Y-52679292D01*
X58911331Y-52512185D01*
X58911332Y-52512183D01*
X58914488Y-52507676D01*
X58916811Y-52502694D01*
X58916814Y-52502689D01*
X59006117Y-52311178D01*
X59006118Y-52311177D01*
X59008440Y-52306196D01*
X59010943Y-52296857D01*
X59036200Y-52202596D01*
X59065978Y-52091463D01*
X59085353Y-51870000D01*
X59065978Y-51648537D01*
X59008440Y-51433804D01*
X58957522Y-51324610D01*
X58916814Y-51237311D01*
X58916811Y-51237306D01*
X58914488Y-51232324D01*
X58911331Y-51227815D01*
X58790136Y-51054730D01*
X58790134Y-51054727D01*
X58786977Y-51050219D01*
X58629781Y-50893023D01*
X58625273Y-50889866D01*
X58625270Y-50889864D01*
X58501288Y-50803051D01*
X58447677Y-50765512D01*
X58442695Y-50763189D01*
X58442690Y-50763186D01*
X58337627Y-50714195D01*
X58284342Y-50667278D01*
X58264881Y-50599001D01*
X58285423Y-50531041D01*
X58337627Y-50485805D01*
X58442690Y-50436814D01*
X58442695Y-50436811D01*
X58447677Y-50434488D01*
X58549505Y-50363187D01*
X58625270Y-50310136D01*
X58625273Y-50310134D01*
X58629781Y-50306977D01*
X58786977Y-50149781D01*
X58794551Y-50138965D01*
X58911331Y-49972185D01*
X58911332Y-49972183D01*
X58914488Y-49967676D01*
X58916811Y-49962694D01*
X58916814Y-49962689D01*
X59006117Y-49771178D01*
X59006118Y-49771177D01*
X59008440Y-49766196D01*
X59065978Y-49551463D01*
X59085353Y-49330000D01*
X59065978Y-49108537D01*
X59008440Y-48893804D01*
X58962120Y-48794470D01*
X58916814Y-48697311D01*
X58916811Y-48697306D01*
X58914488Y-48692324D01*
X58871802Y-48631362D01*
X58790136Y-48514730D01*
X58790134Y-48514727D01*
X58786977Y-48510219D01*
X58629781Y-48353023D01*
X58625273Y-48349866D01*
X58625270Y-48349864D01*
X58549505Y-48296813D01*
X58447677Y-48225512D01*
X58442695Y-48223189D01*
X58442690Y-48223186D01*
X58251178Y-48133883D01*
X58251177Y-48133882D01*
X58246196Y-48131560D01*
X58240888Y-48130138D01*
X58240886Y-48130137D01*
X58137594Y-48102460D01*
X58031463Y-48074022D01*
X57810000Y-48054647D01*
X57588537Y-48074022D01*
X57482406Y-48102460D01*
X57379114Y-48130137D01*
X57379112Y-48130138D01*
X57373804Y-48131560D01*
X57368823Y-48133882D01*
X57368822Y-48133883D01*
X57177311Y-48223186D01*
X57177306Y-48223189D01*
X57172324Y-48225512D01*
X57167817Y-48228668D01*
X57167815Y-48228669D01*
X56994730Y-48349864D01*
X56994727Y-48349866D01*
X56990219Y-48353023D01*
X56833023Y-48510219D01*
X56829866Y-48514727D01*
X56829864Y-48514730D01*
X56748198Y-48631362D01*
X56705512Y-48692324D01*
X56703189Y-48697306D01*
X56703186Y-48697311D01*
X56654195Y-48802373D01*
X56607277Y-48855658D01*
X56539000Y-48875119D01*
X56471040Y-48854577D01*
X56425805Y-48802373D01*
X56376814Y-48697311D01*
X56376811Y-48697306D01*
X56374488Y-48692324D01*
X56331802Y-48631362D01*
X56250136Y-48514730D01*
X56250134Y-48514727D01*
X56246977Y-48510219D01*
X56089781Y-48353023D01*
X56085273Y-48349866D01*
X56085270Y-48349864D01*
X56009505Y-48296813D01*
X55907677Y-48225512D01*
X55902695Y-48223189D01*
X55902690Y-48223186D01*
X55711178Y-48133883D01*
X55711177Y-48133882D01*
X55706196Y-48131560D01*
X55700888Y-48130138D01*
X55700886Y-48130137D01*
X55597594Y-48102460D01*
X55491463Y-48074022D01*
X55270000Y-48054647D01*
X55210768Y-48059829D01*
X55141164Y-48045840D01*
X55090171Y-47996440D01*
X55073981Y-47927314D01*
X55097734Y-47860409D01*
X55110692Y-47845213D01*
X55385500Y-47570405D01*
X55447812Y-47536379D01*
X55474595Y-47533500D01*
X57991800Y-47533500D01*
X58059921Y-47553502D01*
X58079147Y-47569843D01*
X58079420Y-47569540D01*
X58084332Y-47573963D01*
X58088747Y-47578866D01*
X58243248Y-47691118D01*
X58249276Y-47693802D01*
X58249278Y-47693803D01*
X58411681Y-47766109D01*
X58417712Y-47768794D01*
X58511113Y-47788647D01*
X58598056Y-47807128D01*
X58598061Y-47807128D01*
X58604513Y-47808500D01*
X58795487Y-47808500D01*
X58801939Y-47807128D01*
X58801944Y-47807128D01*
X58888887Y-47788647D01*
X58982288Y-47768794D01*
X58988319Y-47766109D01*
X59150722Y-47693803D01*
X59150724Y-47693802D01*
X59156752Y-47691118D01*
X59311253Y-47578866D01*
X59334091Y-47553502D01*
X59434621Y-47441852D01*
X59434622Y-47441851D01*
X59439040Y-47436944D01*
X59534527Y-47271556D01*
X59593542Y-47089928D01*
X59593705Y-47089981D01*
X59625982Y-47030196D01*
X59688132Y-46995875D01*
X59758971Y-47000603D01*
X59816008Y-47042879D01*
X59841135Y-47109281D01*
X59841500Y-47118867D01*
X59841500Y-48048134D01*
X59848255Y-48110316D01*
X59899385Y-48246705D01*
X59986739Y-48363261D01*
X60034660Y-48399176D01*
X60077173Y-48456033D01*
X60082199Y-48526851D01*
X60048139Y-48589145D01*
X60034670Y-48600817D01*
X59986739Y-48636739D01*
X59899385Y-48753295D01*
X59848255Y-48889684D01*
X59841500Y-48951866D01*
X59841500Y-50048134D01*
X59848255Y-50110316D01*
X59899385Y-50246705D01*
X59986739Y-50363261D01*
X60034660Y-50399176D01*
X60077173Y-50456033D01*
X60082199Y-50526851D01*
X60048139Y-50589145D01*
X60034670Y-50600817D01*
X59986739Y-50636739D01*
X59899385Y-50753295D01*
X59848255Y-50889684D01*
X59841500Y-50951866D01*
X59841500Y-52048134D01*
X59848255Y-52110316D01*
X59899385Y-52246705D01*
X59986739Y-52363261D01*
X60034660Y-52399176D01*
X60077173Y-52456033D01*
X60082199Y-52526851D01*
X60048139Y-52589145D01*
X60034670Y-52600817D01*
X59986739Y-52636739D01*
X59899385Y-52753295D01*
X59848255Y-52889684D01*
X59841500Y-52951866D01*
X59841500Y-53503124D01*
X59821498Y-53571245D01*
X59767842Y-53617738D01*
X59697568Y-53627842D01*
X59671273Y-53621107D01*
X59610316Y-53598255D01*
X59548134Y-53591500D01*
X58451866Y-53591500D01*
X58389684Y-53598255D01*
X58253295Y-53649385D01*
X58136739Y-53736739D01*
X58100824Y-53784660D01*
X58043967Y-53827173D01*
X57973149Y-53832199D01*
X57910855Y-53798139D01*
X57899183Y-53784670D01*
X57863261Y-53736739D01*
X57746705Y-53649385D01*
X57610316Y-53598255D01*
X57548134Y-53591500D01*
X56451866Y-53591500D01*
X56389684Y-53598255D01*
X56253295Y-53649385D01*
X56136739Y-53736739D01*
X56100824Y-53784660D01*
X56043967Y-53827173D01*
X55973149Y-53832199D01*
X55910855Y-53798139D01*
X55899183Y-53784670D01*
X55863261Y-53736739D01*
X55746705Y-53649385D01*
X55610316Y-53598255D01*
X55548134Y-53591500D01*
X54451866Y-53591500D01*
X54389684Y-53598255D01*
X54253295Y-53649385D01*
X54136739Y-53736739D01*
X54100824Y-53784660D01*
X54043967Y-53827173D01*
X53973149Y-53832199D01*
X53910855Y-53798139D01*
X53899183Y-53784670D01*
X53863261Y-53736739D01*
X53746705Y-53649385D01*
X53610316Y-53598255D01*
X53548134Y-53591500D01*
X52451866Y-53591500D01*
X52389684Y-53598255D01*
X52253295Y-53649385D01*
X52136739Y-53736739D01*
X52100824Y-53784660D01*
X52043967Y-53827173D01*
X51973149Y-53832199D01*
X51910855Y-53798139D01*
X51899183Y-53784670D01*
X51863261Y-53736739D01*
X51746705Y-53649385D01*
X51610316Y-53598255D01*
X51548134Y-53591500D01*
X50451866Y-53591500D01*
X50389684Y-53598255D01*
X50253295Y-53649385D01*
X50136739Y-53736739D01*
X50100824Y-53784660D01*
X50043967Y-53827173D01*
X49973149Y-53832199D01*
X49910855Y-53798139D01*
X49899183Y-53784670D01*
X49863261Y-53736739D01*
X49746705Y-53649385D01*
X49610316Y-53598255D01*
X49548134Y-53591500D01*
X48451866Y-53591500D01*
X48389684Y-53598255D01*
X48253295Y-53649385D01*
X48181870Y-53702915D01*
X48147297Y-53728826D01*
X48080791Y-53753674D01*
X48071732Y-53754000D01*
X46672115Y-53754000D01*
X46656876Y-53758475D01*
X46655671Y-53759865D01*
X46654000Y-53767548D01*
X46654000Y-54489884D01*
X46658475Y-54505123D01*
X46659865Y-54506328D01*
X46667548Y-54507999D01*
X47694669Y-54507999D01*
X47701490Y-54507629D01*
X47752352Y-54502105D01*
X47767603Y-54498479D01*
X47821270Y-54478360D01*
X47892077Y-54473177D01*
X47954446Y-54507097D01*
X47988575Y-54569352D01*
X47991500Y-54596342D01*
X47991500Y-55948134D01*
X47998255Y-56010316D01*
X48049385Y-56146705D01*
X48136739Y-56263261D01*
X48253295Y-56350615D01*
X48389684Y-56401745D01*
X48451866Y-56408500D01*
X48497692Y-56408500D01*
X48565813Y-56428502D01*
X48612306Y-56482158D01*
X48622410Y-56552432D01*
X48592916Y-56617012D01*
X48589184Y-56620817D01*
X48588747Y-56621134D01*
X48460960Y-56763056D01*
X48365473Y-56928444D01*
X48306458Y-57110072D01*
X48286496Y-57300000D01*
X48287186Y-57306565D01*
X48305307Y-57478973D01*
X48306458Y-57489928D01*
X48365473Y-57671556D01*
X48460960Y-57836944D01*
X48465378Y-57841851D01*
X48465379Y-57841852D01*
X48577504Y-57966379D01*
X48588747Y-57978866D01*
X48743248Y-58091118D01*
X48749276Y-58093802D01*
X48749278Y-58093803D01*
X48911681Y-58166109D01*
X48917712Y-58168794D01*
X49011113Y-58188647D01*
X49098056Y-58207128D01*
X49098061Y-58207128D01*
X49104513Y-58208500D01*
X49160405Y-58208500D01*
X49228526Y-58228502D01*
X49249500Y-58245405D01*
X49496348Y-58492253D01*
X49503888Y-58500539D01*
X49508000Y-58507018D01*
X49513777Y-58512443D01*
X49557651Y-58553643D01*
X49560493Y-58556398D01*
X49580230Y-58576135D01*
X49583427Y-58578615D01*
X49592447Y-58586318D01*
X49624679Y-58616586D01*
X49631625Y-58620405D01*
X49631628Y-58620407D01*
X49642434Y-58626348D01*
X49658953Y-58637199D01*
X49674959Y-58649614D01*
X49682228Y-58652759D01*
X49682232Y-58652762D01*
X49715537Y-58667174D01*
X49726187Y-58672391D01*
X49764940Y-58693695D01*
X49772615Y-58695666D01*
X49772616Y-58695666D01*
X49784562Y-58698733D01*
X49803267Y-58705137D01*
X49821855Y-58713181D01*
X49829678Y-58714420D01*
X49829688Y-58714423D01*
X49865524Y-58720099D01*
X49877144Y-58722505D01*
X49912289Y-58731528D01*
X49919970Y-58733500D01*
X49940224Y-58733500D01*
X49959934Y-58735051D01*
X49979943Y-58738220D01*
X49987835Y-58737474D01*
X50023961Y-58734059D01*
X50035819Y-58733500D01*
X51285406Y-58733500D01*
X51353527Y-58753502D01*
X51374501Y-58770405D01*
X52129595Y-59525499D01*
X52163621Y-59587811D01*
X52166500Y-59614594D01*
X52166500Y-64028207D01*
X52164268Y-64051816D01*
X52162725Y-64059906D01*
X52166251Y-64115951D01*
X52166500Y-64123862D01*
X52166500Y-64139856D01*
X52168506Y-64155730D01*
X52169248Y-64163590D01*
X52172775Y-64219650D01*
X52175225Y-64227191D01*
X52175321Y-64227487D01*
X52180494Y-64250631D01*
X52180532Y-64250935D01*
X52180533Y-64250940D01*
X52181526Y-64258797D01*
X52184442Y-64266162D01*
X52184443Y-64266166D01*
X52202199Y-64311011D01*
X52204871Y-64318430D01*
X52222236Y-64371875D01*
X52226486Y-64378571D01*
X52226486Y-64378572D01*
X52226650Y-64378831D01*
X52237415Y-64399958D01*
X52237529Y-64400246D01*
X52237532Y-64400251D01*
X52240448Y-64407617D01*
X52245104Y-64414025D01*
X52245107Y-64414031D01*
X52273458Y-64453052D01*
X52277901Y-64459589D01*
X52308000Y-64507018D01*
X52313778Y-64512444D01*
X52313779Y-64512445D01*
X52314007Y-64512659D01*
X52329688Y-64530446D01*
X52334528Y-64537107D01*
X52340637Y-64542161D01*
X52340638Y-64542162D01*
X52377796Y-64572903D01*
X52383730Y-64578134D01*
X52418898Y-64611158D01*
X52418901Y-64611160D01*
X52424679Y-64616586D01*
X52431903Y-64620558D01*
X52451506Y-64633881D01*
X52451746Y-64634080D01*
X52451753Y-64634084D01*
X52457856Y-64639133D01*
X52497400Y-64657741D01*
X52508676Y-64663047D01*
X52515708Y-64666629D01*
X52564940Y-64693695D01*
X52572615Y-64695665D01*
X52572621Y-64695668D01*
X52572919Y-64695744D01*
X52595228Y-64703776D01*
X52595503Y-64703906D01*
X52595511Y-64703909D01*
X52602682Y-64707283D01*
X52657849Y-64717806D01*
X52665558Y-64719529D01*
X52699551Y-64728257D01*
X52712293Y-64731529D01*
X52712294Y-64731529D01*
X52719970Y-64733500D01*
X52728207Y-64733500D01*
X52751816Y-64735732D01*
X52752119Y-64735790D01*
X52752123Y-64735790D01*
X52759906Y-64737275D01*
X52815951Y-64733749D01*
X52823862Y-64733500D01*
X53291800Y-64733500D01*
X53359921Y-64753502D01*
X53379147Y-64769843D01*
X53379420Y-64769540D01*
X53384332Y-64773963D01*
X53388747Y-64778866D01*
X53543248Y-64891118D01*
X53549276Y-64893802D01*
X53549278Y-64893803D01*
X53711681Y-64966109D01*
X53717712Y-64968794D01*
X53811113Y-64988647D01*
X53898056Y-65007128D01*
X53898061Y-65007128D01*
X53904513Y-65008500D01*
X54095487Y-65008500D01*
X54101939Y-65007128D01*
X54101944Y-65007128D01*
X54188887Y-64988647D01*
X54282288Y-64968794D01*
X54288319Y-64966109D01*
X54450722Y-64893803D01*
X54450724Y-64893802D01*
X54456752Y-64891118D01*
X54611253Y-64778866D01*
X54650091Y-64735732D01*
X54734621Y-64641852D01*
X54734622Y-64641851D01*
X54739040Y-64636944D01*
X54834527Y-64471556D01*
X54893542Y-64289928D01*
X54896040Y-64266166D01*
X54912814Y-64106565D01*
X54913504Y-64100000D01*
X54912814Y-64093435D01*
X54894232Y-63916635D01*
X54894232Y-63916633D01*
X54893542Y-63910072D01*
X54834527Y-63728444D01*
X54739040Y-63563056D01*
X54611253Y-63421134D01*
X54456752Y-63308882D01*
X54450724Y-63306198D01*
X54450722Y-63306197D01*
X54288319Y-63233891D01*
X54288318Y-63233891D01*
X54282288Y-63231206D01*
X54188887Y-63211353D01*
X54101944Y-63192872D01*
X54101939Y-63192872D01*
X54095487Y-63191500D01*
X53904513Y-63191500D01*
X53898061Y-63192872D01*
X53898056Y-63192872D01*
X53811113Y-63211353D01*
X53717712Y-63231206D01*
X53610748Y-63278829D01*
X53540382Y-63288263D01*
X53476085Y-63258157D01*
X53438271Y-63198068D01*
X53433500Y-63163722D01*
X53433500Y-62580801D01*
X53453502Y-62512680D01*
X53507158Y-62466187D01*
X53577432Y-62456083D01*
X53605375Y-62464144D01*
X53605400Y-62464068D01*
X53607665Y-62464804D01*
X53610747Y-62465693D01*
X53617712Y-62468794D01*
X53711112Y-62488647D01*
X53798056Y-62507128D01*
X53798061Y-62507128D01*
X53804513Y-62508500D01*
X53995487Y-62508500D01*
X54001939Y-62507128D01*
X54001944Y-62507128D01*
X54088888Y-62488647D01*
X54182288Y-62468794D01*
X54258800Y-62434729D01*
X54350722Y-62393803D01*
X54350724Y-62393802D01*
X54356752Y-62391118D01*
X54366500Y-62384036D01*
X54446629Y-62325818D01*
X54511253Y-62278866D01*
X54639040Y-62136944D01*
X54734527Y-61971556D01*
X54793542Y-61789928D01*
X54813504Y-61600000D01*
X54793542Y-61410072D01*
X54734527Y-61228444D01*
X54639040Y-61063056D01*
X54511253Y-60921134D01*
X54356752Y-60808882D01*
X54350724Y-60806198D01*
X54350722Y-60806197D01*
X54188319Y-60733891D01*
X54188318Y-60733891D01*
X54182288Y-60731206D01*
X54033303Y-60699538D01*
X53970829Y-60665809D01*
X53936508Y-60603660D01*
X53933500Y-60576291D01*
X53933500Y-58034500D01*
X53953502Y-57966379D01*
X54007158Y-57919886D01*
X54059500Y-57908500D01*
X54095487Y-57908500D01*
X54101939Y-57907128D01*
X54101944Y-57907128D01*
X54192030Y-57887979D01*
X54282288Y-57868794D01*
X54366668Y-57831226D01*
X54450722Y-57793803D01*
X54450724Y-57793802D01*
X54456752Y-57791118D01*
X54611253Y-57678866D01*
X54643005Y-57643602D01*
X54734621Y-57541852D01*
X54734625Y-57541847D01*
X54739040Y-57536944D01*
X54834527Y-57371556D01*
X54893542Y-57189928D01*
X54913504Y-57000000D01*
X54893542Y-56810072D01*
X54834527Y-56628444D01*
X54831204Y-56622687D01*
X54816662Y-56597501D01*
X54799923Y-56528506D01*
X54823143Y-56461414D01*
X54878949Y-56417526D01*
X54925780Y-56408500D01*
X55548134Y-56408500D01*
X55610316Y-56401745D01*
X55746705Y-56350615D01*
X55863261Y-56263261D01*
X55899176Y-56215340D01*
X55956033Y-56172827D01*
X56026851Y-56167801D01*
X56089145Y-56201861D01*
X56100817Y-56215330D01*
X56136739Y-56263261D01*
X56253295Y-56350615D01*
X56389684Y-56401745D01*
X56451866Y-56408500D01*
X56574220Y-56408500D01*
X56642341Y-56428502D01*
X56688834Y-56482158D01*
X56698938Y-56552432D01*
X56683338Y-56597501D01*
X56668797Y-56622687D01*
X56665473Y-56628444D01*
X56606458Y-56810072D01*
X56586496Y-57000000D01*
X56606458Y-57189928D01*
X56665473Y-57371556D01*
X56760960Y-57536944D01*
X56834137Y-57618215D01*
X56864853Y-57682221D01*
X56866500Y-57702524D01*
X56866500Y-58947476D01*
X56846498Y-59015597D01*
X56834142Y-59031779D01*
X56760960Y-59113056D01*
X56665473Y-59278444D01*
X56606458Y-59460072D01*
X56586496Y-59650000D01*
X56606458Y-59839928D01*
X56665473Y-60021556D01*
X56760960Y-60186944D01*
X56888747Y-60328866D01*
X57043248Y-60441118D01*
X57049276Y-60443802D01*
X57049278Y-60443803D01*
X57211681Y-60516109D01*
X57217712Y-60518794D01*
X57311112Y-60538647D01*
X57398056Y-60557128D01*
X57398061Y-60557128D01*
X57404513Y-60558500D01*
X57595487Y-60558500D01*
X57601939Y-60557128D01*
X57601944Y-60557128D01*
X57688888Y-60538647D01*
X57782288Y-60518794D01*
X57788319Y-60516109D01*
X57950722Y-60443803D01*
X57950724Y-60443802D01*
X57956752Y-60441118D01*
X58111253Y-60328866D01*
X58239040Y-60186944D01*
X58334527Y-60021556D01*
X58393542Y-59839928D01*
X58413504Y-59650000D01*
X58393542Y-59460072D01*
X58334527Y-59278444D01*
X58239040Y-59113056D01*
X58165863Y-59031785D01*
X58135147Y-58967779D01*
X58133500Y-58947476D01*
X58133500Y-57702524D01*
X58153502Y-57634403D01*
X58165858Y-57618221D01*
X58239040Y-57536944D01*
X58334527Y-57371556D01*
X58393542Y-57189928D01*
X58407769Y-57054568D01*
X62437382Y-57054568D01*
X62437963Y-57059588D01*
X62437963Y-57059592D01*
X62450924Y-57171607D01*
X62466208Y-57303699D01*
X62467587Y-57308573D01*
X62467588Y-57308577D01*
X62533116Y-57540148D01*
X62534494Y-57545017D01*
X62536628Y-57549592D01*
X62536630Y-57549599D01*
X62638347Y-57767731D01*
X62640484Y-57772313D01*
X62643326Y-57776494D01*
X62643326Y-57776495D01*
X62778605Y-57975552D01*
X62778608Y-57975556D01*
X62781451Y-57979739D01*
X62784928Y-57983416D01*
X62784929Y-57983417D01*
X62883106Y-58087237D01*
X62953767Y-58161959D01*
X62957793Y-58165037D01*
X62957794Y-58165038D01*
X63148981Y-58311212D01*
X63148985Y-58311215D01*
X63153001Y-58314285D01*
X63374026Y-58432797D01*
X63378807Y-58434443D01*
X63378811Y-58434445D01*
X63564834Y-58498498D01*
X63611156Y-58514448D01*
X63714689Y-58532331D01*
X63854380Y-58556460D01*
X63854386Y-58556461D01*
X63858290Y-58557135D01*
X63862251Y-58557315D01*
X63862252Y-58557315D01*
X63886931Y-58558436D01*
X63886950Y-58558436D01*
X63888350Y-58558500D01*
X64063015Y-58558500D01*
X64065523Y-58558298D01*
X64065528Y-58558298D01*
X64244944Y-58543863D01*
X64244949Y-58543862D01*
X64249985Y-58543457D01*
X64254893Y-58542252D01*
X64254896Y-58542251D01*
X64488625Y-58484841D01*
X64493539Y-58483634D01*
X64498191Y-58481659D01*
X64498195Y-58481658D01*
X64719741Y-58387617D01*
X64719742Y-58387617D01*
X64724396Y-58385641D01*
X64936615Y-58252000D01*
X65124738Y-58086147D01*
X65283924Y-57892351D01*
X65410078Y-57675596D01*
X65414042Y-57665271D01*
X65481350Y-57489928D01*
X65499955Y-57441461D01*
X65512329Y-57382232D01*
X65550206Y-57200921D01*
X65551241Y-57195967D01*
X65551516Y-57189928D01*
X65557814Y-57051217D01*
X65562618Y-56945432D01*
X65560653Y-56928444D01*
X65545684Y-56799079D01*
X65533792Y-56696301D01*
X65514591Y-56628444D01*
X65466884Y-56459852D01*
X65466883Y-56459850D01*
X65465506Y-56454983D01*
X65463372Y-56450408D01*
X65463370Y-56450401D01*
X65361653Y-56232269D01*
X65361651Y-56232265D01*
X65359516Y-56227687D01*
X65322233Y-56172827D01*
X65221395Y-56024448D01*
X65221392Y-56024444D01*
X65218549Y-56020261D01*
X65117925Y-55913853D01*
X65099909Y-55894802D01*
X65067638Y-55831564D01*
X65074678Y-55760917D01*
X65118795Y-55705292D01*
X65185982Y-55682348D01*
X65224293Y-55688436D01*
X65224600Y-55687144D01*
X65232284Y-55688971D01*
X65239684Y-55691745D01*
X65301866Y-55698500D01*
X67098134Y-55698500D01*
X67160316Y-55691745D01*
X67296705Y-55640615D01*
X67413261Y-55553261D01*
X67500615Y-55436705D01*
X67551745Y-55300316D01*
X67558500Y-55238134D01*
X67558500Y-53441866D01*
X67551745Y-53379684D01*
X67500615Y-53243295D01*
X67413261Y-53126739D01*
X67296705Y-53039385D01*
X67284132Y-53034672D01*
X67178203Y-52994960D01*
X67121439Y-52952318D01*
X67096739Y-52885756D01*
X67111947Y-52816408D01*
X67133493Y-52787727D01*
X67159608Y-52761703D01*
X67238096Y-52683489D01*
X67297594Y-52600689D01*
X67365435Y-52506277D01*
X67368453Y-52502077D01*
X67382597Y-52473460D01*
X67465136Y-52306453D01*
X67465137Y-52306451D01*
X67467430Y-52301811D01*
X67532370Y-52088069D01*
X67561529Y-51866590D01*
X67563156Y-51800000D01*
X67544852Y-51577361D01*
X67490431Y-51360702D01*
X67401354Y-51155840D01*
X67280014Y-50968277D01*
X67129670Y-50803051D01*
X67125619Y-50799852D01*
X67125615Y-50799848D01*
X66958414Y-50667800D01*
X66958410Y-50667798D01*
X66954359Y-50664598D01*
X66912569Y-50641529D01*
X66862598Y-50591097D01*
X66847826Y-50521654D01*
X66872942Y-50455248D01*
X66900294Y-50428641D01*
X67075328Y-50303792D01*
X67083200Y-50297139D01*
X67234052Y-50146812D01*
X67240730Y-50138965D01*
X67365003Y-49966020D01*
X67370313Y-49957183D01*
X67464670Y-49766267D01*
X67468469Y-49756672D01*
X67530377Y-49552910D01*
X67532555Y-49542837D01*
X67533986Y-49531962D01*
X67531775Y-49517778D01*
X67518617Y-49514000D01*
X64883225Y-49514000D01*
X64869694Y-49517973D01*
X64868257Y-49527966D01*
X64898565Y-49662446D01*
X64901645Y-49672275D01*
X64981770Y-49869603D01*
X64986413Y-49878794D01*
X65097694Y-50060388D01*
X65103777Y-50068699D01*
X65243213Y-50229667D01*
X65250580Y-50236883D01*
X65414434Y-50372916D01*
X65422881Y-50378831D01*
X65491969Y-50419203D01*
X65540693Y-50470842D01*
X65553764Y-50540625D01*
X65527033Y-50606396D01*
X65486584Y-50639752D01*
X65473607Y-50646507D01*
X65469474Y-50649610D01*
X65469471Y-50649612D01*
X65310902Y-50768669D01*
X65294965Y-50780635D01*
X65140629Y-50942138D01*
X65137715Y-50946410D01*
X65137714Y-50946411D01*
X65066901Y-51050219D01*
X65014743Y-51126680D01*
X64920688Y-51329305D01*
X64860989Y-51544570D01*
X64837251Y-51766695D01*
X64837548Y-51771848D01*
X64837548Y-51771851D01*
X64842892Y-51864525D01*
X64850110Y-51989715D01*
X64851247Y-51994761D01*
X64851248Y-51994767D01*
X64862505Y-52044717D01*
X64899222Y-52207639D01*
X64937461Y-52301811D01*
X64976368Y-52397627D01*
X64983266Y-52414616D01*
X65099987Y-52605088D01*
X65246250Y-52773938D01*
X65250230Y-52777242D01*
X65254981Y-52781187D01*
X65294616Y-52840090D01*
X65296113Y-52911071D01*
X65258997Y-52971593D01*
X65218724Y-52996112D01*
X65103295Y-53039385D01*
X64986739Y-53126739D01*
X64899385Y-53243295D01*
X64848255Y-53379684D01*
X64841500Y-53441866D01*
X64841500Y-55238134D01*
X64848255Y-55300316D01*
X64899385Y-55436705D01*
X64904771Y-55443891D01*
X64905027Y-55444233D01*
X64905175Y-55444630D01*
X64909079Y-55451760D01*
X64908050Y-55452324D01*
X64929874Y-55510740D01*
X64914820Y-55580123D01*
X64864645Y-55630352D01*
X64795279Y-55645481D01*
X64744659Y-55630841D01*
X64630435Y-55569595D01*
X64625974Y-55567203D01*
X64621193Y-55565557D01*
X64621189Y-55565555D01*
X64393633Y-55487201D01*
X64388844Y-55485552D01*
X64285311Y-55467669D01*
X64145620Y-55443540D01*
X64145614Y-55443539D01*
X64141710Y-55442865D01*
X64137749Y-55442685D01*
X64137748Y-55442685D01*
X64113069Y-55441564D01*
X64113050Y-55441564D01*
X64111650Y-55441500D01*
X63936985Y-55441500D01*
X63934477Y-55441702D01*
X63934472Y-55441702D01*
X63755056Y-55456137D01*
X63755051Y-55456138D01*
X63750015Y-55456543D01*
X63745107Y-55457748D01*
X63745104Y-55457749D01*
X63529366Y-55510740D01*
X63506461Y-55516366D01*
X63501809Y-55518341D01*
X63501805Y-55518342D01*
X63381061Y-55569595D01*
X63275604Y-55614359D01*
X63063385Y-55748000D01*
X62875262Y-55913853D01*
X62716076Y-56107649D01*
X62589922Y-56324404D01*
X62500045Y-56558539D01*
X62499012Y-56563485D01*
X62499010Y-56563491D01*
X62485942Y-56626045D01*
X62448759Y-56804033D01*
X62448530Y-56809082D01*
X62448529Y-56809088D01*
X62443369Y-56922721D01*
X62437382Y-57054568D01*
X58407769Y-57054568D01*
X58413504Y-57000000D01*
X58393542Y-56810072D01*
X58334527Y-56628444D01*
X58315373Y-56595268D01*
X58298635Y-56526272D01*
X58321856Y-56459180D01*
X58377663Y-56415293D01*
X58438096Y-56407005D01*
X58448459Y-56408130D01*
X58448461Y-56408130D01*
X58451866Y-56408500D01*
X59548134Y-56408500D01*
X59610316Y-56401745D01*
X59746705Y-56350615D01*
X59863261Y-56263261D01*
X59950615Y-56146705D01*
X60001745Y-56010316D01*
X60008500Y-55948134D01*
X60008500Y-54596876D01*
X60028502Y-54528755D01*
X60082158Y-54482262D01*
X60152432Y-54472158D01*
X60178727Y-54478893D01*
X60239684Y-54501745D01*
X60301866Y-54508500D01*
X61367952Y-54508500D01*
X61436073Y-54528502D01*
X61482566Y-54582158D01*
X61487783Y-54595558D01*
X61525473Y-54711556D01*
X61620960Y-54876944D01*
X61748747Y-55018866D01*
X61903248Y-55131118D01*
X61909276Y-55133802D01*
X61909278Y-55133803D01*
X62071681Y-55206109D01*
X62077712Y-55208794D01*
X62171112Y-55228647D01*
X62258056Y-55247128D01*
X62258061Y-55247128D01*
X62264513Y-55248500D01*
X62455487Y-55248500D01*
X62461939Y-55247128D01*
X62461944Y-55247128D01*
X62548888Y-55228647D01*
X62642288Y-55208794D01*
X62648319Y-55206109D01*
X62810722Y-55133803D01*
X62810724Y-55133802D01*
X62816752Y-55131118D01*
X62971253Y-55018866D01*
X63099040Y-54876944D01*
X63194527Y-54711556D01*
X63253542Y-54529928D01*
X63255886Y-54507631D01*
X63272814Y-54346565D01*
X63273504Y-54340000D01*
X63272814Y-54333435D01*
X63272814Y-54326830D01*
X63275641Y-54326830D01*
X63286193Y-54269211D01*
X63291750Y-54260246D01*
X63295229Y-54253891D01*
X63300615Y-54246705D01*
X63351745Y-54110316D01*
X63358500Y-54048134D01*
X63358500Y-52951866D01*
X63351745Y-52889684D01*
X63300615Y-52753295D01*
X63213261Y-52636739D01*
X63165340Y-52600824D01*
X63122827Y-52543967D01*
X63117801Y-52473149D01*
X63151861Y-52410855D01*
X63165330Y-52399183D01*
X63213261Y-52363261D01*
X63300615Y-52246705D01*
X63351745Y-52110316D01*
X63358500Y-52048134D01*
X63358500Y-50951866D01*
X63351745Y-50889684D01*
X63300615Y-50753295D01*
X63213261Y-50636739D01*
X63165340Y-50600824D01*
X63122827Y-50543967D01*
X63117801Y-50473149D01*
X63151861Y-50410855D01*
X63165330Y-50399183D01*
X63213261Y-50363261D01*
X63300615Y-50246705D01*
X63351745Y-50110316D01*
X63358500Y-50048134D01*
X63358500Y-48994183D01*
X64864389Y-48994183D01*
X64865912Y-49002607D01*
X64878292Y-49006000D01*
X65927885Y-49006000D01*
X65943124Y-49001525D01*
X65944329Y-49000135D01*
X65946000Y-48992452D01*
X65946000Y-48987885D01*
X66454000Y-48987885D01*
X66458475Y-49003124D01*
X66459865Y-49004329D01*
X66467548Y-49006000D01*
X67518344Y-49006000D01*
X67531875Y-49002027D01*
X67533180Y-48992947D01*
X67491214Y-48825875D01*
X67487894Y-48816124D01*
X67402972Y-48620814D01*
X67398105Y-48611739D01*
X67282426Y-48432926D01*
X67276136Y-48424757D01*
X67132806Y-48267240D01*
X67125273Y-48260215D01*
X66958139Y-48128222D01*
X66949552Y-48122517D01*
X66763117Y-48019599D01*
X66753705Y-48015369D01*
X66552959Y-47944280D01*
X66542988Y-47941646D01*
X66471837Y-47928972D01*
X66458540Y-47930432D01*
X66454000Y-47944989D01*
X66454000Y-48987885D01*
X65946000Y-48987885D01*
X65946000Y-47943102D01*
X65942082Y-47929758D01*
X65927806Y-47927771D01*
X65889324Y-47933660D01*
X65879288Y-47936051D01*
X65676868Y-48002212D01*
X65667359Y-48006209D01*
X65478463Y-48104542D01*
X65469738Y-48110036D01*
X65299433Y-48237905D01*
X65291726Y-48244748D01*
X65144590Y-48398717D01*
X65138104Y-48406727D01*
X65018098Y-48582649D01*
X65013000Y-48591623D01*
X64923338Y-48784783D01*
X64919775Y-48794470D01*
X64864389Y-48994183D01*
X63358500Y-48994183D01*
X63358500Y-48951866D01*
X63351745Y-48889684D01*
X63300615Y-48753295D01*
X63213261Y-48636739D01*
X63165340Y-48600824D01*
X63122827Y-48543967D01*
X63117801Y-48473149D01*
X63151861Y-48410855D01*
X63165330Y-48399183D01*
X63213261Y-48363261D01*
X63300615Y-48246705D01*
X63351745Y-48110316D01*
X63358500Y-48048134D01*
X63358500Y-46951866D01*
X63351745Y-46889684D01*
X63300615Y-46753295D01*
X63213261Y-46636739D01*
X63165340Y-46600824D01*
X63122827Y-46543967D01*
X63117801Y-46473149D01*
X63151861Y-46410855D01*
X63165330Y-46399183D01*
X63213261Y-46363261D01*
X63300615Y-46246705D01*
X63351745Y-46110316D01*
X63358500Y-46048134D01*
X63358500Y-44951866D01*
X63351745Y-44889684D01*
X63300615Y-44753295D01*
X63213261Y-44636739D01*
X63165340Y-44600824D01*
X63122827Y-44543967D01*
X63117801Y-44473149D01*
X63151861Y-44410855D01*
X63165330Y-44399183D01*
X63213261Y-44363261D01*
X63300615Y-44246705D01*
X63351745Y-44110316D01*
X63358500Y-44048134D01*
X63358500Y-42951866D01*
X63351745Y-42889684D01*
X63300615Y-42753295D01*
X63213261Y-42636739D01*
X63165340Y-42600824D01*
X63122827Y-42543967D01*
X63117801Y-42473149D01*
X63151861Y-42410855D01*
X63165330Y-42399183D01*
X63213261Y-42363261D01*
X63300615Y-42246705D01*
X63351745Y-42110316D01*
X63358500Y-42048134D01*
X63358500Y-40951866D01*
X63351745Y-40889684D01*
X63300615Y-40753295D01*
X63213261Y-40636739D01*
X63165340Y-40600824D01*
X63122827Y-40543967D01*
X63117801Y-40473149D01*
X63151861Y-40410855D01*
X63165330Y-40399183D01*
X63213261Y-40363261D01*
X63300615Y-40246705D01*
X63351745Y-40110316D01*
X63358500Y-40048134D01*
X63358500Y-38951866D01*
X63351745Y-38889684D01*
X63300615Y-38753295D01*
X63213261Y-38636739D01*
X63096705Y-38549385D01*
X62960316Y-38498255D01*
X62898134Y-38491500D01*
X62523781Y-38491500D01*
X62455660Y-38471498D01*
X62409167Y-38417842D01*
X62399063Y-38347568D01*
X62421791Y-38298437D01*
X62418507Y-38296280D01*
X62423434Y-38288780D01*
X62429378Y-38282049D01*
X62441943Y-38255287D01*
X62450263Y-38240309D01*
X62461471Y-38223017D01*
X62461473Y-38223012D01*
X62466352Y-38215485D01*
X62468922Y-38206892D01*
X62468924Y-38206887D01*
X62473711Y-38190880D01*
X62480372Y-38173436D01*
X62487467Y-38158324D01*
X62487468Y-38158322D01*
X62491281Y-38150200D01*
X62495830Y-38120983D01*
X62499613Y-38104268D01*
X62505515Y-38084534D01*
X62505516Y-38084528D01*
X62508086Y-38075934D01*
X62508296Y-38041494D01*
X62508329Y-38040711D01*
X62508500Y-38039614D01*
X62508500Y-38008623D01*
X62508502Y-38007853D01*
X62508952Y-37934215D01*
X62508952Y-37934214D01*
X62508976Y-37930279D01*
X62508592Y-37928935D01*
X62508500Y-37927590D01*
X62508500Y-31008623D01*
X62508502Y-31007853D01*
X62508800Y-30959102D01*
X62508976Y-30930279D01*
X62500850Y-30901847D01*
X62497272Y-30885085D01*
X62494352Y-30864698D01*
X62493080Y-30855813D01*
X62482451Y-30832436D01*
X62476004Y-30814913D01*
X62471416Y-30798862D01*
X62468949Y-30790229D01*
X62464156Y-30782632D01*
X62453170Y-30765220D01*
X62445030Y-30750135D01*
X62442564Y-30744711D01*
X62432792Y-30723218D01*
X62416030Y-30703765D01*
X62404927Y-30688761D01*
X62391224Y-30667042D01*
X62384499Y-30661103D01*
X62384496Y-30661099D01*
X62369062Y-30647468D01*
X62357018Y-30635276D01*
X62343573Y-30619673D01*
X62343570Y-30619671D01*
X62337713Y-30612873D01*
X62324009Y-30603990D01*
X62316165Y-30598906D01*
X62301291Y-30587615D01*
X62288783Y-30576569D01*
X62288782Y-30576568D01*
X62282049Y-30570622D01*
X62255287Y-30558057D01*
X62240309Y-30549737D01*
X62223017Y-30538529D01*
X62223012Y-30538527D01*
X62215485Y-30533648D01*
X62206892Y-30531078D01*
X62206887Y-30531076D01*
X62190880Y-30526289D01*
X62173436Y-30519628D01*
X62158324Y-30512533D01*
X62158322Y-30512532D01*
X62150200Y-30508719D01*
X62141333Y-30507338D01*
X62141332Y-30507338D01*
X62130478Y-30505648D01*
X62120983Y-30504170D01*
X62104268Y-30500387D01*
X62084534Y-30494485D01*
X62084528Y-30494484D01*
X62075934Y-30491914D01*
X62066963Y-30491859D01*
X62066962Y-30491859D01*
X62056903Y-30491798D01*
X62041494Y-30491704D01*
X62040711Y-30491671D01*
X62039614Y-30491500D01*
X62008623Y-30491500D01*
X62007853Y-30491498D01*
X61934215Y-30491048D01*
X61934214Y-30491048D01*
X61930279Y-30491024D01*
X61928935Y-30491408D01*
X61927590Y-30491500D01*
X46008623Y-30491500D01*
X46007853Y-30491498D01*
X46007037Y-30491493D01*
X45930279Y-30491024D01*
X45907918Y-30497415D01*
X45901847Y-30499150D01*
X45885085Y-30502728D01*
X45855813Y-30506920D01*
X45847645Y-30510634D01*
X45847644Y-30510634D01*
X45832438Y-30517548D01*
X45814914Y-30523996D01*
X45790229Y-30531051D01*
X45782635Y-30535843D01*
X45782632Y-30535844D01*
X45765220Y-30546830D01*
X45750137Y-30554969D01*
X45723218Y-30567208D01*
X45716416Y-30573069D01*
X45703765Y-30583970D01*
X45688761Y-30595073D01*
X45667042Y-30608776D01*
X45661103Y-30615501D01*
X45661099Y-30615504D01*
X45647468Y-30630938D01*
X45635276Y-30642982D01*
X45619673Y-30656427D01*
X45619671Y-30656430D01*
X45612873Y-30662287D01*
X45607993Y-30669816D01*
X45607992Y-30669817D01*
X45598906Y-30683835D01*
X45587615Y-30698709D01*
X45576569Y-30711217D01*
X45570622Y-30717951D01*
X45564312Y-30731391D01*
X45558058Y-30744711D01*
X45549737Y-30759691D01*
X45538529Y-30776983D01*
X45538527Y-30776988D01*
X45533648Y-30784515D01*
X45531078Y-30793108D01*
X45531076Y-30793113D01*
X45526289Y-30809120D01*
X45519628Y-30826564D01*
X45512533Y-30841676D01*
X45508719Y-30849800D01*
X45507338Y-30858667D01*
X45507338Y-30858668D01*
X45504170Y-30879015D01*
X45500387Y-30895732D01*
X45494485Y-30915466D01*
X45494484Y-30915472D01*
X45491914Y-30924066D01*
X45491859Y-30933037D01*
X45491859Y-30933038D01*
X45491704Y-30958497D01*
X45491671Y-30959289D01*
X45491500Y-30960386D01*
X45491500Y-30991377D01*
X45491498Y-30992147D01*
X45491024Y-31069721D01*
X45491408Y-31071065D01*
X45491500Y-31072410D01*
X45491500Y-37991377D01*
X45491498Y-37992147D01*
X45491024Y-38069721D01*
X45493491Y-38078352D01*
X45499150Y-38098153D01*
X45502728Y-38114915D01*
X45506920Y-38144187D01*
X45510634Y-38152355D01*
X45510634Y-38152356D01*
X45517548Y-38167562D01*
X45523996Y-38185086D01*
X45531051Y-38209771D01*
X45535843Y-38217365D01*
X45535844Y-38217368D01*
X45546830Y-38234780D01*
X45554969Y-38249863D01*
X45567208Y-38276782D01*
X45573070Y-38283585D01*
X45577905Y-38291146D01*
X45576709Y-38291911D01*
X45602097Y-38347914D01*
X45591798Y-38418159D01*
X45545157Y-38471686D01*
X45477330Y-38491500D01*
X45101866Y-38491500D01*
X45039684Y-38498255D01*
X44903295Y-38549385D01*
X44786739Y-38636739D01*
X44699385Y-38753295D01*
X44648255Y-38889684D01*
X44641500Y-38951866D01*
X44641500Y-40048134D01*
X44648255Y-40110316D01*
X44699385Y-40246705D01*
X44786739Y-40363261D01*
X44834660Y-40399176D01*
X44877173Y-40456033D01*
X44882199Y-40526851D01*
X44848139Y-40589145D01*
X44834670Y-40600817D01*
X44786739Y-40636739D01*
X44699385Y-40753295D01*
X44648255Y-40889684D01*
X44641500Y-40951866D01*
X44641500Y-42048134D01*
X44648255Y-42110316D01*
X44699385Y-42246705D01*
X44786739Y-42363261D01*
X44834660Y-42399176D01*
X44877173Y-42456033D01*
X44882199Y-42526851D01*
X44848139Y-42589145D01*
X44834670Y-42600817D01*
X44786739Y-42636739D01*
X44699385Y-42753295D01*
X44648255Y-42889684D01*
X44641500Y-42951866D01*
X44641500Y-44048134D01*
X44648255Y-44110316D01*
X44699385Y-44246705D01*
X44786739Y-44363261D01*
X44834660Y-44399176D01*
X44877173Y-44456033D01*
X44882199Y-44526851D01*
X44848139Y-44589145D01*
X44834670Y-44600817D01*
X44786739Y-44636739D01*
X44699385Y-44753295D01*
X44648255Y-44889684D01*
X44641500Y-44951866D01*
X44641500Y-46048134D01*
X44648255Y-46110316D01*
X44699385Y-46246705D01*
X44786739Y-46363261D01*
X44834660Y-46399176D01*
X44877173Y-46456033D01*
X44882199Y-46526851D01*
X44848139Y-46589145D01*
X44834670Y-46600817D01*
X44786739Y-46636739D01*
X44699385Y-46753295D01*
X44648255Y-46889684D01*
X44641500Y-46951866D01*
X44641500Y-48048134D01*
X44648255Y-48110316D01*
X44699385Y-48246705D01*
X44786739Y-48363261D01*
X44834660Y-48399176D01*
X44877173Y-48456033D01*
X44882199Y-48526851D01*
X44848139Y-48589145D01*
X44834670Y-48600817D01*
X44786739Y-48636739D01*
X44699385Y-48753295D01*
X44648255Y-48889684D01*
X44641500Y-48951866D01*
X44641500Y-50048134D01*
X44648255Y-50110316D01*
X44699385Y-50246705D01*
X44786739Y-50363261D01*
X44834660Y-50399176D01*
X44877173Y-50456033D01*
X44882199Y-50526851D01*
X44848139Y-50589145D01*
X44834670Y-50600817D01*
X44786739Y-50636739D01*
X44699385Y-50753295D01*
X44648255Y-50889684D01*
X44641500Y-50951866D01*
X44641500Y-52048134D01*
X39508500Y-52048134D01*
X39508500Y-29053250D01*
X39510246Y-29032345D01*
X39512770Y-29017344D01*
X39512770Y-29017341D01*
X39513576Y-29012552D01*
X39513729Y-29000000D01*
X39513040Y-28995188D01*
X39512723Y-28990327D01*
X39513008Y-28990308D01*
X39512607Y-28963549D01*
X39519234Y-28904736D01*
X39525513Y-28877229D01*
X39552485Y-28800147D01*
X39564727Y-28774726D01*
X39608178Y-28705574D01*
X39625770Y-28683515D01*
X39683515Y-28625770D01*
X39705574Y-28608178D01*
X39774726Y-28564727D01*
X39800147Y-28552485D01*
X39877228Y-28525513D01*
X39904736Y-28519234D01*
X39960226Y-28512982D01*
X39975868Y-28513077D01*
X39975879Y-28512200D01*
X39984851Y-28512310D01*
X39993724Y-28513691D01*
X40002626Y-28512527D01*
X40002628Y-28512527D01*
X40017951Y-28510523D01*
X40025286Y-28509564D01*
X40041621Y-28508500D01*
X67950633Y-28508500D01*
X67970018Y-28510000D01*
G37*
%TD.AperFunction*%
%TD*%
M02*
