M48
; DRILL file {KiCad (6.0.5-0)} date 2022 June 26, Sunday 23:43:02
; FORMAT={-:-/ absolute / metric / decimal}
; #@! TF.CreationDate,2022-06-26T23:43:02+02:00
; #@! TF.GenerationSoftware,Kicad,Pcbnew,(6.0.5-0)
; #@! TF.FileFunction,Plated,1,2,PTH
FMAT,2
METRIC
; #@! TA.AperFunction,Plated,PTH,ViaDrill
T1C0.400
; #@! TA.AperFunction,Plated,PTH,ComponentDrill
T2C1.000
; #@! TA.AperFunction,Plated,PTH,ComponentDrill
T3C1.016
; #@! TA.AperFunction,Plated,PTH,ComponentDrill
T4C1.300
%
G90
G05
T1
X41.0Y-29.5
X41.0Y-32.5
X41.0Y-35.5
X41.0Y-38.5
X41.0Y-41.5
X41.0Y-44.5
X41.0Y-47.5
X41.0Y-50.5
X41.0Y-53.5
X41.0Y-56.5
X41.0Y-59.5
X41.0Y-62.5
X41.0Y-65.5
X41.0Y-68.5
X41.0Y-71.5
X44.0Y-29.5
X47.0Y-29.5
X47.1Y-62.4
X48.6Y-39.5
X49.0Y-53.5
X49.2Y-57.3
X49.8Y-41.5
X50.0Y-29.5
X50.1Y-46.8
X51.5Y-53.5
X52.8Y-47.524
X53.0Y-29.5
X53.0Y-66.5
X53.9Y-61.6
X54.0Y-57.0
X54.0Y-64.1
X56.0Y-29.5
X56.9Y-43.5
X57.5Y-57.0
X57.5Y-59.65
X57.9Y-62.5
X58.7Y-46.9
X59.0Y-29.5
X59.0Y-66.5
X62.0Y-29.5
X62.36Y-54.34
X63.6Y-62.8
X64.1Y-69.7
X65.0Y-29.5
X67.5Y-32.5
X67.5Y-35.5
X67.5Y-38.5
X67.5Y-41.5
X67.5Y-44.5
X67.5Y-59.5
X67.5Y-62.5
X67.5Y-65.5
X67.5Y-68.5
X67.5Y-71.5
X67.5Y-74.5
T2
X66.2Y-49.26
X66.2Y-51.8
X66.2Y-54.34
T3
X50.19Y-49.33
X50.19Y-51.87
X52.73Y-49.33
X52.73Y-51.87
X55.27Y-49.33
X55.27Y-51.87
X57.81Y-49.33
X57.81Y-51.87
T4
X57.1Y-71.9
X60.6Y-71.9
X64.1Y-71.9
T0
M30
