%TF.GenerationSoftware,KiCad,Pcbnew,(6.0.5-0)*%
%TF.CreationDate,2022-06-26T23:43:10+02:00*%
%TF.ProjectId,Fuji-IoT,46756a69-2d49-46f5-942e-6b696361645f,rev?*%
%TF.SameCoordinates,Original*%
%TF.FileFunction,Copper,L1,Top*%
%TF.FilePolarity,Positive*%
%FSLAX46Y46*%
G04 Gerber Fmt 4.6, Leading zero omitted, Abs format (unit mm)*
G04 Created by KiCad (PCBNEW (6.0.5-0)) date 2022-06-26 23:43:10*
%MOMM*%
%LPD*%
G01*
G04 APERTURE LIST*
G04 Aperture macros list*
%AMRoundRect*
0 Rectangle with rounded corners*
0 $1 Rounding radius*
0 $2 $3 $4 $5 $6 $7 $8 $9 X,Y pos of 4 corners*
0 Add a 4 corners polygon primitive as box body*
4,1,4,$2,$3,$4,$5,$6,$7,$8,$9,$2,$3,0*
0 Add four circle primitives for the rounded corners*
1,1,$1+$1,$2,$3*
1,1,$1+$1,$4,$5*
1,1,$1+$1,$6,$7*
1,1,$1+$1,$8,$9*
0 Add four rect primitives between the rounded corners*
20,1,$1+$1,$2,$3,$4,$5,0*
20,1,$1+$1,$4,$5,$6,$7,0*
20,1,$1+$1,$6,$7,$8,$9,0*
20,1,$1+$1,$8,$9,$2,$3,0*%
G04 Aperture macros list end*
%TA.AperFunction,SMDPad,CuDef*%
%ADD10C,0.500000*%
%TD*%
%TA.AperFunction,ComponentPad*%
%ADD11R,1.700000X1.700000*%
%TD*%
%TA.AperFunction,ComponentPad*%
%ADD12O,1.700000X1.700000*%
%TD*%
%TA.AperFunction,SMDPad,CuDef*%
%ADD13RoundRect,0.250000X-0.337500X-0.475000X0.337500X-0.475000X0.337500X0.475000X-0.337500X0.475000X0*%
%TD*%
%TA.AperFunction,ComponentPad*%
%ADD14C,1.524000*%
%TD*%
%TA.AperFunction,SMDPad,CuDef*%
%ADD15R,2.000000X1.500000*%
%TD*%
%TA.AperFunction,SMDPad,CuDef*%
%ADD16R,2.000000X3.800000*%
%TD*%
%TA.AperFunction,SMDPad,CuDef*%
%ADD17RoundRect,0.250001X0.837499X1.399999X-0.837499X1.399999X-0.837499X-1.399999X0.837499X-1.399999X0*%
%TD*%
%TA.AperFunction,ComponentPad*%
%ADD18C,1.950000*%
%TD*%
%TA.AperFunction,SMDPad,CuDef*%
%ADD19RoundRect,0.150000X-0.825000X-0.150000X0.825000X-0.150000X0.825000X0.150000X-0.825000X0.150000X0*%
%TD*%
%TA.AperFunction,SMDPad,CuDef*%
%ADD20RoundRect,0.237500X0.237500X-0.300000X0.237500X0.300000X-0.237500X0.300000X-0.237500X-0.300000X0*%
%TD*%
%TA.AperFunction,ViaPad*%
%ADD21C,0.800000*%
%TD*%
%TA.AperFunction,Conductor*%
%ADD22C,0.250000*%
%TD*%
%TA.AperFunction,Conductor*%
%ADD23C,0.750000*%
%TD*%
%TA.AperFunction,Conductor*%
%ADD24C,0.500000*%
%TD*%
G04 APERTURE END LIST*
D10*
%TO.P,FID2,*%
%TO.N,*%
X41000000Y-76000000D03*
%TD*%
%TO.P,FID1,*%
%TO.N,*%
X67000000Y-30000000D03*
%TD*%
D11*
%TO.P,J1,1,Pin_1*%
%TO.N,3V3*%
X66200000Y-54340000D03*
D12*
%TO.P,J1,2,Pin_2*%
%TO.N,DBG*%
X66200000Y-51800000D03*
%TO.P,J1,3,Pin_3*%
%TO.N,GND*%
X66200000Y-49260000D03*
%TD*%
D13*
%TO.P,C4,2*%
%TO.N,GND*%
X65737500Y-65400000D03*
%TO.P,C4,1*%
%TO.N,Net-(C4-Pad1)*%
X63662500Y-65400000D03*
%TD*%
D14*
%TO.P,U3,1,RX*%
%TO.N,RX*%
X57810000Y-49330000D03*
%TO.P,U3,2,VCC*%
%TO.N,3V3*%
X57810000Y-51870000D03*
%TO.P,U3,3,IO0*%
%TO.N,SLP*%
X55270000Y-49330000D03*
%TO.P,U3,4,RST*%
%TO.N,RST*%
X55270000Y-51870000D03*
%TO.P,U3,5,IO2*%
%TO.N,DBG*%
X52730000Y-49330000D03*
%TO.P,U3,6,CH_PD*%
%TO.N,CH_PD*%
X52730000Y-51870000D03*
%TO.P,U3,7,GND*%
%TO.N,GND*%
X50190000Y-49330000D03*
%TO.P,U3,8,TX*%
%TO.N,TX*%
X50190000Y-51870000D03*
%TD*%
D15*
%TO.P,U1,3,VOUT*%
%TO.N,3V3*%
X50050000Y-69400000D03*
%TO.P,U1,2,GND*%
%TO.N,GND*%
X50050000Y-71700000D03*
D16*
X43750000Y-71700000D03*
D15*
%TO.P,U1,1,VIN*%
%TO.N,VIN*%
X50050000Y-74000000D03*
%TD*%
D13*
%TO.P,C3,2*%
%TO.N,GND*%
X65637500Y-60500000D03*
%TO.P,C3,1*%
%TO.N,VIN*%
X63562500Y-60500000D03*
%TD*%
D17*
%TO.P,C2,2*%
%TO.N,GND*%
X43912500Y-62400000D03*
%TO.P,C2,1*%
%TO.N,3V3*%
X50287500Y-62400000D03*
%TD*%
D18*
%TO.P,J2,1*%
%TO.N,VIN*%
X64100000Y-71900000D03*
%TO.P,J2,2*%
%TO.N,Net-(C4-Pad1)*%
X60600000Y-71900000D03*
%TO.P,J2,3*%
%TO.N,GND*%
X57100000Y-71900000D03*
%TD*%
D19*
%TO.P,U2,8,NC*%
%TO.N,unconnected-(U2-Pad8)*%
X60375000Y-60295000D03*
%TO.P,U2,7,VBAT*%
%TO.N,VIN*%
X60375000Y-61565000D03*
%TO.P,U2,6,LIN*%
%TO.N,Net-(C4-Pad1)*%
X60375000Y-62835000D03*
%TO.P,U2,5,GND*%
%TO.N,GND*%
X60375000Y-64105000D03*
%TO.P,U2,4,TXD*%
%TO.N,TX*%
X55425000Y-64105000D03*
%TO.P,U2,3,NC*%
%TO.N,unconnected-(U2-Pad3)*%
X55425000Y-62835000D03*
%TO.P,U2,2,~{SLP}*%
%TO.N,SLP*%
X55425000Y-61565000D03*
%TO.P,U2,1,RXD*%
%TO.N,RX*%
X55425000Y-60295000D03*
%TD*%
D20*
%TO.P,C1,2*%
%TO.N,GND*%
X53100000Y-72237500D03*
%TO.P,C1,1*%
%TO.N,VIN*%
X53100000Y-73962500D03*
%TD*%
D21*
%TO.N,GND*%
X47100000Y-62400000D03*
X59000000Y-66500000D03*
X53000000Y-66500000D03*
X57900000Y-62500000D03*
X49000000Y-53500000D03*
X51500000Y-53500000D03*
X67500000Y-71500000D03*
X67500000Y-74500000D03*
X67500000Y-62500000D03*
X67500000Y-65500000D03*
X67500000Y-59500000D03*
X67500000Y-68500000D03*
X67500000Y-44500000D03*
X67500000Y-41500000D03*
X67500000Y-32500000D03*
X67500000Y-38500000D03*
X67500000Y-35500000D03*
X65000000Y-29500000D03*
X62000000Y-29500000D03*
X59000000Y-29500000D03*
X56000000Y-29500000D03*
X53000000Y-29500000D03*
X50000000Y-29500000D03*
X47000000Y-29500000D03*
X44000000Y-29500000D03*
X41000000Y-29500000D03*
X41000000Y-68500000D03*
X41000000Y-71500000D03*
X41000000Y-62500000D03*
X41000000Y-65500000D03*
X41000000Y-38500000D03*
X41000000Y-35500000D03*
X41000000Y-53500000D03*
X41000000Y-59500000D03*
X41000000Y-50500000D03*
X41000000Y-47500000D03*
X41000000Y-56500000D03*
X41000000Y-32500000D03*
X41000000Y-44500000D03*
X41000000Y-41500000D03*
%TO.N,CH_PD*%
X52800000Y-47524500D03*
%TO.N,RST*%
X56900000Y-43500000D03*
%TO.N,VIN*%
X63600000Y-62800000D03*
X64100000Y-69700000D03*
%TO.N,3V3*%
X62360000Y-54340000D03*
%TO.N,TX*%
X54000000Y-64100000D03*
X48600000Y-39500000D03*
X49200000Y-57300000D03*
%TO.N,SLP*%
X53900000Y-61600000D03*
X54000000Y-57000000D03*
X50100000Y-46800000D03*
%TO.N,RX*%
X57500000Y-59650000D03*
X49800000Y-41500000D03*
X57500000Y-57000000D03*
%TO.N,DBG*%
X58700000Y-46900000D03*
%TD*%
D22*
%TO.N,DBG*%
X58700000Y-46900000D02*
X63600000Y-51800000D01*
X63600000Y-51800000D02*
X66200000Y-51800000D01*
D23*
%TO.N,3V3*%
X62360000Y-54340000D02*
X66200000Y-54340000D01*
D22*
%TO.N,CH_PD*%
X51500000Y-47800000D02*
X51775500Y-47524500D01*
X51500000Y-50640000D02*
X51500000Y-47800000D01*
X51775500Y-47524500D02*
X52800000Y-47524500D01*
X52730000Y-51870000D02*
X51500000Y-50640000D01*
%TO.N,RST*%
X55270000Y-51870000D02*
X55270000Y-50866560D01*
X55270000Y-50866560D02*
X56400000Y-49736560D01*
X56400000Y-49736560D02*
X56400000Y-44000000D01*
X56400000Y-44000000D02*
X56900000Y-43500000D01*
%TO.N,RX*%
X49800000Y-41500000D02*
X56200000Y-41500000D01*
X56200000Y-41500000D02*
X57810000Y-43110000D01*
X57810000Y-43110000D02*
X57810000Y-49330000D01*
X56600000Y-50540000D02*
X57810000Y-49330000D01*
%TO.N,SLP*%
X55270000Y-47070000D02*
X55270000Y-49330000D01*
X54000000Y-50600000D02*
X55270000Y-49330000D01*
%TO.N,TX*%
X48100000Y-52700000D02*
X48100000Y-52500000D01*
X48100000Y-52500000D02*
X48730000Y-51870000D01*
X48730000Y-51870000D02*
X50190000Y-51870000D01*
D23*
%TO.N,VIN*%
X64100000Y-71900000D02*
X64100000Y-75000000D01*
X63600000Y-60537500D02*
X63562500Y-60500000D01*
X63600000Y-62800000D02*
X63600000Y-61300000D01*
X53600000Y-75500000D02*
X53100000Y-75000000D01*
X63600000Y-75500000D02*
X53600000Y-75500000D01*
X53100000Y-75000000D02*
X53100000Y-73962500D01*
X63600000Y-61300000D02*
X63600000Y-60537500D01*
X53062500Y-74000000D02*
X53100000Y-73962500D01*
X50050000Y-74000000D02*
X53062500Y-74000000D01*
D24*
X60375000Y-61565000D02*
X63335000Y-61565000D01*
D23*
X64100000Y-71900000D02*
X64100000Y-69700000D01*
X64100000Y-75000000D02*
X63600000Y-75500000D01*
D24*
X63335000Y-61565000D02*
X63600000Y-61300000D01*
D23*
%TO.N,3V3*%
X60240000Y-54340000D02*
X57810000Y-51910000D01*
X62360000Y-54440000D02*
X62360000Y-54340000D01*
X53487500Y-58400000D02*
X58300000Y-58400000D01*
X58400000Y-58400000D02*
X62360000Y-54440000D01*
X50287500Y-62400000D02*
X50287500Y-69162500D01*
X62360000Y-54340000D02*
X60240000Y-54340000D01*
X50287500Y-61600000D02*
X53487500Y-58400000D01*
X57810000Y-51910000D02*
X57810000Y-51870000D01*
X50287500Y-69162500D02*
X50050000Y-69400000D01*
D24*
%TO.N,Net-(C4-Pad1)*%
X60600000Y-71900000D02*
X60600000Y-68462500D01*
X63662500Y-64462500D02*
X63662500Y-65400000D01*
X60600000Y-68462500D02*
X63662500Y-65400000D01*
X60375000Y-62835000D02*
X62035000Y-62835000D01*
X62035000Y-62835000D02*
X63662500Y-64462500D01*
D22*
%TO.N,TX*%
X54000000Y-64100000D02*
X55420000Y-64100000D01*
X48100000Y-48700000D02*
X48100000Y-52700000D01*
X48600000Y-39500000D02*
X48600000Y-48200000D01*
X55420000Y-64100000D02*
X55425000Y-64105000D01*
X48600000Y-48200000D02*
X48100000Y-48700000D01*
X49100000Y-57300000D02*
X49200000Y-57300000D01*
X48100000Y-56300000D02*
X49100000Y-57300000D01*
X48100000Y-52700000D02*
X48100000Y-56300000D01*
%TO.N,SLP*%
X55390000Y-61600000D02*
X55425000Y-61565000D01*
X53900000Y-61600000D02*
X55390000Y-61600000D01*
X50100000Y-46800000D02*
X55000000Y-46800000D01*
X54000000Y-57000000D02*
X54000000Y-50600000D01*
X55000000Y-46800000D02*
X55270000Y-47070000D01*
%TO.N,RX*%
X57500000Y-59650000D02*
X56855000Y-60295000D01*
X56855000Y-60295000D02*
X55425000Y-60295000D01*
X56600000Y-56100000D02*
X57500000Y-57000000D01*
X56600000Y-50540000D02*
X56600000Y-56100000D01*
%TD*%
%TA.AperFunction,Conductor*%
%TO.N,GND*%
G36*
X67970018Y-28510000D02*
G01*
X67984852Y-28512310D01*
X67984855Y-28512310D01*
X67993724Y-28513691D01*
X68002626Y-28512527D01*
X68002750Y-28512511D01*
X68033192Y-28512240D01*
X68040621Y-28513077D01*
X68095264Y-28519234D01*
X68122771Y-28525513D01*
X68199853Y-28552485D01*
X68225274Y-28564727D01*
X68294426Y-28608178D01*
X68316485Y-28625770D01*
X68374230Y-28683515D01*
X68391822Y-28705574D01*
X68435273Y-28774726D01*
X68447515Y-28800147D01*
X68474487Y-28877228D01*
X68480766Y-28904736D01*
X68487018Y-28960226D01*
X68486923Y-28975868D01*
X68487800Y-28975879D01*
X68487690Y-28984851D01*
X68486309Y-28993724D01*
X68487473Y-29002626D01*
X68487473Y-29002628D01*
X68490436Y-29025283D01*
X68491500Y-29041621D01*
X68491500Y-76950633D01*
X68490000Y-76970018D01*
X68486309Y-76993724D01*
X68487473Y-77002626D01*
X68487489Y-77002750D01*
X68487760Y-77033192D01*
X68485430Y-77053870D01*
X68480766Y-77095264D01*
X68474487Y-77122771D01*
X68447515Y-77199853D01*
X68435273Y-77225274D01*
X68391822Y-77294426D01*
X68374230Y-77316485D01*
X68316485Y-77374230D01*
X68294426Y-77391822D01*
X68225274Y-77435273D01*
X68199853Y-77447515D01*
X68122772Y-77474487D01*
X68095264Y-77480766D01*
X68039774Y-77487018D01*
X68024132Y-77486923D01*
X68024121Y-77487800D01*
X68015149Y-77487690D01*
X68006276Y-77486309D01*
X67997374Y-77487473D01*
X67997372Y-77487473D01*
X67986385Y-77488910D01*
X67974714Y-77490436D01*
X67958379Y-77491500D01*
X40049367Y-77491500D01*
X40029982Y-77490000D01*
X40015148Y-77487690D01*
X40015145Y-77487690D01*
X40006276Y-77486309D01*
X39997374Y-77487473D01*
X39997250Y-77487489D01*
X39966808Y-77487760D01*
X39946130Y-77485430D01*
X39904736Y-77480766D01*
X39877229Y-77474487D01*
X39800147Y-77447515D01*
X39774726Y-77435273D01*
X39705574Y-77391822D01*
X39683515Y-77374230D01*
X39625770Y-77316485D01*
X39608178Y-77294426D01*
X39564727Y-77225274D01*
X39552485Y-77199853D01*
X39525513Y-77122772D01*
X39519234Y-77095266D01*
X39513170Y-77041451D01*
X39512888Y-77016640D01*
X39513576Y-77012552D01*
X39513729Y-77000000D01*
X39509773Y-76972376D01*
X39508500Y-76954514D01*
X39508500Y-75989455D01*
X40244825Y-75989455D01*
X40245512Y-75996462D01*
X40245512Y-75996465D01*
X40248311Y-76025010D01*
X40261255Y-76157025D01*
X40314402Y-76316791D01*
X40318049Y-76322813D01*
X40318050Y-76322815D01*
X40355742Y-76385051D01*
X40401624Y-76460812D01*
X40406513Y-76465875D01*
X40406514Y-76465876D01*
X40477825Y-76539720D01*
X40518586Y-76581929D01*
X40524483Y-76585788D01*
X40653577Y-76670266D01*
X40653581Y-76670268D01*
X40659475Y-76674125D01*
X40817289Y-76732815D01*
X40824270Y-76733746D01*
X40824272Y-76733747D01*
X40869812Y-76739823D01*
X40984183Y-76755083D01*
X40991194Y-76754445D01*
X40991198Y-76754445D01*
X41144843Y-76740462D01*
X41151864Y-76739823D01*
X41158566Y-76737645D01*
X41158568Y-76737645D01*
X41305298Y-76689970D01*
X41305301Y-76689969D01*
X41311997Y-76687793D01*
X41456623Y-76601578D01*
X41461717Y-76596727D01*
X41461721Y-76596724D01*
X41573454Y-76490322D01*
X41573455Y-76490320D01*
X41578554Y-76485465D01*
X41594934Y-76460812D01*
X41647679Y-76381424D01*
X41671731Y-76345223D01*
X41731521Y-76187823D01*
X41754955Y-76021088D01*
X41755249Y-76000000D01*
X41736481Y-75832676D01*
X41681108Y-75673668D01*
X41591884Y-75530879D01*
X41583235Y-75522169D01*
X41478205Y-75416403D01*
X41478201Y-75416400D01*
X41473242Y-75411406D01*
X41331079Y-75321187D01*
X41172462Y-75264706D01*
X41165474Y-75263873D01*
X41165471Y-75263872D01*
X41057626Y-75251012D01*
X41005273Y-75244769D01*
X40998270Y-75245505D01*
X40998269Y-75245505D01*
X40952712Y-75250293D01*
X40837821Y-75262369D01*
X40831155Y-75264638D01*
X40831152Y-75264639D01*
X40685098Y-75314360D01*
X40685095Y-75314361D01*
X40678431Y-75316630D01*
X40672436Y-75320318D01*
X40672432Y-75320320D01*
X40541021Y-75401165D01*
X40541019Y-75401167D01*
X40535022Y-75404856D01*
X40517803Y-75421718D01*
X40454368Y-75483839D01*
X40414724Y-75522661D01*
X40323515Y-75664190D01*
X40321105Y-75670810D01*
X40321104Y-75670813D01*
X40294721Y-75743300D01*
X40265927Y-75822409D01*
X40244825Y-75989455D01*
X39508500Y-75989455D01*
X39508500Y-74798134D01*
X48541500Y-74798134D01*
X48548255Y-74860316D01*
X48599385Y-74996705D01*
X48686739Y-75113261D01*
X48803295Y-75200615D01*
X48939684Y-75251745D01*
X49001866Y-75258500D01*
X51098134Y-75258500D01*
X51160316Y-75251745D01*
X51296705Y-75200615D01*
X51413261Y-75113261D01*
X51500615Y-74996705D01*
X51503769Y-74988293D01*
X51512401Y-74965269D01*
X51555043Y-74908505D01*
X51621605Y-74883806D01*
X51630382Y-74883500D01*
X52089612Y-74883500D01*
X52157733Y-74903502D01*
X52204226Y-74957158D01*
X52215439Y-75002906D01*
X52216327Y-75019851D01*
X52216500Y-75026445D01*
X52216500Y-75046306D01*
X52216844Y-75049577D01*
X52218576Y-75066059D01*
X52219093Y-75072628D01*
X52222570Y-75138971D01*
X52226042Y-75151929D01*
X52229645Y-75171372D01*
X52231046Y-75184702D01*
X52251578Y-75247894D01*
X52253444Y-75254196D01*
X52267773Y-75307672D01*
X52270638Y-75318363D01*
X52273634Y-75324242D01*
X52273637Y-75324251D01*
X52276728Y-75330317D01*
X52284292Y-75348579D01*
X52286392Y-75355043D01*
X52286395Y-75355051D01*
X52288436Y-75361331D01*
X52291738Y-75367050D01*
X52291740Y-75367055D01*
X52321654Y-75418867D01*
X52324787Y-75424637D01*
X52354953Y-75483839D01*
X52359106Y-75488967D01*
X52359109Y-75488971D01*
X52363391Y-75494259D01*
X52374589Y-75510552D01*
X52381296Y-75522169D01*
X52385713Y-75527075D01*
X52385717Y-75527080D01*
X52425747Y-75571538D01*
X52430031Y-75576554D01*
X52440441Y-75589409D01*
X52442528Y-75591986D01*
X52456573Y-75606031D01*
X52461105Y-75610806D01*
X52505566Y-75660185D01*
X52510905Y-75664064D01*
X52510906Y-75664065D01*
X52516420Y-75668071D01*
X52531453Y-75680911D01*
X52919088Y-76068545D01*
X52931929Y-76083580D01*
X52939815Y-76094434D01*
X52944724Y-76098854D01*
X52944726Y-76098856D01*
X52989194Y-76138895D01*
X52993970Y-76143427D01*
X53008015Y-76157472D01*
X53010575Y-76159545D01*
X53010576Y-76159546D01*
X53023443Y-76169966D01*
X53028453Y-76174246D01*
X53072921Y-76214284D01*
X53072926Y-76214288D01*
X53077831Y-76218704D01*
X53083543Y-76222002D01*
X53083546Y-76222004D01*
X53089446Y-76225410D01*
X53105741Y-76236609D01*
X53116161Y-76245047D01*
X53175363Y-76275213D01*
X53181133Y-76278346D01*
X53232945Y-76308260D01*
X53232950Y-76308262D01*
X53238669Y-76311564D01*
X53244949Y-76313605D01*
X53244957Y-76313608D01*
X53251421Y-76315708D01*
X53269683Y-76323272D01*
X53275749Y-76326363D01*
X53275758Y-76326366D01*
X53281637Y-76329362D01*
X53288015Y-76331071D01*
X53345804Y-76346556D01*
X53352106Y-76348422D01*
X53415298Y-76368954D01*
X53428205Y-76370311D01*
X53428628Y-76370355D01*
X53448071Y-76373958D01*
X53461029Y-76377430D01*
X53467619Y-76377775D01*
X53467623Y-76377776D01*
X53511573Y-76380079D01*
X53527372Y-76380907D01*
X53533931Y-76381423D01*
X53553694Y-76383500D01*
X53573555Y-76383500D01*
X53580150Y-76383673D01*
X53639902Y-76386805D01*
X53639906Y-76386805D01*
X53646493Y-76387150D01*
X53659747Y-76385051D01*
X53679456Y-76383500D01*
X63520543Y-76383500D01*
X63540255Y-76385051D01*
X63553507Y-76387150D01*
X63560094Y-76386805D01*
X63560098Y-76386805D01*
X63619850Y-76383673D01*
X63626445Y-76383500D01*
X63646306Y-76383500D01*
X63666069Y-76381423D01*
X63672628Y-76380907D01*
X63688427Y-76380079D01*
X63732377Y-76377776D01*
X63732381Y-76377775D01*
X63738971Y-76377430D01*
X63751929Y-76373958D01*
X63771372Y-76370355D01*
X63771795Y-76370311D01*
X63784702Y-76368954D01*
X63847894Y-76348422D01*
X63854196Y-76346556D01*
X63911985Y-76331071D01*
X63918363Y-76329362D01*
X63924242Y-76326366D01*
X63924251Y-76326363D01*
X63930317Y-76323272D01*
X63948579Y-76315708D01*
X63955043Y-76313608D01*
X63955051Y-76313605D01*
X63961331Y-76311564D01*
X63967050Y-76308262D01*
X63967055Y-76308260D01*
X64018867Y-76278346D01*
X64024637Y-76275213D01*
X64083839Y-76245047D01*
X64094259Y-76236609D01*
X64110552Y-76225411D01*
X64110903Y-76225209D01*
X64122169Y-76218704D01*
X64127075Y-76214287D01*
X64127080Y-76214283D01*
X64171538Y-76174253D01*
X64176554Y-76169969D01*
X64189409Y-76159559D01*
X64189412Y-76159556D01*
X64191986Y-76157472D01*
X64206031Y-76143427D01*
X64210816Y-76138886D01*
X64255276Y-76098854D01*
X64260185Y-76094434D01*
X64268071Y-76083580D01*
X64280911Y-76068547D01*
X64668545Y-75680912D01*
X64683581Y-75668070D01*
X64684100Y-75667693D01*
X64694434Y-75660185D01*
X64738895Y-75610806D01*
X64743436Y-75606021D01*
X64757472Y-75591985D01*
X64769966Y-75576557D01*
X64774246Y-75571547D01*
X64814284Y-75527079D01*
X64814288Y-75527074D01*
X64818704Y-75522169D01*
X64825411Y-75510552D01*
X64836610Y-75494258D01*
X64840894Y-75488967D01*
X64845047Y-75483839D01*
X64875213Y-75424637D01*
X64878346Y-75418867D01*
X64908260Y-75367055D01*
X64908262Y-75367050D01*
X64911564Y-75361331D01*
X64913605Y-75355051D01*
X64913608Y-75355043D01*
X64915708Y-75348579D01*
X64923272Y-75330317D01*
X64926363Y-75324251D01*
X64926366Y-75324242D01*
X64929362Y-75318363D01*
X64932227Y-75307672D01*
X64946556Y-75254196D01*
X64948422Y-75247894D01*
X64968954Y-75184702D01*
X64970355Y-75171372D01*
X64973958Y-75151929D01*
X64977430Y-75138971D01*
X64980907Y-75072628D01*
X64981424Y-75066059D01*
X64983156Y-75049577D01*
X64983500Y-75046306D01*
X64983500Y-75026445D01*
X64983673Y-75019850D01*
X64986805Y-74960098D01*
X64986805Y-74960094D01*
X64987150Y-74953507D01*
X64985051Y-74940253D01*
X64983500Y-74920544D01*
X64983500Y-73157020D01*
X65003502Y-73088899D01*
X65036331Y-73054442D01*
X65056612Y-73039976D01*
X65056619Y-73039970D01*
X65060818Y-73036975D01*
X65233614Y-72864781D01*
X65375966Y-72666677D01*
X65378387Y-72661780D01*
X65481756Y-72452626D01*
X65481757Y-72452624D01*
X65484050Y-72447984D01*
X65539786Y-72264539D01*
X65553462Y-72219527D01*
X65553463Y-72219521D01*
X65554966Y-72214575D01*
X65571886Y-72086054D01*
X65586370Y-71976038D01*
X65586370Y-71976034D01*
X65586807Y-71972717D01*
X65587224Y-71955671D01*
X65588502Y-71903365D01*
X65588502Y-71903361D01*
X65588584Y-71900000D01*
X65568596Y-71656876D01*
X65509167Y-71420280D01*
X65437277Y-71254944D01*
X65413954Y-71201305D01*
X65413952Y-71201302D01*
X65411894Y-71196568D01*
X65318888Y-71052802D01*
X65282200Y-70996091D01*
X65282198Y-70996088D01*
X65279390Y-70991748D01*
X65200757Y-70905331D01*
X65118690Y-70815141D01*
X65118688Y-70815140D01*
X65115212Y-70811319D01*
X65111161Y-70808120D01*
X65111157Y-70808116D01*
X65069147Y-70774939D01*
X65031407Y-70745134D01*
X64990345Y-70687218D01*
X64983500Y-70646253D01*
X64983500Y-69940790D01*
X64989667Y-69901854D01*
X64991502Y-69896206D01*
X64993542Y-69889928D01*
X65008406Y-69748510D01*
X65012814Y-69706565D01*
X65013504Y-69700000D01*
X64993542Y-69510072D01*
X64934527Y-69328444D01*
X64916890Y-69297895D01*
X64842341Y-69168774D01*
X64839040Y-69163056D01*
X64711253Y-69021134D01*
X64556752Y-68908882D01*
X64550724Y-68906198D01*
X64550722Y-68906197D01*
X64388319Y-68833891D01*
X64388318Y-68833891D01*
X64382288Y-68831206D01*
X64288888Y-68811353D01*
X64201944Y-68792872D01*
X64201939Y-68792872D01*
X64195487Y-68791500D01*
X64004513Y-68791500D01*
X63998061Y-68792872D01*
X63998056Y-68792872D01*
X63911112Y-68811353D01*
X63817712Y-68831206D01*
X63811682Y-68833891D01*
X63811681Y-68833891D01*
X63649278Y-68906197D01*
X63649276Y-68906198D01*
X63643248Y-68908882D01*
X63488747Y-69021134D01*
X63360960Y-69163056D01*
X63357659Y-69168774D01*
X63283111Y-69297895D01*
X63265473Y-69328444D01*
X63206458Y-69510072D01*
X63186496Y-69700000D01*
X63187186Y-69706565D01*
X63191595Y-69748510D01*
X63206458Y-69889928D01*
X63208498Y-69896206D01*
X63210333Y-69901854D01*
X63216500Y-69940790D01*
X63216500Y-70645188D01*
X63196498Y-70713309D01*
X63166154Y-70745947D01*
X63111690Y-70786840D01*
X62943153Y-70963204D01*
X62940239Y-70967476D01*
X62940238Y-70967477D01*
X62920719Y-70996091D01*
X62805684Y-71164726D01*
X62788705Y-71201305D01*
X62721806Y-71345426D01*
X62702974Y-71385995D01*
X62637783Y-71621067D01*
X62611860Y-71863631D01*
X62612157Y-71868783D01*
X62612157Y-71868787D01*
X62618772Y-71983500D01*
X62625903Y-72107171D01*
X62627040Y-72112217D01*
X62627041Y-72112223D01*
X62650107Y-72214575D01*
X62679533Y-72345147D01*
X62681475Y-72349929D01*
X62681476Y-72349933D01*
X62763670Y-72552351D01*
X62771311Y-72571169D01*
X62898772Y-72779166D01*
X63058492Y-72963553D01*
X63062467Y-72966853D01*
X63062470Y-72966856D01*
X63170985Y-73056947D01*
X63210620Y-73115850D01*
X63216500Y-73153891D01*
X63216500Y-74490500D01*
X63196498Y-74558621D01*
X63142842Y-74605114D01*
X63090500Y-74616500D01*
X54180618Y-74616500D01*
X54112497Y-74596498D01*
X54066004Y-74542842D01*
X54055900Y-74472568D01*
X54061023Y-74450839D01*
X54072974Y-74414809D01*
X54083500Y-74312072D01*
X54083500Y-73612928D01*
X54072707Y-73508907D01*
X54017654Y-73343893D01*
X53926116Y-73195969D01*
X53918861Y-73188726D01*
X53917895Y-73186962D01*
X53916387Y-73185059D01*
X53916713Y-73184801D01*
X53884781Y-73126446D01*
X53885475Y-73116624D01*
X56248621Y-73116624D01*
X56252988Y-73122774D01*
X56452563Y-73239397D01*
X56461846Y-73243844D01*
X56680007Y-73327152D01*
X56689905Y-73330028D01*
X56918744Y-73376585D01*
X56928972Y-73377804D01*
X57162340Y-73386362D01*
X57172626Y-73385895D01*
X57404262Y-73356222D01*
X57414340Y-73354080D01*
X57638014Y-73286974D01*
X57647612Y-73283212D01*
X57857324Y-73180476D01*
X57866169Y-73175203D01*
X57938869Y-73123347D01*
X57947270Y-73112646D01*
X57940283Y-73099493D01*
X57112812Y-72272022D01*
X57098868Y-72264408D01*
X57097035Y-72264539D01*
X57090420Y-72268790D01*
X56255881Y-73103329D01*
X56248621Y-73116624D01*
X53885475Y-73116624D01*
X53889782Y-73055625D01*
X53918708Y-73010530D01*
X53921364Y-73007869D01*
X53930375Y-72996460D01*
X54013912Y-72860937D01*
X54020056Y-72847759D01*
X54070315Y-72696234D01*
X54073181Y-72682868D01*
X54082672Y-72590230D01*
X54083000Y-72583815D01*
X54083000Y-72509615D01*
X54078525Y-72494376D01*
X54077135Y-72493171D01*
X54069452Y-72491500D01*
X52135115Y-72491500D01*
X52119876Y-72495975D01*
X52118671Y-72497365D01*
X52117000Y-72505048D01*
X52117000Y-72583766D01*
X52117337Y-72590282D01*
X52127075Y-72684132D01*
X52129968Y-72697528D01*
X52180488Y-72848953D01*
X52186653Y-72862115D01*
X52225071Y-72924198D01*
X52243908Y-72992650D01*
X52222746Y-73060419D01*
X52168305Y-73105990D01*
X52117926Y-73116500D01*
X51630382Y-73116500D01*
X51562261Y-73096498D01*
X51515768Y-73042842D01*
X51512401Y-73034731D01*
X51503769Y-73011707D01*
X51503767Y-73011703D01*
X51500615Y-73003295D01*
X51442047Y-72925148D01*
X51417199Y-72858642D01*
X51432252Y-72789259D01*
X51442047Y-72774018D01*
X51494786Y-72703648D01*
X51503324Y-72688054D01*
X51548478Y-72567606D01*
X51552105Y-72552351D01*
X51557631Y-72501486D01*
X51558000Y-72494672D01*
X51558000Y-71972115D01*
X51556024Y-71965385D01*
X52117000Y-71965385D01*
X52121475Y-71980624D01*
X52122865Y-71981829D01*
X52130548Y-71983500D01*
X52827885Y-71983500D01*
X52843124Y-71979025D01*
X52844329Y-71977635D01*
X52846000Y-71969952D01*
X52846000Y-71965385D01*
X53354000Y-71965385D01*
X53358475Y-71980624D01*
X53359865Y-71981829D01*
X53367548Y-71983500D01*
X54064885Y-71983500D01*
X54080124Y-71979025D01*
X54081329Y-71977635D01*
X54083000Y-71969952D01*
X54083000Y-71891234D01*
X54082663Y-71884718D01*
X54081011Y-71868799D01*
X55612658Y-71868799D01*
X55626102Y-72101942D01*
X55627535Y-72112144D01*
X55678873Y-72339949D01*
X55681956Y-72349789D01*
X55769814Y-72566156D01*
X55774457Y-72575347D01*
X55875555Y-72740325D01*
X55886011Y-72749785D01*
X55894789Y-72746001D01*
X56727978Y-71912812D01*
X56734356Y-71901132D01*
X57464408Y-71901132D01*
X57464539Y-71902965D01*
X57468790Y-71909580D01*
X58300045Y-72740835D01*
X58312055Y-72747394D01*
X58323794Y-72738426D01*
X58372518Y-72670619D01*
X58377829Y-72661780D01*
X58481291Y-72452442D01*
X58485089Y-72442849D01*
X58552974Y-72219413D01*
X58555151Y-72209343D01*
X58585869Y-71976015D01*
X58586388Y-71969340D01*
X58588001Y-71903364D01*
X58587807Y-71896647D01*
X58568525Y-71662108D01*
X58566842Y-71651946D01*
X58509952Y-71425453D01*
X58506634Y-71415706D01*
X58413513Y-71201542D01*
X58408646Y-71192467D01*
X58323465Y-71060796D01*
X58312779Y-71051593D01*
X58303214Y-71055996D01*
X57472022Y-71887188D01*
X57464408Y-71901132D01*
X56734356Y-71901132D01*
X56735592Y-71898868D01*
X56735461Y-71897035D01*
X56731210Y-71890420D01*
X55899892Y-71059102D01*
X55888356Y-71052802D01*
X55876073Y-71062426D01*
X55809036Y-71160698D01*
X55803943Y-71169662D01*
X55705619Y-71381483D01*
X55702062Y-71391151D01*
X55639657Y-71616178D01*
X55637726Y-71626298D01*
X55612910Y-71858510D01*
X55612658Y-71868799D01*
X54081011Y-71868799D01*
X54072925Y-71790868D01*
X54070032Y-71777472D01*
X54019512Y-71626047D01*
X54013347Y-71612885D01*
X53929574Y-71477508D01*
X53920540Y-71466110D01*
X53807871Y-71353637D01*
X53796460Y-71344625D01*
X53660937Y-71261088D01*
X53647759Y-71254944D01*
X53496234Y-71204685D01*
X53482868Y-71201819D01*
X53390230Y-71192328D01*
X53383815Y-71192000D01*
X53372115Y-71192000D01*
X53356876Y-71196475D01*
X53355671Y-71197865D01*
X53354000Y-71205548D01*
X53354000Y-71965385D01*
X52846000Y-71965385D01*
X52846000Y-71210115D01*
X52841525Y-71194876D01*
X52840135Y-71193671D01*
X52832452Y-71192000D01*
X52816234Y-71192000D01*
X52809718Y-71192337D01*
X52715868Y-71202075D01*
X52702472Y-71204968D01*
X52551047Y-71255488D01*
X52537885Y-71261653D01*
X52402508Y-71345426D01*
X52391110Y-71354460D01*
X52278637Y-71467129D01*
X52269625Y-71478540D01*
X52186088Y-71614063D01*
X52179944Y-71627241D01*
X52129685Y-71778766D01*
X52126819Y-71792132D01*
X52117328Y-71884770D01*
X52117000Y-71891185D01*
X52117000Y-71965385D01*
X51556024Y-71965385D01*
X51553525Y-71956876D01*
X51552135Y-71955671D01*
X51544452Y-71954000D01*
X48560116Y-71954000D01*
X48544877Y-71958475D01*
X48543672Y-71959865D01*
X48542001Y-71967548D01*
X48542001Y-72494669D01*
X48542371Y-72501490D01*
X48547895Y-72552352D01*
X48551521Y-72567604D01*
X48596676Y-72688054D01*
X48605214Y-72703648D01*
X48657953Y-72774018D01*
X48682801Y-72840524D01*
X48667748Y-72909907D01*
X48657953Y-72925148D01*
X48599385Y-73003295D01*
X48548255Y-73139684D01*
X48541500Y-73201866D01*
X48541500Y-74798134D01*
X39508500Y-74798134D01*
X39508500Y-73644669D01*
X42242001Y-73644669D01*
X42242371Y-73651490D01*
X42247895Y-73702352D01*
X42251521Y-73717604D01*
X42296676Y-73838054D01*
X42305214Y-73853649D01*
X42381715Y-73955724D01*
X42394276Y-73968285D01*
X42496351Y-74044786D01*
X42511946Y-74053324D01*
X42632394Y-74098478D01*
X42647649Y-74102105D01*
X42698514Y-74107631D01*
X42705328Y-74108000D01*
X43477885Y-74108000D01*
X43493124Y-74103525D01*
X43494329Y-74102135D01*
X43496000Y-74094452D01*
X43496000Y-74089884D01*
X44004000Y-74089884D01*
X44008475Y-74105123D01*
X44009865Y-74106328D01*
X44017548Y-74107999D01*
X44794669Y-74107999D01*
X44801490Y-74107629D01*
X44852352Y-74102105D01*
X44867604Y-74098479D01*
X44988054Y-74053324D01*
X45003649Y-74044786D01*
X45105724Y-73968285D01*
X45118285Y-73955724D01*
X45194786Y-73853649D01*
X45203324Y-73838054D01*
X45248478Y-73717606D01*
X45252105Y-73702351D01*
X45257631Y-73651486D01*
X45258000Y-73644672D01*
X45258000Y-71972115D01*
X45253525Y-71956876D01*
X45252135Y-71955671D01*
X45244452Y-71954000D01*
X44022115Y-71954000D01*
X44006876Y-71958475D01*
X44005671Y-71959865D01*
X44004000Y-71967548D01*
X44004000Y-74089884D01*
X43496000Y-74089884D01*
X43496000Y-71972115D01*
X43491525Y-71956876D01*
X43490135Y-71955671D01*
X43482452Y-71954000D01*
X42260116Y-71954000D01*
X42244877Y-71958475D01*
X42243672Y-71959865D01*
X42242001Y-71967548D01*
X42242001Y-73644669D01*
X39508500Y-73644669D01*
X39508500Y-71427885D01*
X42242000Y-71427885D01*
X42246475Y-71443124D01*
X42247865Y-71444329D01*
X42255548Y-71446000D01*
X43477885Y-71446000D01*
X43493124Y-71441525D01*
X43494329Y-71440135D01*
X43496000Y-71432452D01*
X43496000Y-71427885D01*
X44004000Y-71427885D01*
X44008475Y-71443124D01*
X44009865Y-71444329D01*
X44017548Y-71446000D01*
X45239884Y-71446000D01*
X45255123Y-71441525D01*
X45256328Y-71440135D01*
X45257999Y-71432452D01*
X45257999Y-69755331D01*
X45257629Y-69748510D01*
X45252105Y-69697648D01*
X45248479Y-69682396D01*
X45203324Y-69561946D01*
X45194786Y-69546351D01*
X45118285Y-69444276D01*
X45105724Y-69431715D01*
X45003649Y-69355214D01*
X44988054Y-69346676D01*
X44867606Y-69301522D01*
X44852351Y-69297895D01*
X44801486Y-69292369D01*
X44794672Y-69292000D01*
X44022115Y-69292000D01*
X44006876Y-69296475D01*
X44005671Y-69297865D01*
X44004000Y-69305548D01*
X44004000Y-71427885D01*
X43496000Y-71427885D01*
X43496000Y-69310116D01*
X43491525Y-69294877D01*
X43490135Y-69293672D01*
X43482452Y-69292001D01*
X42705331Y-69292001D01*
X42698510Y-69292371D01*
X42647648Y-69297895D01*
X42632396Y-69301521D01*
X42511946Y-69346676D01*
X42496351Y-69355214D01*
X42394276Y-69431715D01*
X42381715Y-69444276D01*
X42305214Y-69546351D01*
X42296676Y-69561946D01*
X42251522Y-69682394D01*
X42247895Y-69697649D01*
X42242369Y-69748514D01*
X42242000Y-69755328D01*
X42242000Y-71427885D01*
X39508500Y-71427885D01*
X39508500Y-63847096D01*
X42317000Y-63847096D01*
X42317337Y-63853611D01*
X42327256Y-63949203D01*
X42330150Y-63962602D01*
X42381588Y-64116783D01*
X42387762Y-64129962D01*
X42473063Y-64267807D01*
X42482099Y-64279208D01*
X42596830Y-64393739D01*
X42608241Y-64402751D01*
X42746245Y-64487818D01*
X42759423Y-64493962D01*
X42913716Y-64545139D01*
X42927081Y-64548005D01*
X43021439Y-64557672D01*
X43027855Y-64558000D01*
X43640385Y-64558000D01*
X43655624Y-64553525D01*
X43656829Y-64552135D01*
X43658500Y-64544452D01*
X43658500Y-64539885D01*
X44166500Y-64539885D01*
X44170975Y-64555124D01*
X44172365Y-64556329D01*
X44180048Y-64558000D01*
X44797096Y-64558000D01*
X44803611Y-64557663D01*
X44899203Y-64547744D01*
X44912602Y-64544850D01*
X45066783Y-64493412D01*
X45079962Y-64487238D01*
X45217807Y-64401937D01*
X45229208Y-64392901D01*
X45343739Y-64278170D01*
X45352751Y-64266759D01*
X45437818Y-64128755D01*
X45443962Y-64115577D01*
X45495139Y-63961284D01*
X45498005Y-63947919D01*
X45507672Y-63853561D01*
X45508000Y-63847145D01*
X45508000Y-62672115D01*
X45503525Y-62656876D01*
X45502135Y-62655671D01*
X45494452Y-62654000D01*
X44184615Y-62654000D01*
X44169376Y-62658475D01*
X44168171Y-62659865D01*
X44166500Y-62667548D01*
X44166500Y-64539885D01*
X43658500Y-64539885D01*
X43658500Y-62672115D01*
X43654025Y-62656876D01*
X43652635Y-62655671D01*
X43644952Y-62654000D01*
X42335115Y-62654000D01*
X42319876Y-62658475D01*
X42318671Y-62659865D01*
X42317000Y-62667548D01*
X42317000Y-63847096D01*
X39508500Y-63847096D01*
X39508500Y-62127885D01*
X42317000Y-62127885D01*
X42321475Y-62143124D01*
X42322865Y-62144329D01*
X42330548Y-62146000D01*
X43640385Y-62146000D01*
X43655624Y-62141525D01*
X43656829Y-62140135D01*
X43658500Y-62132452D01*
X43658500Y-62127885D01*
X44166500Y-62127885D01*
X44170975Y-62143124D01*
X44172365Y-62144329D01*
X44180048Y-62146000D01*
X45489885Y-62146000D01*
X45505124Y-62141525D01*
X45506329Y-62140135D01*
X45508000Y-62132452D01*
X45508000Y-60952904D01*
X45507663Y-60946389D01*
X45497744Y-60850797D01*
X45494850Y-60837398D01*
X45443412Y-60683217D01*
X45437238Y-60670038D01*
X45351937Y-60532193D01*
X45342901Y-60520792D01*
X45228170Y-60406261D01*
X45216759Y-60397249D01*
X45078755Y-60312182D01*
X45065577Y-60306038D01*
X44911284Y-60254861D01*
X44897919Y-60251995D01*
X44803561Y-60242328D01*
X44797144Y-60242000D01*
X44184615Y-60242000D01*
X44169376Y-60246475D01*
X44168171Y-60247865D01*
X44166500Y-60255548D01*
X44166500Y-62127885D01*
X43658500Y-62127885D01*
X43658500Y-60260115D01*
X43654025Y-60244876D01*
X43652635Y-60243671D01*
X43644952Y-60242000D01*
X43027904Y-60242000D01*
X43021389Y-60242337D01*
X42925797Y-60252256D01*
X42912398Y-60255150D01*
X42758217Y-60306588D01*
X42745038Y-60312762D01*
X42607193Y-60398063D01*
X42595792Y-60407099D01*
X42481261Y-60521830D01*
X42472249Y-60533241D01*
X42387182Y-60671245D01*
X42381038Y-60684423D01*
X42329861Y-60838716D01*
X42326995Y-60852081D01*
X42317328Y-60946439D01*
X42317000Y-60952856D01*
X42317000Y-62127885D01*
X39508500Y-62127885D01*
X39508500Y-57054568D01*
X42937382Y-57054568D01*
X42937963Y-57059588D01*
X42937963Y-57059592D01*
X42948787Y-57153133D01*
X42966208Y-57303699D01*
X42967587Y-57308573D01*
X42967588Y-57308577D01*
X43033116Y-57540148D01*
X43034494Y-57545017D01*
X43036628Y-57549592D01*
X43036630Y-57549599D01*
X43138347Y-57767731D01*
X43140484Y-57772313D01*
X43143326Y-57776494D01*
X43143326Y-57776495D01*
X43278605Y-57975552D01*
X43278608Y-57975556D01*
X43281451Y-57979739D01*
X43284928Y-57983416D01*
X43284929Y-57983417D01*
X43383106Y-58087237D01*
X43453767Y-58161959D01*
X43457793Y-58165037D01*
X43457794Y-58165038D01*
X43648981Y-58311212D01*
X43648985Y-58311215D01*
X43653001Y-58314285D01*
X43874026Y-58432797D01*
X43878807Y-58434443D01*
X43878811Y-58434445D01*
X44104538Y-58512169D01*
X44111156Y-58514448D01*
X44214689Y-58532331D01*
X44354380Y-58556460D01*
X44354386Y-58556461D01*
X44358290Y-58557135D01*
X44362251Y-58557315D01*
X44362252Y-58557315D01*
X44386931Y-58558436D01*
X44386950Y-58558436D01*
X44388350Y-58558500D01*
X44563015Y-58558500D01*
X44565523Y-58558298D01*
X44565528Y-58558298D01*
X44744944Y-58543863D01*
X44744949Y-58543862D01*
X44749985Y-58543457D01*
X44754893Y-58542252D01*
X44754896Y-58542251D01*
X44988625Y-58484841D01*
X44993539Y-58483634D01*
X44998191Y-58481659D01*
X44998195Y-58481658D01*
X45219741Y-58387617D01*
X45219742Y-58387617D01*
X45224396Y-58385641D01*
X45436615Y-58252000D01*
X45624738Y-58086147D01*
X45783924Y-57892351D01*
X45910078Y-57675596D01*
X45914042Y-57665271D01*
X45998143Y-57446181D01*
X45999955Y-57441461D01*
X46001002Y-57436453D01*
X46050206Y-57200921D01*
X46051241Y-57195967D01*
X46051516Y-57189928D01*
X46057662Y-57054568D01*
X46062618Y-56945432D01*
X46060653Y-56928444D01*
X46042700Y-56773288D01*
X46033792Y-56696301D01*
X46032395Y-56691362D01*
X45966884Y-56459852D01*
X45966883Y-56459850D01*
X45965506Y-56454983D01*
X45963372Y-56450408D01*
X45963370Y-56450401D01*
X45861653Y-56232269D01*
X45861651Y-56232265D01*
X45859516Y-56227687D01*
X45844911Y-56206197D01*
X45721395Y-56024448D01*
X45721392Y-56024444D01*
X45718549Y-56020261D01*
X45685588Y-55985405D01*
X45549713Y-55841721D01*
X45546233Y-55838041D01*
X45542206Y-55834962D01*
X45351019Y-55688788D01*
X45351015Y-55688785D01*
X45346999Y-55685715D01*
X45262888Y-55640615D01*
X45130435Y-55569595D01*
X45125974Y-55567203D01*
X45121193Y-55565557D01*
X45121189Y-55565555D01*
X44893633Y-55487201D01*
X44888844Y-55485552D01*
X44785311Y-55467669D01*
X44645620Y-55443540D01*
X44645614Y-55443539D01*
X44641710Y-55442865D01*
X44637749Y-55442685D01*
X44637748Y-55442685D01*
X44613069Y-55441564D01*
X44613050Y-55441564D01*
X44611650Y-55441500D01*
X44436985Y-55441500D01*
X44434477Y-55441702D01*
X44434472Y-55441702D01*
X44255056Y-55456137D01*
X44255051Y-55456138D01*
X44250015Y-55456543D01*
X44245107Y-55457748D01*
X44245104Y-55457749D01*
X44029366Y-55510740D01*
X44006461Y-55516366D01*
X44001809Y-55518341D01*
X44001805Y-55518342D01*
X43881061Y-55569595D01*
X43775604Y-55614359D01*
X43563385Y-55748000D01*
X43375262Y-55913853D01*
X43216076Y-56107649D01*
X43089922Y-56324404D01*
X43088109Y-56329127D01*
X43088108Y-56329129D01*
X43063639Y-56392872D01*
X43000045Y-56558539D01*
X42999012Y-56563485D01*
X42999010Y-56563491D01*
X42980247Y-56653307D01*
X42948759Y-56804033D01*
X42948530Y-56809082D01*
X42948529Y-56809088D01*
X42946159Y-56861288D01*
X42937382Y-57054568D01*
X39508500Y-57054568D01*
X39508500Y-38069721D01*
X45491024Y-38069721D01*
X45493491Y-38078352D01*
X45499150Y-38098153D01*
X45502728Y-38114915D01*
X45506920Y-38144187D01*
X45510634Y-38152355D01*
X45510634Y-38152356D01*
X45517548Y-38167562D01*
X45523996Y-38185086D01*
X45531051Y-38209771D01*
X45535843Y-38217365D01*
X45535844Y-38217368D01*
X45546830Y-38234780D01*
X45554969Y-38249863D01*
X45567208Y-38276782D01*
X45573069Y-38283584D01*
X45583970Y-38296235D01*
X45595073Y-38311239D01*
X45608776Y-38332958D01*
X45615501Y-38338897D01*
X45615504Y-38338901D01*
X45630938Y-38352532D01*
X45642982Y-38364724D01*
X45656427Y-38380327D01*
X45656430Y-38380329D01*
X45662287Y-38387127D01*
X45669816Y-38392007D01*
X45669817Y-38392008D01*
X45683835Y-38401094D01*
X45698709Y-38412385D01*
X45711217Y-38423431D01*
X45717951Y-38429378D01*
X45744711Y-38441942D01*
X45759691Y-38450263D01*
X45776983Y-38461471D01*
X45776988Y-38461473D01*
X45784515Y-38466352D01*
X45793108Y-38468922D01*
X45793113Y-38468924D01*
X45809120Y-38473711D01*
X45826564Y-38480372D01*
X45841676Y-38487467D01*
X45841678Y-38487468D01*
X45849800Y-38491281D01*
X45858667Y-38492662D01*
X45858668Y-38492662D01*
X45861353Y-38493080D01*
X45879017Y-38495830D01*
X45895732Y-38499613D01*
X45915466Y-38505515D01*
X45915472Y-38505516D01*
X45924066Y-38508086D01*
X45933037Y-38508141D01*
X45933038Y-38508141D01*
X45943097Y-38508202D01*
X45958506Y-38508296D01*
X45959289Y-38508329D01*
X45960386Y-38508500D01*
X45991377Y-38508500D01*
X45992147Y-38508502D01*
X46065785Y-38508952D01*
X46065786Y-38508952D01*
X46069721Y-38508976D01*
X46071065Y-38508592D01*
X46072410Y-38508500D01*
X48031262Y-38508500D01*
X48099383Y-38528502D01*
X48145876Y-38582158D01*
X48155980Y-38652432D01*
X48126486Y-38717012D01*
X48105323Y-38736436D01*
X47988747Y-38821134D01*
X47860960Y-38963056D01*
X47765473Y-39128444D01*
X47706458Y-39310072D01*
X47686496Y-39500000D01*
X47706458Y-39689928D01*
X47765473Y-39871556D01*
X47860960Y-40036944D01*
X47934137Y-40118215D01*
X47964853Y-40182221D01*
X47966500Y-40202524D01*
X47966500Y-47885405D01*
X47946498Y-47953526D01*
X47929596Y-47974500D01*
X47799553Y-48104542D01*
X47707742Y-48196353D01*
X47699463Y-48203887D01*
X47692982Y-48208000D01*
X47672153Y-48230181D01*
X47646357Y-48257651D01*
X47643602Y-48260493D01*
X47623865Y-48280230D01*
X47621385Y-48283427D01*
X47613682Y-48292447D01*
X47583414Y-48324679D01*
X47579595Y-48331625D01*
X47579593Y-48331628D01*
X47573652Y-48342434D01*
X47562801Y-48358953D01*
X47550386Y-48374959D01*
X47547241Y-48382228D01*
X47547238Y-48382232D01*
X47532826Y-48415537D01*
X47527609Y-48426187D01*
X47506305Y-48464940D01*
X47504334Y-48472615D01*
X47504334Y-48472616D01*
X47501267Y-48484562D01*
X47494863Y-48503266D01*
X47486819Y-48521855D01*
X47485580Y-48529678D01*
X47485577Y-48529688D01*
X47479901Y-48565524D01*
X47477495Y-48577144D01*
X47466500Y-48619970D01*
X47466500Y-48640224D01*
X47464949Y-48659934D01*
X47461780Y-48679943D01*
X47462526Y-48687835D01*
X47465941Y-48723961D01*
X47466500Y-48735819D01*
X47466500Y-52440224D01*
X47464949Y-52459934D01*
X47461780Y-52479943D01*
X47462526Y-52487835D01*
X47465941Y-52523961D01*
X47466500Y-52535819D01*
X47466500Y-56221233D01*
X47465973Y-56232416D01*
X47464298Y-56239909D01*
X47464547Y-56247835D01*
X47464547Y-56247836D01*
X47466438Y-56307986D01*
X47466500Y-56311945D01*
X47466500Y-56339856D01*
X47466997Y-56343790D01*
X47466997Y-56343791D01*
X47467005Y-56343856D01*
X47467938Y-56355693D01*
X47469327Y-56399889D01*
X47474978Y-56419339D01*
X47478987Y-56438700D01*
X47481526Y-56458797D01*
X47484445Y-56466168D01*
X47484445Y-56466170D01*
X47497804Y-56499912D01*
X47501649Y-56511142D01*
X47513982Y-56553593D01*
X47518015Y-56560412D01*
X47518017Y-56560417D01*
X47524293Y-56571028D01*
X47532988Y-56588776D01*
X47540448Y-56607617D01*
X47545110Y-56614033D01*
X47545110Y-56614034D01*
X47566436Y-56643387D01*
X47572952Y-56653307D01*
X47595458Y-56691362D01*
X47609779Y-56705683D01*
X47622619Y-56720716D01*
X47634528Y-56737107D01*
X47640634Y-56742158D01*
X47668605Y-56765298D01*
X47677384Y-56773288D01*
X48264623Y-57360527D01*
X48298649Y-57422839D01*
X48300837Y-57436449D01*
X48306458Y-57489928D01*
X48365473Y-57671556D01*
X48460960Y-57836944D01*
X48465378Y-57841851D01*
X48465379Y-57841852D01*
X48514369Y-57896261D01*
X48588747Y-57978866D01*
X48743248Y-58091118D01*
X48749276Y-58093802D01*
X48749278Y-58093803D01*
X48911681Y-58166109D01*
X48917712Y-58168794D01*
X49011113Y-58188647D01*
X49098056Y-58207128D01*
X49098061Y-58207128D01*
X49104513Y-58208500D01*
X49295487Y-58208500D01*
X49301939Y-58207128D01*
X49301944Y-58207128D01*
X49388887Y-58188647D01*
X49482288Y-58168794D01*
X49488319Y-58166109D01*
X49650722Y-58093803D01*
X49650724Y-58093802D01*
X49656752Y-58091118D01*
X49811253Y-57978866D01*
X49885631Y-57896261D01*
X49934621Y-57841852D01*
X49934622Y-57841851D01*
X49939040Y-57836944D01*
X50034527Y-57671556D01*
X50093542Y-57489928D01*
X50094736Y-57478573D01*
X50112814Y-57306565D01*
X50113504Y-57300000D01*
X50093542Y-57110072D01*
X50034527Y-56928444D01*
X49939040Y-56763056D01*
X49920224Y-56742158D01*
X49815675Y-56626045D01*
X49815674Y-56626044D01*
X49811253Y-56621134D01*
X49686774Y-56530694D01*
X49662094Y-56512763D01*
X49662093Y-56512762D01*
X49656752Y-56508882D01*
X49650724Y-56506198D01*
X49650722Y-56506197D01*
X49488319Y-56433891D01*
X49488318Y-56433891D01*
X49482288Y-56431206D01*
X49388888Y-56411353D01*
X49301944Y-56392872D01*
X49301939Y-56392872D01*
X49295487Y-56391500D01*
X49139595Y-56391500D01*
X49071474Y-56371498D01*
X49050500Y-56354595D01*
X48770405Y-56074500D01*
X48736379Y-56012188D01*
X48733500Y-55985405D01*
X48733500Y-52814594D01*
X48753502Y-52746473D01*
X48770405Y-52725499D01*
X48939267Y-52556637D01*
X49001579Y-52522611D01*
X49072394Y-52527676D01*
X49131575Y-52573461D01*
X49205679Y-52679292D01*
X49213023Y-52689781D01*
X49370219Y-52846977D01*
X49374727Y-52850134D01*
X49374730Y-52850136D01*
X49425601Y-52885756D01*
X49552323Y-52974488D01*
X49557305Y-52976811D01*
X49557310Y-52976814D01*
X49732751Y-53058623D01*
X49753804Y-53068440D01*
X49759112Y-53069862D01*
X49759114Y-53069863D01*
X49785526Y-53076940D01*
X49968537Y-53125978D01*
X50190000Y-53145353D01*
X50411463Y-53125978D01*
X50594474Y-53076940D01*
X50620886Y-53069863D01*
X50620888Y-53069862D01*
X50626196Y-53068440D01*
X50647249Y-53058623D01*
X50822690Y-52976814D01*
X50822695Y-52976811D01*
X50827677Y-52974488D01*
X50954399Y-52885756D01*
X51005270Y-52850136D01*
X51005273Y-52850134D01*
X51009781Y-52846977D01*
X51166977Y-52689781D01*
X51174322Y-52679292D01*
X51291331Y-52512185D01*
X51291332Y-52512183D01*
X51294488Y-52507676D01*
X51296811Y-52502694D01*
X51296814Y-52502689D01*
X51345805Y-52397627D01*
X51392723Y-52344342D01*
X51461000Y-52324881D01*
X51528960Y-52345423D01*
X51574195Y-52397627D01*
X51623186Y-52502689D01*
X51623189Y-52502694D01*
X51625512Y-52507676D01*
X51628668Y-52512183D01*
X51628669Y-52512185D01*
X51745679Y-52679292D01*
X51753023Y-52689781D01*
X51910219Y-52846977D01*
X51914727Y-52850134D01*
X51914730Y-52850136D01*
X51965601Y-52885756D01*
X52092323Y-52974488D01*
X52097305Y-52976811D01*
X52097310Y-52976814D01*
X52272751Y-53058623D01*
X52293804Y-53068440D01*
X52299112Y-53069862D01*
X52299114Y-53069863D01*
X52325526Y-53076940D01*
X52508537Y-53125978D01*
X52730000Y-53145353D01*
X52951463Y-53125978D01*
X53134474Y-53076940D01*
X53160886Y-53069863D01*
X53160888Y-53069862D01*
X53166196Y-53068440D01*
X53171178Y-53066117D01*
X53171183Y-53066115D01*
X53187249Y-53058623D01*
X53257440Y-53047961D01*
X53322253Y-53076940D01*
X53361110Y-53136359D01*
X53366500Y-53172817D01*
X53366500Y-56297476D01*
X53346498Y-56365597D01*
X53334142Y-56381779D01*
X53260960Y-56463056D01*
X53232300Y-56512697D01*
X53173793Y-56614034D01*
X53165473Y-56628444D01*
X53106458Y-56810072D01*
X53086496Y-57000000D01*
X53106458Y-57189928D01*
X53165473Y-57371556D01*
X53168776Y-57377278D01*
X53168777Y-57377279D01*
X53187425Y-57409578D01*
X53204163Y-57478573D01*
X53180943Y-57545665D01*
X53130258Y-57587107D01*
X53126169Y-57588436D01*
X53120448Y-57591739D01*
X53068635Y-57621653D01*
X53062851Y-57624794D01*
X53003660Y-57654953D01*
X52998529Y-57659108D01*
X52993237Y-57663393D01*
X52976951Y-57674587D01*
X52965331Y-57681296D01*
X52960423Y-57685715D01*
X52960419Y-57685718D01*
X52915964Y-57725745D01*
X52910958Y-57730021D01*
X52895514Y-57742528D01*
X52881469Y-57756573D01*
X52876684Y-57761114D01*
X52827315Y-57805566D01*
X52819425Y-57816426D01*
X52806588Y-57831454D01*
X50433447Y-60204595D01*
X50371135Y-60238621D01*
X50344352Y-60241500D01*
X49399600Y-60241500D01*
X49396354Y-60241837D01*
X49396350Y-60241837D01*
X49300693Y-60251762D01*
X49300689Y-60251763D01*
X49293835Y-60252474D01*
X49287299Y-60254655D01*
X49287297Y-60254655D01*
X49270932Y-60260115D01*
X49126055Y-60308450D01*
X48975652Y-60401522D01*
X48850695Y-60526697D01*
X48846855Y-60532927D01*
X48846854Y-60532928D01*
X48763075Y-60668843D01*
X48757885Y-60677262D01*
X48745226Y-60715427D01*
X48704771Y-60837398D01*
X48702203Y-60845139D01*
X48701503Y-60851975D01*
X48701502Y-60851978D01*
X48699583Y-60870707D01*
X48691500Y-60949600D01*
X48691500Y-63850400D01*
X48691837Y-63853646D01*
X48691837Y-63853650D01*
X48701752Y-63949203D01*
X48702474Y-63956165D01*
X48758450Y-64123945D01*
X48851522Y-64274348D01*
X48976697Y-64399305D01*
X48982927Y-64403145D01*
X48982928Y-64403146D01*
X49120090Y-64487694D01*
X49127262Y-64492115D01*
X49295139Y-64547797D01*
X49301978Y-64548498D01*
X49304414Y-64549020D01*
X49366828Y-64582858D01*
X49401040Y-64645068D01*
X49404000Y-64672220D01*
X49404000Y-68015500D01*
X49383998Y-68083621D01*
X49330342Y-68130114D01*
X49278000Y-68141500D01*
X49001866Y-68141500D01*
X48939684Y-68148255D01*
X48803295Y-68199385D01*
X48686739Y-68286739D01*
X48599385Y-68403295D01*
X48548255Y-68539684D01*
X48541500Y-68601866D01*
X48541500Y-70198134D01*
X48548255Y-70260316D01*
X48599385Y-70396705D01*
X48640562Y-70451647D01*
X48657953Y-70474852D01*
X48682801Y-70541358D01*
X48667748Y-70610741D01*
X48657953Y-70625982D01*
X48605214Y-70696352D01*
X48596676Y-70711946D01*
X48551522Y-70832394D01*
X48547895Y-70847649D01*
X48542369Y-70898514D01*
X48542000Y-70905328D01*
X48542000Y-71427885D01*
X48546475Y-71443124D01*
X48547865Y-71444329D01*
X48555548Y-71446000D01*
X51539884Y-71446000D01*
X51555123Y-71441525D01*
X51556328Y-71440135D01*
X51557999Y-71432452D01*
X51557999Y-70905331D01*
X51557629Y-70898510D01*
X51552105Y-70847648D01*
X51548479Y-70832396D01*
X51503324Y-70711946D01*
X51494786Y-70696352D01*
X51487884Y-70687142D01*
X56251938Y-70687142D01*
X56258684Y-70699474D01*
X57087188Y-71527978D01*
X57101132Y-71535592D01*
X57102965Y-71535461D01*
X57109580Y-71531210D01*
X57942391Y-70698399D01*
X57949412Y-70685543D01*
X57941639Y-70674875D01*
X57927548Y-70663746D01*
X57918970Y-70658047D01*
X57714526Y-70545189D01*
X57705126Y-70540964D01*
X57484993Y-70463011D01*
X57475036Y-70460381D01*
X57245129Y-70419427D01*
X57234878Y-70418458D01*
X57001367Y-70415605D01*
X56991083Y-70416325D01*
X56760253Y-70451647D01*
X56750225Y-70454036D01*
X56528263Y-70526584D01*
X56518753Y-70530581D01*
X56311624Y-70638405D01*
X56302904Y-70643897D01*
X56260391Y-70675817D01*
X56251938Y-70687142D01*
X51487884Y-70687142D01*
X51442047Y-70625982D01*
X51417199Y-70559476D01*
X51432252Y-70490093D01*
X51442047Y-70474852D01*
X51459438Y-70451647D01*
X51500615Y-70396705D01*
X51551745Y-70260316D01*
X51558500Y-70198134D01*
X51558500Y-68601866D01*
X51551745Y-68539684D01*
X51500615Y-68403295D01*
X51413261Y-68286739D01*
X51296705Y-68199385D01*
X51252769Y-68182914D01*
X51196005Y-68140272D01*
X51171306Y-68073710D01*
X51171000Y-68064932D01*
X51171000Y-64672242D01*
X51191002Y-64604121D01*
X51244658Y-64557628D01*
X51270402Y-64549081D01*
X51274307Y-64548238D01*
X51281165Y-64547526D01*
X51448945Y-64491550D01*
X51599348Y-64398478D01*
X51724305Y-64273303D01*
X51743624Y-64241962D01*
X51813275Y-64128968D01*
X51813276Y-64128966D01*
X51817115Y-64122738D01*
X51863982Y-63981438D01*
X51870632Y-63961389D01*
X51870632Y-63961387D01*
X51872797Y-63954861D01*
X51873509Y-63947919D01*
X51879343Y-63890968D01*
X51883500Y-63850400D01*
X51883500Y-61305648D01*
X51903502Y-61237527D01*
X51920405Y-61216553D01*
X53816553Y-59320405D01*
X53878865Y-59286379D01*
X53905648Y-59283500D01*
X54319689Y-59283500D01*
X54387810Y-59303502D01*
X54434303Y-59357158D01*
X54444407Y-59427432D01*
X54414913Y-59492012D01*
X54354841Y-59530497D01*
X54346561Y-59532903D01*
X54336399Y-59535855D01*
X54318371Y-59546517D01*
X54200020Y-59616509D01*
X54200017Y-59616511D01*
X54193193Y-59620547D01*
X54075547Y-59738193D01*
X54071511Y-59745017D01*
X54071509Y-59745020D01*
X54019262Y-59833365D01*
X53990855Y-59881399D01*
X53944438Y-60041169D01*
X53941500Y-60078498D01*
X53941500Y-60511502D01*
X53941693Y-60513950D01*
X53941693Y-60513958D01*
X53942074Y-60518794D01*
X53943988Y-60543109D01*
X53944438Y-60548831D01*
X53943376Y-60548915D01*
X53936578Y-60613465D01*
X53892150Y-60668843D01*
X53820065Y-60691500D01*
X53804513Y-60691500D01*
X53798061Y-60692872D01*
X53798056Y-60692872D01*
X53711112Y-60711353D01*
X53617712Y-60731206D01*
X53611682Y-60733891D01*
X53611681Y-60733891D01*
X53449278Y-60806197D01*
X53449276Y-60806198D01*
X53443248Y-60808882D01*
X53437907Y-60812762D01*
X53437906Y-60812763D01*
X53420963Y-60825073D01*
X53288747Y-60921134D01*
X53284326Y-60926044D01*
X53284325Y-60926045D01*
X53192019Y-61028562D01*
X53160960Y-61063056D01*
X53065473Y-61228444D01*
X53006458Y-61410072D01*
X53005768Y-61416633D01*
X53005768Y-61416635D01*
X53003127Y-61441760D01*
X52986496Y-61600000D01*
X52987186Y-61606565D01*
X53000475Y-61732999D01*
X53006458Y-61789928D01*
X53065473Y-61971556D01*
X53160960Y-62136944D01*
X53288747Y-62278866D01*
X53443248Y-62391118D01*
X53449276Y-62393802D01*
X53449278Y-62393803D01*
X53561617Y-62443819D01*
X53617712Y-62468794D01*
X53711112Y-62488647D01*
X53798056Y-62507128D01*
X53798061Y-62507128D01*
X53804513Y-62508500D01*
X53815500Y-62508500D01*
X53883621Y-62528502D01*
X53930114Y-62582158D01*
X53941500Y-62634500D01*
X53941500Y-63051502D01*
X53941693Y-63053958D01*
X53941694Y-63053976D01*
X53943058Y-63071302D01*
X53928464Y-63140783D01*
X53878623Y-63191343D01*
X53843644Y-63204438D01*
X53811639Y-63211241D01*
X53717712Y-63231206D01*
X53711682Y-63233891D01*
X53711681Y-63233891D01*
X53549278Y-63306197D01*
X53549276Y-63306198D01*
X53543248Y-63308882D01*
X53388747Y-63421134D01*
X53260960Y-63563056D01*
X53243383Y-63593500D01*
X53182466Y-63699012D01*
X53165473Y-63728444D01*
X53106458Y-63910072D01*
X53105768Y-63916633D01*
X53105768Y-63916635D01*
X53091139Y-64055827D01*
X53086496Y-64100000D01*
X53087186Y-64106565D01*
X53104711Y-64273303D01*
X53106458Y-64289928D01*
X53165473Y-64471556D01*
X53168776Y-64477278D01*
X53168777Y-64477279D01*
X53178355Y-64493868D01*
X53260960Y-64636944D01*
X53265378Y-64641851D01*
X53265379Y-64641852D01*
X53384225Y-64773844D01*
X53388747Y-64778866D01*
X53395113Y-64783491D01*
X53509168Y-64866357D01*
X53543248Y-64891118D01*
X53549276Y-64893802D01*
X53549278Y-64893803D01*
X53711681Y-64966109D01*
X53717712Y-64968794D01*
X53811113Y-64988647D01*
X53898056Y-65007128D01*
X53898061Y-65007128D01*
X53904513Y-65008500D01*
X54095487Y-65008500D01*
X54101939Y-65007128D01*
X54101944Y-65007128D01*
X54188887Y-64988647D01*
X54282288Y-64968794D01*
X54403765Y-64914709D01*
X54474132Y-64905275D01*
X54489639Y-64908702D01*
X54489984Y-64908765D01*
X54496169Y-64910562D01*
X54511278Y-64911751D01*
X54531042Y-64913307D01*
X54531050Y-64913307D01*
X54533498Y-64913500D01*
X56316502Y-64913500D01*
X56318950Y-64913307D01*
X56318958Y-64913307D01*
X56347421Y-64911067D01*
X56347426Y-64911066D01*
X56353831Y-64910562D01*
X56466541Y-64877817D01*
X56505988Y-64866357D01*
X56505990Y-64866356D01*
X56513601Y-64864145D01*
X56542411Y-64847107D01*
X56649980Y-64783491D01*
X56649983Y-64783489D01*
X56656807Y-64779453D01*
X56774453Y-64661807D01*
X56778489Y-64654983D01*
X56778491Y-64654980D01*
X56855108Y-64525427D01*
X56859145Y-64518601D01*
X56861415Y-64510790D01*
X56892924Y-64402332D01*
X56902064Y-64370871D01*
X58898456Y-64370871D01*
X58939107Y-64510790D01*
X58945352Y-64525221D01*
X59021911Y-64654678D01*
X59031551Y-64667104D01*
X59137896Y-64773449D01*
X59150322Y-64783089D01*
X59279779Y-64859648D01*
X59294210Y-64865893D01*
X59440065Y-64908269D01*
X59452667Y-64910570D01*
X59481084Y-64912807D01*
X59486014Y-64913000D01*
X60102885Y-64913000D01*
X60118124Y-64908525D01*
X60119329Y-64907135D01*
X60121000Y-64899452D01*
X60121000Y-64894884D01*
X60629000Y-64894884D01*
X60633475Y-64910123D01*
X60634865Y-64911328D01*
X60642548Y-64912999D01*
X61263984Y-64912999D01*
X61268920Y-64912805D01*
X61297336Y-64910570D01*
X61309931Y-64908270D01*
X61455790Y-64865893D01*
X61470221Y-64859648D01*
X61599678Y-64783089D01*
X61612104Y-64773449D01*
X61718449Y-64667104D01*
X61728089Y-64654678D01*
X61804648Y-64525221D01*
X61810893Y-64510790D01*
X61849939Y-64376395D01*
X61849899Y-64362294D01*
X61842630Y-64359000D01*
X60647115Y-64359000D01*
X60631876Y-64363475D01*
X60630671Y-64364865D01*
X60629000Y-64372548D01*
X60629000Y-64894884D01*
X60121000Y-64894884D01*
X60121000Y-64377115D01*
X60116525Y-64361876D01*
X60115135Y-64360671D01*
X60107452Y-64359000D01*
X58913122Y-64359000D01*
X58899591Y-64362973D01*
X58898456Y-64370871D01*
X56902064Y-64370871D01*
X56905562Y-64358831D01*
X56908500Y-64321502D01*
X56908500Y-63888498D01*
X56905562Y-63851169D01*
X56871733Y-63734729D01*
X56861357Y-63699012D01*
X56861356Y-63699010D01*
X56859145Y-63691399D01*
X56774453Y-63548193D01*
X56771771Y-63545511D01*
X56746498Y-63481139D01*
X56760400Y-63411516D01*
X56770572Y-63395688D01*
X56774453Y-63391807D01*
X56859145Y-63248601D01*
X56905562Y-63088831D01*
X56908306Y-63053976D01*
X56908307Y-63053958D01*
X56908307Y-63053950D01*
X56908500Y-63051502D01*
X58891500Y-63051502D01*
X58891693Y-63053950D01*
X58891693Y-63053958D01*
X58891695Y-63053976D01*
X58894438Y-63088831D01*
X58940855Y-63248601D01*
X59025547Y-63391807D01*
X59028487Y-63394747D01*
X59053820Y-63459266D01*
X59039921Y-63528889D01*
X59027874Y-63547636D01*
X59021910Y-63555324D01*
X58945352Y-63684779D01*
X58939107Y-63699210D01*
X58900061Y-63833605D01*
X58900101Y-63847706D01*
X58907370Y-63851000D01*
X61836879Y-63851000D01*
X61874486Y-63839958D01*
X61945482Y-63839958D01*
X61999078Y-63871759D01*
X62601996Y-64474677D01*
X62636022Y-64536989D01*
X62632494Y-64603439D01*
X62579770Y-64762400D01*
X62577203Y-64770139D01*
X62576503Y-64776975D01*
X62576502Y-64776978D01*
X62575911Y-64782749D01*
X62566500Y-64874600D01*
X62566500Y-65371129D01*
X62546498Y-65439250D01*
X62529595Y-65460224D01*
X60111089Y-67878730D01*
X60096677Y-67891116D01*
X60085082Y-67899649D01*
X60085077Y-67899654D01*
X60079182Y-67903992D01*
X60074443Y-67909570D01*
X60074440Y-67909573D01*
X60044965Y-67944268D01*
X60038035Y-67951784D01*
X60032340Y-67957479D01*
X60030060Y-67960361D01*
X60014719Y-67979751D01*
X60011928Y-67983155D01*
X59984449Y-68015500D01*
X59964667Y-68038785D01*
X59961339Y-68045301D01*
X59957972Y-68050350D01*
X59954805Y-68055479D01*
X59950266Y-68061216D01*
X59919345Y-68127375D01*
X59917442Y-68131269D01*
X59884231Y-68196308D01*
X59882492Y-68203416D01*
X59880393Y-68209059D01*
X59878476Y-68214822D01*
X59875378Y-68221450D01*
X59873888Y-68228612D01*
X59873888Y-68228613D01*
X59860514Y-68292912D01*
X59859544Y-68297196D01*
X59842192Y-68368110D01*
X59841500Y-68379264D01*
X59841464Y-68379262D01*
X59841225Y-68383255D01*
X59840851Y-68387447D01*
X59839360Y-68394615D01*
X59839558Y-68401932D01*
X59841454Y-68472021D01*
X59841500Y-68475428D01*
X59841500Y-70551335D01*
X59821498Y-70619456D01*
X59791153Y-70652095D01*
X59667236Y-70745135D01*
X59611690Y-70786840D01*
X59443153Y-70963204D01*
X59440239Y-70967476D01*
X59440238Y-70967477D01*
X59420719Y-70996091D01*
X59305684Y-71164726D01*
X59288705Y-71201305D01*
X59221806Y-71345426D01*
X59202974Y-71385995D01*
X59137783Y-71621067D01*
X59111860Y-71863631D01*
X59112157Y-71868783D01*
X59112157Y-71868787D01*
X59118772Y-71983500D01*
X59125903Y-72107171D01*
X59127040Y-72112217D01*
X59127041Y-72112223D01*
X59150107Y-72214575D01*
X59179533Y-72345147D01*
X59181475Y-72349929D01*
X59181476Y-72349933D01*
X59263670Y-72552351D01*
X59271311Y-72571169D01*
X59398772Y-72779166D01*
X59558492Y-72963553D01*
X59746183Y-73119377D01*
X59956804Y-73242453D01*
X60184698Y-73329478D01*
X60189764Y-73330509D01*
X60189765Y-73330509D01*
X60418667Y-73377080D01*
X60418671Y-73377080D01*
X60423746Y-73378113D01*
X60428922Y-73378303D01*
X60428924Y-73378303D01*
X60662363Y-73386863D01*
X60662367Y-73386863D01*
X60667527Y-73387052D01*
X60672647Y-73386396D01*
X60672649Y-73386396D01*
X60749377Y-73376567D01*
X60909494Y-73356055D01*
X60914443Y-73354570D01*
X60914449Y-73354569D01*
X61138200Y-73287440D01*
X61138199Y-73287440D01*
X61143150Y-73285955D01*
X61362219Y-73178634D01*
X61366424Y-73175634D01*
X61366430Y-73175631D01*
X61556614Y-73039974D01*
X61556616Y-73039972D01*
X61560818Y-73036975D01*
X61733614Y-72864781D01*
X61875966Y-72666677D01*
X61878387Y-72661780D01*
X61981756Y-72452626D01*
X61981757Y-72452624D01*
X61984050Y-72447984D01*
X62039786Y-72264539D01*
X62053462Y-72219527D01*
X62053463Y-72219521D01*
X62054966Y-72214575D01*
X62071886Y-72086054D01*
X62086370Y-71976038D01*
X62086370Y-71976034D01*
X62086807Y-71972717D01*
X62087224Y-71955671D01*
X62088502Y-71903365D01*
X62088502Y-71903361D01*
X62088584Y-71900000D01*
X62068596Y-71656876D01*
X62009167Y-71420280D01*
X61937277Y-71254944D01*
X61913954Y-71201305D01*
X61913952Y-71201302D01*
X61911894Y-71196568D01*
X61818888Y-71052802D01*
X61782200Y-70996091D01*
X61782198Y-70996088D01*
X61779390Y-70991748D01*
X61700757Y-70905331D01*
X61618690Y-70815141D01*
X61618688Y-70815140D01*
X61615212Y-70811319D01*
X61611161Y-70808120D01*
X61611157Y-70808116D01*
X61427824Y-70663328D01*
X61427819Y-70663324D01*
X61423770Y-70660127D01*
X61419253Y-70657633D01*
X61414934Y-70654764D01*
X61416287Y-70652727D01*
X61373505Y-70609361D01*
X61358500Y-70549727D01*
X61358500Y-68828871D01*
X61378502Y-68760750D01*
X61395405Y-68739776D01*
X63464776Y-66670405D01*
X63527088Y-66636379D01*
X63553871Y-66633500D01*
X64050400Y-66633500D01*
X64053646Y-66633163D01*
X64053650Y-66633163D01*
X64149308Y-66623238D01*
X64149312Y-66623237D01*
X64156166Y-66622526D01*
X64162702Y-66620345D01*
X64162704Y-66620345D01*
X64316998Y-66568868D01*
X64323946Y-66566550D01*
X64474348Y-66473478D01*
X64599305Y-66348303D01*
X64602102Y-66343765D01*
X64659353Y-66303176D01*
X64730276Y-66299946D01*
X64791687Y-66335572D01*
X64799062Y-66344068D01*
X64807098Y-66354207D01*
X64921829Y-66468739D01*
X64933240Y-66477751D01*
X65071243Y-66562816D01*
X65084424Y-66568963D01*
X65238710Y-66620138D01*
X65252086Y-66623005D01*
X65346438Y-66632672D01*
X65352854Y-66633000D01*
X65465385Y-66633000D01*
X65480624Y-66628525D01*
X65481829Y-66627135D01*
X65483500Y-66619452D01*
X65483500Y-66614884D01*
X65991500Y-66614884D01*
X65995975Y-66630123D01*
X65997365Y-66631328D01*
X66005048Y-66632999D01*
X66122095Y-66632999D01*
X66128614Y-66632662D01*
X66224206Y-66622743D01*
X66237600Y-66619851D01*
X66391784Y-66568412D01*
X66404962Y-66562239D01*
X66542807Y-66476937D01*
X66554208Y-66467901D01*
X66668739Y-66353171D01*
X66677751Y-66341760D01*
X66762816Y-66203757D01*
X66768963Y-66190576D01*
X66820138Y-66036290D01*
X66823005Y-66022914D01*
X66832672Y-65928562D01*
X66833000Y-65922146D01*
X66833000Y-65672115D01*
X66828525Y-65656876D01*
X66827135Y-65655671D01*
X66819452Y-65654000D01*
X66009615Y-65654000D01*
X65994376Y-65658475D01*
X65993171Y-65659865D01*
X65991500Y-65667548D01*
X65991500Y-66614884D01*
X65483500Y-66614884D01*
X65483500Y-65127885D01*
X65991500Y-65127885D01*
X65995975Y-65143124D01*
X65997365Y-65144329D01*
X66005048Y-65146000D01*
X66814884Y-65146000D01*
X66830123Y-65141525D01*
X66831328Y-65140135D01*
X66832999Y-65132452D01*
X66832999Y-64877905D01*
X66832662Y-64871386D01*
X66822743Y-64775794D01*
X66819851Y-64762400D01*
X66768412Y-64608216D01*
X66762239Y-64595038D01*
X66676937Y-64457193D01*
X66667901Y-64445792D01*
X66553171Y-64331261D01*
X66541760Y-64322249D01*
X66403757Y-64237184D01*
X66390576Y-64231037D01*
X66236290Y-64179862D01*
X66222914Y-64176995D01*
X66128562Y-64167328D01*
X66122145Y-64167000D01*
X66009615Y-64167000D01*
X65994376Y-64171475D01*
X65993171Y-64172865D01*
X65991500Y-64180548D01*
X65991500Y-65127885D01*
X65483500Y-65127885D01*
X65483500Y-64185116D01*
X65479025Y-64169877D01*
X65477635Y-64168672D01*
X65469952Y-64167001D01*
X65352905Y-64167001D01*
X65346386Y-64167338D01*
X65250794Y-64177257D01*
X65237400Y-64180149D01*
X65083216Y-64231588D01*
X65070038Y-64237761D01*
X64932193Y-64323063D01*
X64920792Y-64332099D01*
X64806262Y-64446828D01*
X64799206Y-64455762D01*
X64741288Y-64496823D01*
X64670365Y-64500053D01*
X64608954Y-64464426D01*
X64602154Y-64456593D01*
X64598478Y-64450652D01*
X64473303Y-64325695D01*
X64466501Y-64321502D01*
X64441722Y-64306228D01*
X64394228Y-64253455D01*
X64389400Y-64241962D01*
X64380775Y-64218202D01*
X64379346Y-64214038D01*
X64359110Y-64151569D01*
X64359107Y-64151563D01*
X64356852Y-64144601D01*
X64353056Y-64138346D01*
X64350557Y-64132887D01*
X64347829Y-64127439D01*
X64345333Y-64120563D01*
X64305305Y-64059510D01*
X64302981Y-64055827D01*
X64268000Y-63998180D01*
X64267999Y-63998179D01*
X64265095Y-63993393D01*
X64257698Y-63985017D01*
X64257725Y-63984993D01*
X64255070Y-63981999D01*
X64252368Y-63978768D01*
X64248356Y-63972648D01*
X64192117Y-63919372D01*
X64189675Y-63916994D01*
X64049312Y-63776631D01*
X64015286Y-63714319D01*
X64020351Y-63643504D01*
X64064345Y-63585601D01*
X64211253Y-63478866D01*
X64339040Y-63336944D01*
X64434527Y-63171556D01*
X64493542Y-62989928D01*
X64513504Y-62800000D01*
X64499583Y-62667548D01*
X64494232Y-62616635D01*
X64494232Y-62616633D01*
X64493542Y-62610072D01*
X64489667Y-62598146D01*
X64483500Y-62559210D01*
X64483500Y-61533919D01*
X64503502Y-61465798D01*
X64557158Y-61419305D01*
X64627432Y-61409201D01*
X64692012Y-61438695D01*
X64701913Y-61449039D01*
X64701917Y-61449035D01*
X64821829Y-61568739D01*
X64833240Y-61577751D01*
X64971243Y-61662816D01*
X64984424Y-61668963D01*
X65138710Y-61720138D01*
X65152086Y-61723005D01*
X65246438Y-61732672D01*
X65252854Y-61733000D01*
X65365385Y-61733000D01*
X65380624Y-61728525D01*
X65381829Y-61727135D01*
X65383500Y-61719452D01*
X65383500Y-61714884D01*
X65891500Y-61714884D01*
X65895975Y-61730123D01*
X65897365Y-61731328D01*
X65905048Y-61732999D01*
X66022095Y-61732999D01*
X66028614Y-61732662D01*
X66124206Y-61722743D01*
X66137600Y-61719851D01*
X66291784Y-61668412D01*
X66304962Y-61662239D01*
X66442807Y-61576937D01*
X66454208Y-61567901D01*
X66568739Y-61453171D01*
X66577751Y-61441760D01*
X66662816Y-61303757D01*
X66668963Y-61290576D01*
X66720138Y-61136290D01*
X66723005Y-61122914D01*
X66732672Y-61028562D01*
X66733000Y-61022146D01*
X66733000Y-60772115D01*
X66728525Y-60756876D01*
X66727135Y-60755671D01*
X66719452Y-60754000D01*
X65909615Y-60754000D01*
X65894376Y-60758475D01*
X65893171Y-60759865D01*
X65891500Y-60767548D01*
X65891500Y-61714884D01*
X65383500Y-61714884D01*
X65383500Y-60227885D01*
X65891500Y-60227885D01*
X65895975Y-60243124D01*
X65897365Y-60244329D01*
X65905048Y-60246000D01*
X66714884Y-60246000D01*
X66730123Y-60241525D01*
X66731328Y-60240135D01*
X66732999Y-60232452D01*
X66732999Y-59977905D01*
X66732662Y-59971386D01*
X66722743Y-59875794D01*
X66719851Y-59862400D01*
X66668412Y-59708216D01*
X66662239Y-59695038D01*
X66576937Y-59557193D01*
X66567901Y-59545792D01*
X66453171Y-59431261D01*
X66441760Y-59422249D01*
X66303757Y-59337184D01*
X66290576Y-59331037D01*
X66136290Y-59279862D01*
X66122914Y-59276995D01*
X66028562Y-59267328D01*
X66022145Y-59267000D01*
X65909615Y-59267000D01*
X65894376Y-59271475D01*
X65893171Y-59272865D01*
X65891500Y-59280548D01*
X65891500Y-60227885D01*
X65383500Y-60227885D01*
X65383500Y-59285116D01*
X65379025Y-59269877D01*
X65377635Y-59268672D01*
X65369952Y-59267001D01*
X65252905Y-59267001D01*
X65246386Y-59267338D01*
X65150794Y-59277257D01*
X65137400Y-59280149D01*
X64983216Y-59331588D01*
X64970038Y-59337761D01*
X64832193Y-59423063D01*
X64820792Y-59432099D01*
X64706262Y-59546828D01*
X64699206Y-59555762D01*
X64641288Y-59596823D01*
X64570365Y-59600053D01*
X64508954Y-59564426D01*
X64502154Y-59556593D01*
X64498478Y-59550652D01*
X64373303Y-59425695D01*
X64367072Y-59421854D01*
X64228968Y-59336725D01*
X64228966Y-59336724D01*
X64222738Y-59332885D01*
X64142995Y-59306436D01*
X64061389Y-59279368D01*
X64061387Y-59279368D01*
X64054861Y-59277203D01*
X64048025Y-59276503D01*
X64048022Y-59276502D01*
X64004969Y-59272091D01*
X63950400Y-59266500D01*
X63174600Y-59266500D01*
X63171354Y-59266837D01*
X63171350Y-59266837D01*
X63075692Y-59276762D01*
X63075688Y-59276763D01*
X63068834Y-59277474D01*
X63062298Y-59279655D01*
X63062296Y-59279655D01*
X62930194Y-59323728D01*
X62901054Y-59333450D01*
X62750652Y-59426522D01*
X62625695Y-59551697D01*
X62621855Y-59557927D01*
X62621854Y-59557928D01*
X62569147Y-59643435D01*
X62532885Y-59702262D01*
X62477203Y-59870139D01*
X62466500Y-59974600D01*
X62466500Y-60680500D01*
X62446498Y-60748621D01*
X62392842Y-60795114D01*
X62340500Y-60806500D01*
X61948519Y-60806500D01*
X61880398Y-60786498D01*
X61833905Y-60732842D01*
X61823801Y-60662568D01*
X61827522Y-60645348D01*
X61853767Y-60555011D01*
X61853768Y-60555007D01*
X61855562Y-60548831D01*
X61858138Y-60516109D01*
X61858307Y-60513958D01*
X61858307Y-60513950D01*
X61858500Y-60511502D01*
X61858500Y-60078498D01*
X61855562Y-60041169D01*
X61809145Y-59881399D01*
X61780738Y-59833365D01*
X61728491Y-59745020D01*
X61728489Y-59745017D01*
X61724453Y-59738193D01*
X61606807Y-59620547D01*
X61599983Y-59616511D01*
X61599980Y-59616509D01*
X61481629Y-59546517D01*
X61463601Y-59535855D01*
X61455990Y-59533644D01*
X61455988Y-59533643D01*
X61403769Y-59518472D01*
X61303831Y-59489438D01*
X61297426Y-59488934D01*
X61297421Y-59488933D01*
X61268958Y-59486693D01*
X61268950Y-59486693D01*
X61266502Y-59486500D01*
X59483498Y-59486500D01*
X59481050Y-59486693D01*
X59481042Y-59486693D01*
X59452579Y-59488933D01*
X59452574Y-59488934D01*
X59446169Y-59489438D01*
X59346231Y-59518472D01*
X59294012Y-59533643D01*
X59294010Y-59533644D01*
X59286399Y-59535855D01*
X59268371Y-59546517D01*
X59150020Y-59616509D01*
X59150017Y-59616511D01*
X59143193Y-59620547D01*
X59025547Y-59738193D01*
X59021511Y-59745017D01*
X59021509Y-59745020D01*
X58969262Y-59833365D01*
X58940855Y-59881399D01*
X58894438Y-60041169D01*
X58891500Y-60078498D01*
X58891500Y-60511502D01*
X58891693Y-60513950D01*
X58891693Y-60513958D01*
X58891863Y-60516109D01*
X58894438Y-60548831D01*
X58923472Y-60648769D01*
X58933769Y-60684209D01*
X58940855Y-60708601D01*
X59025547Y-60851807D01*
X59028229Y-60854489D01*
X59053502Y-60918861D01*
X59039600Y-60988484D01*
X59029428Y-61004312D01*
X59025547Y-61008193D01*
X58940855Y-61151399D01*
X58894438Y-61311169D01*
X58891500Y-61348498D01*
X58891500Y-61781502D01*
X58894438Y-61818831D01*
X58940855Y-61978601D01*
X59025547Y-62121807D01*
X59028229Y-62124489D01*
X59053502Y-62188861D01*
X59039600Y-62258484D01*
X59029428Y-62274312D01*
X59025547Y-62278193D01*
X58940855Y-62421399D01*
X58894438Y-62581169D01*
X58893934Y-62587574D01*
X58893933Y-62587579D01*
X58892657Y-62603794D01*
X58891500Y-62618498D01*
X58891500Y-63051502D01*
X56908500Y-63051502D01*
X56908500Y-62618498D01*
X56907343Y-62603794D01*
X56906067Y-62587579D01*
X56906066Y-62587574D01*
X56905562Y-62581169D01*
X56859145Y-62421399D01*
X56774453Y-62278193D01*
X56771771Y-62275511D01*
X56746498Y-62211139D01*
X56760400Y-62141516D01*
X56770572Y-62125688D01*
X56774453Y-62121807D01*
X56859145Y-61978601D01*
X56905562Y-61818831D01*
X56908500Y-61781502D01*
X56908500Y-61348498D01*
X56905562Y-61311169D01*
X56859145Y-61151399D01*
X56838286Y-61116128D01*
X56820827Y-61047316D01*
X56843343Y-60979985D01*
X56898687Y-60935515D01*
X56942777Y-60926054D01*
X56946969Y-60925922D01*
X56954889Y-60925673D01*
X56974343Y-60920021D01*
X56993700Y-60916013D01*
X57005930Y-60914468D01*
X57005931Y-60914468D01*
X57013797Y-60913474D01*
X57021168Y-60910555D01*
X57021170Y-60910555D01*
X57054912Y-60897196D01*
X57066142Y-60893351D01*
X57100983Y-60883229D01*
X57100984Y-60883229D01*
X57108593Y-60881018D01*
X57115412Y-60876985D01*
X57115417Y-60876983D01*
X57126028Y-60870707D01*
X57143776Y-60862012D01*
X57162617Y-60854552D01*
X57198387Y-60828564D01*
X57208307Y-60822048D01*
X57239535Y-60803580D01*
X57239538Y-60803578D01*
X57246362Y-60799542D01*
X57260683Y-60785221D01*
X57275717Y-60772380D01*
X57285693Y-60765132D01*
X57292107Y-60760472D01*
X57320293Y-60726401D01*
X57328282Y-60717622D01*
X57450499Y-60595405D01*
X57512811Y-60561379D01*
X57539594Y-60558500D01*
X57595487Y-60558500D01*
X57601939Y-60557128D01*
X57601944Y-60557128D01*
X57688888Y-60538647D01*
X57782288Y-60518794D01*
X57793150Y-60513958D01*
X57950722Y-60443803D01*
X57950724Y-60443802D01*
X57956752Y-60441118D01*
X58111253Y-60328866D01*
X58131723Y-60306132D01*
X58234621Y-60191852D01*
X58234622Y-60191851D01*
X58239040Y-60186944D01*
X58319503Y-60047579D01*
X58331223Y-60027279D01*
X58331224Y-60027278D01*
X58334527Y-60021556D01*
X58393542Y-59839928D01*
X58413504Y-59650000D01*
X58409984Y-59616509D01*
X58394233Y-59466642D01*
X58394232Y-59466638D01*
X58393542Y-59460072D01*
X58388369Y-59444151D01*
X58386341Y-59373185D01*
X58423002Y-59312387D01*
X58486714Y-59281061D01*
X58501605Y-59279388D01*
X58510214Y-59278937D01*
X58532377Y-59277776D01*
X58532381Y-59277775D01*
X58538971Y-59277430D01*
X58545343Y-59275723D01*
X58545347Y-59275722D01*
X58711989Y-59231070D01*
X58711990Y-59231070D01*
X58718363Y-59229362D01*
X58883839Y-59145047D01*
X58991986Y-59057472D01*
X62789052Y-55260405D01*
X62851364Y-55226379D01*
X62878147Y-55223500D01*
X63657589Y-55223500D01*
X63725710Y-55243502D01*
X63772203Y-55297158D01*
X63782307Y-55367432D01*
X63752813Y-55432012D01*
X63687644Y-55471863D01*
X63506461Y-55516366D01*
X63501809Y-55518341D01*
X63501805Y-55518342D01*
X63381061Y-55569595D01*
X63275604Y-55614359D01*
X63063385Y-55748000D01*
X62875262Y-55913853D01*
X62716076Y-56107649D01*
X62589922Y-56324404D01*
X62588109Y-56329127D01*
X62588108Y-56329129D01*
X62563639Y-56392872D01*
X62500045Y-56558539D01*
X62499012Y-56563485D01*
X62499010Y-56563491D01*
X62480247Y-56653307D01*
X62448759Y-56804033D01*
X62448530Y-56809082D01*
X62448529Y-56809088D01*
X62446159Y-56861288D01*
X62437382Y-57054568D01*
X62437963Y-57059588D01*
X62437963Y-57059592D01*
X62448787Y-57153133D01*
X62466208Y-57303699D01*
X62467587Y-57308573D01*
X62467588Y-57308577D01*
X62533116Y-57540148D01*
X62534494Y-57545017D01*
X62536628Y-57549592D01*
X62536630Y-57549599D01*
X62638347Y-57767731D01*
X62640484Y-57772313D01*
X62643326Y-57776494D01*
X62643326Y-57776495D01*
X62778605Y-57975552D01*
X62778608Y-57975556D01*
X62781451Y-57979739D01*
X62784928Y-57983416D01*
X62784929Y-57983417D01*
X62883106Y-58087237D01*
X62953767Y-58161959D01*
X62957793Y-58165037D01*
X62957794Y-58165038D01*
X63148981Y-58311212D01*
X63148985Y-58311215D01*
X63153001Y-58314285D01*
X63374026Y-58432797D01*
X63378807Y-58434443D01*
X63378811Y-58434445D01*
X63604538Y-58512169D01*
X63611156Y-58514448D01*
X63714689Y-58532331D01*
X63854380Y-58556460D01*
X63854386Y-58556461D01*
X63858290Y-58557135D01*
X63862251Y-58557315D01*
X63862252Y-58557315D01*
X63886931Y-58558436D01*
X63886950Y-58558436D01*
X63888350Y-58558500D01*
X64063015Y-58558500D01*
X64065523Y-58558298D01*
X64065528Y-58558298D01*
X64244944Y-58543863D01*
X64244949Y-58543862D01*
X64249985Y-58543457D01*
X64254893Y-58542252D01*
X64254896Y-58542251D01*
X64488625Y-58484841D01*
X64493539Y-58483634D01*
X64498191Y-58481659D01*
X64498195Y-58481658D01*
X64719741Y-58387617D01*
X64719742Y-58387617D01*
X64724396Y-58385641D01*
X64936615Y-58252000D01*
X65124738Y-58086147D01*
X65283924Y-57892351D01*
X65410078Y-57675596D01*
X65414042Y-57665271D01*
X65498143Y-57446181D01*
X65499955Y-57441461D01*
X65501002Y-57436453D01*
X65550206Y-57200921D01*
X65551241Y-57195967D01*
X65551516Y-57189928D01*
X65557662Y-57054568D01*
X65562618Y-56945432D01*
X65560653Y-56928444D01*
X65542700Y-56773288D01*
X65533792Y-56696301D01*
X65532395Y-56691362D01*
X65466884Y-56459852D01*
X65466883Y-56459850D01*
X65465506Y-56454983D01*
X65463372Y-56450408D01*
X65463370Y-56450401D01*
X65361653Y-56232269D01*
X65361651Y-56232265D01*
X65359516Y-56227687D01*
X65344911Y-56206197D01*
X65221395Y-56024448D01*
X65221392Y-56024444D01*
X65218549Y-56020261D01*
X65185588Y-55985405D01*
X65099909Y-55894802D01*
X65067638Y-55831564D01*
X65074678Y-55760917D01*
X65118795Y-55705292D01*
X65185982Y-55682348D01*
X65224293Y-55688436D01*
X65224600Y-55687144D01*
X65232284Y-55688971D01*
X65239684Y-55691745D01*
X65301866Y-55698500D01*
X67098134Y-55698500D01*
X67160316Y-55691745D01*
X67296705Y-55640615D01*
X67413261Y-55553261D01*
X67500615Y-55436705D01*
X67551745Y-55300316D01*
X67558500Y-55238134D01*
X67558500Y-53441866D01*
X67551745Y-53379684D01*
X67500615Y-53243295D01*
X67413261Y-53126739D01*
X67296705Y-53039385D01*
X67284132Y-53034672D01*
X67178203Y-52994960D01*
X67121439Y-52952318D01*
X67096739Y-52885756D01*
X67111947Y-52816408D01*
X67133493Y-52787727D01*
X67158905Y-52762404D01*
X67238096Y-52683489D01*
X67368453Y-52502077D01*
X67372611Y-52493665D01*
X67465136Y-52306453D01*
X67465137Y-52306451D01*
X67467430Y-52301811D01*
X67532370Y-52088069D01*
X67561529Y-51866590D01*
X67563156Y-51800000D01*
X67544852Y-51577361D01*
X67490431Y-51360702D01*
X67401354Y-51155840D01*
X67280014Y-50968277D01*
X67129670Y-50803051D01*
X67125619Y-50799852D01*
X67125615Y-50799848D01*
X66958414Y-50667800D01*
X66958410Y-50667798D01*
X66954359Y-50664598D01*
X66912569Y-50641529D01*
X66862598Y-50591097D01*
X66847826Y-50521654D01*
X66872942Y-50455248D01*
X66900294Y-50428641D01*
X67075328Y-50303792D01*
X67083200Y-50297139D01*
X67234052Y-50146812D01*
X67240730Y-50138965D01*
X67365003Y-49966020D01*
X67370313Y-49957183D01*
X67464670Y-49766267D01*
X67468469Y-49756672D01*
X67530377Y-49552910D01*
X67532555Y-49542837D01*
X67533986Y-49531962D01*
X67531775Y-49517778D01*
X67518617Y-49514000D01*
X64883225Y-49514000D01*
X64869694Y-49517973D01*
X64868257Y-49527966D01*
X64898565Y-49662446D01*
X64901645Y-49672275D01*
X64981770Y-49869603D01*
X64986413Y-49878794D01*
X65097694Y-50060388D01*
X65103777Y-50068699D01*
X65243213Y-50229667D01*
X65250580Y-50236883D01*
X65414434Y-50372916D01*
X65422881Y-50378831D01*
X65491969Y-50419203D01*
X65540693Y-50470842D01*
X65553764Y-50540625D01*
X65527033Y-50606396D01*
X65486584Y-50639752D01*
X65473607Y-50646507D01*
X65469474Y-50649610D01*
X65469471Y-50649612D01*
X65299100Y-50777530D01*
X65294965Y-50780635D01*
X65140629Y-50942138D01*
X65137715Y-50946410D01*
X65137714Y-50946411D01*
X65025095Y-51111504D01*
X64970184Y-51156507D01*
X64921007Y-51166500D01*
X63914595Y-51166500D01*
X63846474Y-51146498D01*
X63825500Y-51129595D01*
X61690088Y-48994183D01*
X64864389Y-48994183D01*
X64865912Y-49002607D01*
X64878292Y-49006000D01*
X65927885Y-49006000D01*
X65943124Y-49001525D01*
X65944329Y-49000135D01*
X65946000Y-48992452D01*
X65946000Y-48987885D01*
X66454000Y-48987885D01*
X66458475Y-49003124D01*
X66459865Y-49004329D01*
X66467548Y-49006000D01*
X67518344Y-49006000D01*
X67531875Y-49002027D01*
X67533180Y-48992947D01*
X67491214Y-48825875D01*
X67487894Y-48816124D01*
X67402972Y-48620814D01*
X67398105Y-48611739D01*
X67282426Y-48432926D01*
X67276136Y-48424757D01*
X67132806Y-48267240D01*
X67125273Y-48260215D01*
X66958139Y-48128222D01*
X66949552Y-48122517D01*
X66763117Y-48019599D01*
X66753705Y-48015369D01*
X66552959Y-47944280D01*
X66542988Y-47941646D01*
X66471837Y-47928972D01*
X66458540Y-47930432D01*
X66454000Y-47944989D01*
X66454000Y-48987885D01*
X65946000Y-48987885D01*
X65946000Y-47943102D01*
X65942082Y-47929758D01*
X65927806Y-47927771D01*
X65889324Y-47933660D01*
X65879288Y-47936051D01*
X65676868Y-48002212D01*
X65667359Y-48006209D01*
X65478463Y-48104542D01*
X65469738Y-48110036D01*
X65299433Y-48237905D01*
X65291726Y-48244748D01*
X65144590Y-48398717D01*
X65138104Y-48406727D01*
X65018098Y-48582649D01*
X65013000Y-48591623D01*
X64923338Y-48784783D01*
X64919775Y-48794470D01*
X64864389Y-48994183D01*
X61690088Y-48994183D01*
X59647122Y-46951217D01*
X59613096Y-46888905D01*
X59610907Y-46875292D01*
X59594232Y-46716635D01*
X59594232Y-46716633D01*
X59593542Y-46710072D01*
X59534527Y-46528444D01*
X59439040Y-46363056D01*
X59358541Y-46273652D01*
X59315675Y-46226045D01*
X59315674Y-46226044D01*
X59311253Y-46221134D01*
X59208526Y-46146498D01*
X59162094Y-46112763D01*
X59162093Y-46112762D01*
X59156752Y-46108882D01*
X59150724Y-46106198D01*
X59150722Y-46106197D01*
X58988319Y-46033891D01*
X58988318Y-46033891D01*
X58982288Y-46031206D01*
X58888888Y-46011353D01*
X58801944Y-45992872D01*
X58801939Y-45992872D01*
X58795487Y-45991500D01*
X58604513Y-45991500D01*
X58595697Y-45993374D01*
X58594301Y-45993267D01*
X58591489Y-45993563D01*
X58591435Y-45993049D01*
X58524907Y-45987973D01*
X58468274Y-45945157D01*
X58443780Y-45878520D01*
X58443500Y-45870128D01*
X58443500Y-43188767D01*
X58444027Y-43177584D01*
X58445702Y-43170091D01*
X58443562Y-43102000D01*
X58443500Y-43098043D01*
X58443500Y-43070144D01*
X58442996Y-43066153D01*
X58442063Y-43054311D01*
X58440923Y-43018036D01*
X58440674Y-43010111D01*
X58438462Y-43002497D01*
X58438461Y-43002492D01*
X58435023Y-42990659D01*
X58431012Y-42971295D01*
X58429467Y-42959064D01*
X58428474Y-42951203D01*
X58425557Y-42943836D01*
X58425556Y-42943831D01*
X58412198Y-42910092D01*
X58408354Y-42898865D01*
X58398230Y-42864022D01*
X58396018Y-42856407D01*
X58385707Y-42838972D01*
X58377012Y-42821224D01*
X58369552Y-42802383D01*
X58343564Y-42766613D01*
X58337048Y-42756693D01*
X58318580Y-42725465D01*
X58318578Y-42725462D01*
X58314542Y-42718638D01*
X58300221Y-42704317D01*
X58287380Y-42689283D01*
X58280131Y-42679306D01*
X58275472Y-42672893D01*
X58241395Y-42644702D01*
X58232616Y-42636712D01*
X56703652Y-41107747D01*
X56696112Y-41099461D01*
X56692000Y-41092982D01*
X56642348Y-41046356D01*
X56639507Y-41043602D01*
X56619770Y-41023865D01*
X56616573Y-41021385D01*
X56607551Y-41013680D01*
X56581100Y-40988841D01*
X56575321Y-40983414D01*
X56568375Y-40979595D01*
X56568372Y-40979593D01*
X56557566Y-40973652D01*
X56541047Y-40962801D01*
X56540583Y-40962441D01*
X56525041Y-40950386D01*
X56517772Y-40947241D01*
X56517768Y-40947238D01*
X56484463Y-40932826D01*
X56473813Y-40927609D01*
X56435060Y-40906305D01*
X56415437Y-40901267D01*
X56396734Y-40894863D01*
X56385420Y-40889967D01*
X56385419Y-40889967D01*
X56378145Y-40886819D01*
X56370322Y-40885580D01*
X56370312Y-40885577D01*
X56334476Y-40879901D01*
X56322856Y-40877495D01*
X56287711Y-40868472D01*
X56287710Y-40868472D01*
X56280030Y-40866500D01*
X56259776Y-40866500D01*
X56240065Y-40864949D01*
X56227886Y-40863020D01*
X56220057Y-40861780D01*
X56212165Y-40862526D01*
X56176039Y-40865941D01*
X56164181Y-40866500D01*
X50508200Y-40866500D01*
X50440079Y-40846498D01*
X50420853Y-40830157D01*
X50420580Y-40830460D01*
X50415668Y-40826037D01*
X50411253Y-40821134D01*
X50256752Y-40708882D01*
X50250724Y-40706198D01*
X50250722Y-40706197D01*
X50088319Y-40633891D01*
X50088318Y-40633891D01*
X50082288Y-40631206D01*
X49988887Y-40611353D01*
X49901944Y-40592872D01*
X49901939Y-40592872D01*
X49895487Y-40591500D01*
X49704513Y-40591500D01*
X49698061Y-40592872D01*
X49698056Y-40592872D01*
X49611113Y-40611353D01*
X49517712Y-40631206D01*
X49410748Y-40678829D01*
X49340382Y-40688263D01*
X49276085Y-40658157D01*
X49238271Y-40598068D01*
X49233500Y-40563722D01*
X49233500Y-40202524D01*
X49253502Y-40134403D01*
X49265858Y-40118221D01*
X49339040Y-40036944D01*
X49434527Y-39871556D01*
X49493542Y-39689928D01*
X49513504Y-39500000D01*
X49493542Y-39310072D01*
X49434527Y-39128444D01*
X49339040Y-38963056D01*
X49211253Y-38821134D01*
X49094677Y-38736436D01*
X49051323Y-38680213D01*
X49045248Y-38609477D01*
X49078380Y-38546686D01*
X49140200Y-38511774D01*
X49168738Y-38508500D01*
X61991377Y-38508500D01*
X61992148Y-38508502D01*
X62069721Y-38508976D01*
X62098152Y-38500850D01*
X62114915Y-38497272D01*
X62115753Y-38497152D01*
X62144187Y-38493080D01*
X62167564Y-38482451D01*
X62185087Y-38476004D01*
X62209771Y-38468949D01*
X62217365Y-38464157D01*
X62217368Y-38464156D01*
X62234780Y-38453170D01*
X62249865Y-38445030D01*
X62276782Y-38432792D01*
X62296235Y-38416030D01*
X62311239Y-38404927D01*
X62332958Y-38391224D01*
X62338897Y-38384499D01*
X62338901Y-38384496D01*
X62352532Y-38369062D01*
X62364724Y-38357018D01*
X62380327Y-38343573D01*
X62380329Y-38343570D01*
X62387127Y-38337713D01*
X62401094Y-38316165D01*
X62412385Y-38301291D01*
X62423431Y-38288783D01*
X62423432Y-38288782D01*
X62429378Y-38282049D01*
X62441943Y-38255287D01*
X62450263Y-38240309D01*
X62461471Y-38223017D01*
X62461473Y-38223012D01*
X62466352Y-38215485D01*
X62468922Y-38206892D01*
X62468924Y-38206887D01*
X62473711Y-38190880D01*
X62480372Y-38173436D01*
X62487467Y-38158324D01*
X62487468Y-38158322D01*
X62491281Y-38150200D01*
X62495830Y-38120983D01*
X62499613Y-38104268D01*
X62505515Y-38084534D01*
X62505516Y-38084528D01*
X62508086Y-38075934D01*
X62508296Y-38041494D01*
X62508329Y-38040711D01*
X62508500Y-38039614D01*
X62508500Y-38008623D01*
X62508502Y-38007853D01*
X62508952Y-37934215D01*
X62508952Y-37934214D01*
X62508976Y-37930279D01*
X62508592Y-37928935D01*
X62508500Y-37927590D01*
X62508500Y-31008623D01*
X62508502Y-31007853D01*
X62508800Y-30959102D01*
X62508976Y-30930279D01*
X62500850Y-30901847D01*
X62497272Y-30885085D01*
X62494352Y-30864698D01*
X62493080Y-30855813D01*
X62482451Y-30832436D01*
X62476004Y-30814913D01*
X62471416Y-30798862D01*
X62468949Y-30790229D01*
X62464156Y-30782632D01*
X62453170Y-30765220D01*
X62445030Y-30750135D01*
X62440632Y-30740462D01*
X62432792Y-30723218D01*
X62416030Y-30703765D01*
X62404927Y-30688761D01*
X62391224Y-30667042D01*
X62384499Y-30661103D01*
X62384496Y-30661099D01*
X62369062Y-30647468D01*
X62357018Y-30635276D01*
X62343573Y-30619673D01*
X62343570Y-30619671D01*
X62337713Y-30612873D01*
X62325848Y-30605182D01*
X62316165Y-30598906D01*
X62301291Y-30587615D01*
X62288783Y-30576569D01*
X62288782Y-30576568D01*
X62282049Y-30570622D01*
X62255287Y-30558057D01*
X62240309Y-30549737D01*
X62223017Y-30538529D01*
X62223012Y-30538527D01*
X62215485Y-30533648D01*
X62206892Y-30531078D01*
X62206887Y-30531076D01*
X62190880Y-30526289D01*
X62173436Y-30519628D01*
X62158324Y-30512533D01*
X62158322Y-30512532D01*
X62150200Y-30508719D01*
X62141333Y-30507338D01*
X62141332Y-30507338D01*
X62130478Y-30505648D01*
X62120983Y-30504170D01*
X62104268Y-30500387D01*
X62084534Y-30494485D01*
X62084528Y-30494484D01*
X62075934Y-30491914D01*
X62066963Y-30491859D01*
X62066962Y-30491859D01*
X62056903Y-30491798D01*
X62041494Y-30491704D01*
X62040711Y-30491671D01*
X62039614Y-30491500D01*
X62008623Y-30491500D01*
X62007853Y-30491498D01*
X61934215Y-30491048D01*
X61934214Y-30491048D01*
X61930279Y-30491024D01*
X61928935Y-30491408D01*
X61927590Y-30491500D01*
X46008623Y-30491500D01*
X46007853Y-30491498D01*
X46007037Y-30491493D01*
X45930279Y-30491024D01*
X45907918Y-30497415D01*
X45901847Y-30499150D01*
X45885085Y-30502728D01*
X45855813Y-30506920D01*
X45847645Y-30510634D01*
X45847644Y-30510634D01*
X45832438Y-30517548D01*
X45814914Y-30523996D01*
X45790229Y-30531051D01*
X45782635Y-30535843D01*
X45782632Y-30535844D01*
X45765220Y-30546830D01*
X45750137Y-30554969D01*
X45723218Y-30567208D01*
X45716416Y-30573069D01*
X45703765Y-30583970D01*
X45688761Y-30595073D01*
X45667042Y-30608776D01*
X45661103Y-30615501D01*
X45661099Y-30615504D01*
X45647468Y-30630938D01*
X45635276Y-30642982D01*
X45619673Y-30656427D01*
X45619671Y-30656430D01*
X45612873Y-30662287D01*
X45607993Y-30669816D01*
X45607992Y-30669817D01*
X45598906Y-30683835D01*
X45587615Y-30698709D01*
X45576569Y-30711217D01*
X45570622Y-30717951D01*
X45560353Y-30739823D01*
X45558058Y-30744711D01*
X45549737Y-30759691D01*
X45538529Y-30776983D01*
X45538527Y-30776988D01*
X45533648Y-30784515D01*
X45531078Y-30793108D01*
X45531076Y-30793113D01*
X45526289Y-30809120D01*
X45519628Y-30826564D01*
X45512533Y-30841676D01*
X45508719Y-30849800D01*
X45507338Y-30858667D01*
X45507338Y-30858668D01*
X45504170Y-30879015D01*
X45500387Y-30895732D01*
X45494485Y-30915466D01*
X45494484Y-30915472D01*
X45491914Y-30924066D01*
X45491859Y-30933037D01*
X45491859Y-30933038D01*
X45491704Y-30958497D01*
X45491671Y-30959289D01*
X45491500Y-30960386D01*
X45491500Y-30991377D01*
X45491498Y-30992147D01*
X45491024Y-31069721D01*
X45491408Y-31071065D01*
X45491500Y-31072410D01*
X45491500Y-37991377D01*
X45491498Y-37992147D01*
X45491024Y-38069721D01*
X39508500Y-38069721D01*
X39508500Y-29989455D01*
X66244825Y-29989455D01*
X66245512Y-29996462D01*
X66245512Y-29996465D01*
X66248311Y-30025010D01*
X66261255Y-30157025D01*
X66314402Y-30316791D01*
X66401624Y-30460812D01*
X66406513Y-30465875D01*
X66406514Y-30465876D01*
X66449737Y-30510634D01*
X66518586Y-30581929D01*
X66524483Y-30585788D01*
X66653577Y-30670266D01*
X66653581Y-30670268D01*
X66659475Y-30674125D01*
X66817289Y-30732815D01*
X66824270Y-30733746D01*
X66824272Y-30733747D01*
X66869812Y-30739823D01*
X66984183Y-30755083D01*
X66991194Y-30754445D01*
X66991198Y-30754445D01*
X67144843Y-30740462D01*
X67151864Y-30739823D01*
X67158566Y-30737645D01*
X67158568Y-30737645D01*
X67305298Y-30689970D01*
X67305301Y-30689969D01*
X67311997Y-30687793D01*
X67456623Y-30601578D01*
X67461717Y-30596727D01*
X67461721Y-30596724D01*
X67573454Y-30490322D01*
X67573455Y-30490320D01*
X67578554Y-30485465D01*
X67594934Y-30460812D01*
X67667836Y-30351085D01*
X67671731Y-30345223D01*
X67731521Y-30187823D01*
X67754955Y-30021088D01*
X67755249Y-30000000D01*
X67736481Y-29832676D01*
X67681108Y-29673668D01*
X67591884Y-29530879D01*
X67583723Y-29522661D01*
X67478205Y-29416403D01*
X67478201Y-29416400D01*
X67473242Y-29411406D01*
X67331079Y-29321187D01*
X67172462Y-29264706D01*
X67165474Y-29263873D01*
X67165471Y-29263872D01*
X67072300Y-29252762D01*
X67005273Y-29244769D01*
X66998270Y-29245505D01*
X66998269Y-29245505D01*
X66952712Y-29250293D01*
X66837821Y-29262369D01*
X66831155Y-29264638D01*
X66831152Y-29264639D01*
X66685098Y-29314360D01*
X66685095Y-29314361D01*
X66678431Y-29316630D01*
X66672436Y-29320318D01*
X66672432Y-29320320D01*
X66541021Y-29401165D01*
X66541019Y-29401167D01*
X66535022Y-29404856D01*
X66414724Y-29522661D01*
X66323515Y-29664190D01*
X66265927Y-29822409D01*
X66244825Y-29989455D01*
X39508500Y-29989455D01*
X39508500Y-29053250D01*
X39510246Y-29032345D01*
X39512770Y-29017344D01*
X39512770Y-29017341D01*
X39513576Y-29012552D01*
X39513729Y-29000000D01*
X39513040Y-28995188D01*
X39512723Y-28990327D01*
X39513008Y-28990308D01*
X39512607Y-28963549D01*
X39519234Y-28904736D01*
X39525513Y-28877229D01*
X39552485Y-28800147D01*
X39564727Y-28774726D01*
X39608178Y-28705574D01*
X39625770Y-28683515D01*
X39683515Y-28625770D01*
X39705574Y-28608178D01*
X39774726Y-28564727D01*
X39800147Y-28552485D01*
X39877228Y-28525513D01*
X39904736Y-28519234D01*
X39960226Y-28512982D01*
X39975868Y-28513077D01*
X39975879Y-28512200D01*
X39984851Y-28512310D01*
X39993724Y-28513691D01*
X40002626Y-28512527D01*
X40002628Y-28512527D01*
X40017951Y-28510523D01*
X40025286Y-28509564D01*
X40041621Y-28508500D01*
X67950633Y-28508500D01*
X67970018Y-28510000D01*
G37*
%TD.AperFunction*%
%TA.AperFunction,Conductor*%
G36*
X50234032Y-49030924D02*
G01*
X50279095Y-49059885D01*
X50460115Y-49240905D01*
X50494141Y-49303217D01*
X50489076Y-49374032D01*
X50460115Y-49419095D01*
X49502207Y-50377003D01*
X49495777Y-50388777D01*
X49505074Y-50400793D01*
X49548069Y-50430898D01*
X49557555Y-50436376D01*
X49662965Y-50485529D01*
X49716250Y-50532446D01*
X49735711Y-50600723D01*
X49715169Y-50668683D01*
X49662965Y-50713919D01*
X49557311Y-50763186D01*
X49557306Y-50763189D01*
X49552324Y-50765512D01*
X49547817Y-50768668D01*
X49547815Y-50768669D01*
X49374730Y-50889864D01*
X49374727Y-50889866D01*
X49370219Y-50893023D01*
X49213023Y-51050219D01*
X49209866Y-51054727D01*
X49209864Y-51054730D01*
X49120209Y-51182771D01*
X49064752Y-51227099D01*
X49016996Y-51236500D01*
X48859500Y-51236500D01*
X48791379Y-51216498D01*
X48744886Y-51162842D01*
X48733500Y-51110500D01*
X48733500Y-49758237D01*
X48753502Y-49690116D01*
X48807158Y-49643623D01*
X48877432Y-49633519D01*
X48942012Y-49663013D01*
X48981207Y-49725625D01*
X48990610Y-49760718D01*
X48994355Y-49771007D01*
X49083623Y-49962441D01*
X49089103Y-49971932D01*
X49119794Y-50015765D01*
X49130271Y-50024140D01*
X49143718Y-50017072D01*
X50100905Y-49059885D01*
X50163217Y-49025859D01*
X50234032Y-49030924D01*
G37*
%TD.AperFunction*%
%TD*%
M02*
