%TF.GenerationSoftware,KiCad,Pcbnew,(6.0.5-0)*%
%TF.CreationDate,2022-06-26T23:43:10+02:00*%
%TF.ProjectId,Fuji-IoT,46756a69-2d49-46f5-942e-6b696361645f,rev?*%
%TF.SameCoordinates,Original*%
%TF.FileFunction,Soldermask,Top*%
%TF.FilePolarity,Negative*%
%FSLAX46Y46*%
G04 Gerber Fmt 4.6, Leading zero omitted, Abs format (unit mm)*
G04 Created by KiCad (PCBNEW (6.0.5-0)) date 2022-06-26 23:43:10*
%MOMM*%
%LPD*%
G01*
G04 APERTURE LIST*
G04 Aperture macros list*
%AMRoundRect*
0 Rectangle with rounded corners*
0 $1 Rounding radius*
0 $2 $3 $4 $5 $6 $7 $8 $9 X,Y pos of 4 corners*
0 Add a 4 corners polygon primitive as box body*
4,1,4,$2,$3,$4,$5,$6,$7,$8,$9,$2,$3,0*
0 Add four circle primitives for the rounded corners*
1,1,$1+$1,$2,$3*
1,1,$1+$1,$4,$5*
1,1,$1+$1,$6,$7*
1,1,$1+$1,$8,$9*
0 Add four rect primitives between the rounded corners*
20,1,$1+$1,$2,$3,$4,$5,0*
20,1,$1+$1,$4,$5,$6,$7,0*
20,1,$1+$1,$6,$7,$8,$9,0*
20,1,$1+$1,$8,$9,$2,$3,0*%
G04 Aperture macros list end*
%ADD10C,2.100000*%
%ADD11C,1.500000*%
%ADD12R,1.700000X1.700000*%
%ADD13O,1.700000X1.700000*%
%ADD14RoundRect,0.250000X-0.337500X-0.475000X0.337500X-0.475000X0.337500X0.475000X-0.337500X0.475000X0*%
%ADD15C,1.524000*%
%ADD16R,2.000000X1.500000*%
%ADD17R,2.000000X3.800000*%
%ADD18RoundRect,0.250001X0.837499X1.399999X-0.837499X1.399999X-0.837499X-1.399999X0.837499X-1.399999X0*%
%ADD19C,1.950000*%
%ADD20RoundRect,0.150000X-0.825000X-0.150000X0.825000X-0.150000X0.825000X0.150000X-0.825000X0.150000X0*%
%ADD21RoundRect,0.237500X0.237500X-0.300000X0.237500X0.300000X-0.237500X0.300000X-0.237500X-0.300000X0*%
G04 APERTURE END LIST*
D10*
%TO.C,REF\u002A\u002A*%
X44500000Y-57000000D03*
%TD*%
%TO.C,REF\u002A\u002A*%
X64000000Y-57000000D03*
%TD*%
D11*
%TO.C,FID2*%
X41000000Y-76000000D03*
%TD*%
%TO.C,FID1*%
X67000000Y-30000000D03*
%TD*%
D12*
%TO.C,J1*%
X66200000Y-54340000D03*
D13*
X66200000Y-51800000D03*
X66200000Y-49260000D03*
%TD*%
D14*
%TO.C,C4*%
X65737500Y-65400000D03*
X63662500Y-65400000D03*
%TD*%
D15*
%TO.C,U3*%
X57810000Y-49330000D03*
X57810000Y-51870000D03*
X55270000Y-49330000D03*
X55270000Y-51870000D03*
X52730000Y-49330000D03*
X52730000Y-51870000D03*
X50190000Y-49330000D03*
X50190000Y-51870000D03*
%TD*%
D16*
%TO.C,U1*%
X50050000Y-69400000D03*
X50050000Y-71700000D03*
D17*
X43750000Y-71700000D03*
D16*
X50050000Y-74000000D03*
%TD*%
D14*
%TO.C,C3*%
X65637500Y-60500000D03*
X63562500Y-60500000D03*
%TD*%
D18*
%TO.C,C2*%
X43912500Y-62400000D03*
X50287500Y-62400000D03*
%TD*%
D19*
%TO.C,J2*%
X64100000Y-71900000D03*
X60600000Y-71900000D03*
X57100000Y-71900000D03*
%TD*%
D20*
%TO.C,U2*%
X60375000Y-60295000D03*
X60375000Y-61565000D03*
X60375000Y-62835000D03*
X60375000Y-64105000D03*
X55425000Y-64105000D03*
X55425000Y-62835000D03*
X55425000Y-61565000D03*
X55425000Y-60295000D03*
%TD*%
D21*
%TO.C,C1*%
X53100000Y-72237500D03*
X53100000Y-73962500D03*
%TD*%
M02*
